<?xml version="1.0" encoding="utf-8" standalone="no"?>
<!DOCTYPE svg PUBLIC "-//W3C//DTD SVG 1.1//EN"
  "http://www.w3.org/Graphics/SVG/1.1/DTD/svg11.dtd">
<svg xmlns:xlink="http://www.w3.org/1999/xlink" width="686.152857pt" height="283.628428pt" viewBox="0 0 686.152857 283.628428" xmlns="http://www.w3.org/2000/svg" version="1.1">
 <metadata>
  <rdf:RDF xmlns:dc="http://purl.org/dc/elements/1.1/" xmlns:cc="http://creativecommons.org/ns#" xmlns:rdf="http://www.w3.org/1999/02/22-rdf-syntax-ns#">
   <cc:Work>
    <dc:type rdf:resource="http://purl.org/dc/dcmitype/StillImage"/>
    <dc:date>2025-11-23T09:29:55.395715</dc:date>
    <dc:format>image/svg+xml</dc:format>
    <dc:creator>
     <cc:Agent>
      <dc:title>Matplotlib v3.10.7, https://matplotlib.org/</dc:title>
     </cc:Agent>
    </dc:creator>
   </cc:Work>
  </rdf:RDF>
 </metadata>
 <defs>
  <style type="text/css">*{stroke-linejoin: round; stroke-linecap: butt}</style>
 </defs>
 <g id="figure_1">
  <g id="patch_1">
   <path d="M 0 283.628428 
L 686.152857 283.628428 
L 686.152857 0 
L 0 0 
z
" style="fill: #ffffff"/>
  </g>
  <g id="axes_1">
   <g id="patch_2">
    <path d="M 50.14375 246.072178 
L 528.429464 246.072178 
L 528.429464 24.312178 
L 50.14375 24.312178 
z
" style="fill: #ffffff"/>
   </g>
   <g id="FillBetweenPolyCollection_1"/>
   <g id="FillBetweenPolyCollection_2"/>
   <g id="FillBetweenPolyCollection_3"/>
   <g id="FillBetweenPolyCollection_4"/>
   <g id="FillBetweenPolyCollection_5"/>
   <g id="FillBetweenPolyCollection_6"/>
   <g id="FillBetweenPolyCollection_7"/>
   <g id="FillBetweenPolyCollection_8"/>
   <g id="FillBetweenPolyCollection_9">
    <defs>
     <path id="m547ee5755c" d="M 331.893146 -37.55625 
L 240.125216 -37.55625 
L 240.125216 -259.31625 
L 331.893146 -259.31625 
L 331.893146 -259.31625 
L 331.893146 -37.55625 
z
" style="stroke: #7f7f7f; stroke-opacity: 0.05"/>
    </defs>
    <g clip-path="url(#p86badc4233)">
     <use xlink:href="#m547ee5755c" x="0" y="283.628428" style="fill: #7f7f7f; fill-opacity: 0.05; stroke: #7f7f7f; stroke-opacity: 0.05"/>
    </g>
   </g>
   <g id="matplotlib.axis_1">
    <g id="xtick_1">
     <g id="line2d_1">
      <defs>
       <path id="m01c487120c" d="M 0 0 
L 0 3.5 
" style="stroke: #000000; stroke-width: 0.8"/>
      </defs>
      <g>
       <use xlink:href="#m01c487120c" x="71.448769" y="246.072178" style="stroke: #000000; stroke-width: 0.8"/>
      </g>
     </g>
     <g id="text_1">
      <!-- 0.0 -->
      <g transform="translate(63.497207 260.670616) scale(0.1 -0.1)">
       <defs>
        <path id="DejaVuSans-30" d="M 2034 4250 
Q 1547 4250 1301 3770 
Q 1056 3291 1056 2328 
Q 1056 1369 1301 889 
Q 1547 409 2034 409 
Q 2525 409 2770 889 
Q 3016 1369 3016 2328 
Q 3016 3291 2770 3770 
Q 2525 4250 2034 4250 
z
M 2034 4750 
Q 2819 4750 3233 4129 
Q 3647 3509 3647 2328 
Q 3647 1150 3233 529 
Q 2819 -91 2034 -91 
Q 1250 -91 836 529 
Q 422 1150 422 2328 
Q 422 3509 836 4129 
Q 1250 4750 2034 4750 
z
" transform="scale(0.015625)"/>
        <path id="DejaVuSans-2e" d="M 684 794 
L 1344 794 
L 1344 0 
L 684 0 
L 684 794 
z
" transform="scale(0.015625)"/>
       </defs>
       <use xlink:href="#DejaVuSans-30"/>
       <use xlink:href="#DejaVuSans-2e" transform="translate(63.623047 0)"/>
       <use xlink:href="#DejaVuSans-30" transform="translate(95.410156 0)"/>
      </g>
     </g>
    </g>
    <g id="xtick_2">
     <g id="line2d_2">
      <g>
       <use xlink:href="#m01c487120c" x="158.496856" y="246.072178" style="stroke: #000000; stroke-width: 0.8"/>
      </g>
     </g>
     <g id="text_2">
      <!-- 0.2 -->
      <g transform="translate(150.545294 260.670616) scale(0.1 -0.1)">
       <defs>
        <path id="DejaVuSans-32" d="M 1228 531 
L 3431 531 
L 3431 0 
L 469 0 
L 469 531 
Q 828 903 1448 1529 
Q 2069 2156 2228 2338 
Q 2531 2678 2651 2914 
Q 2772 3150 2772 3378 
Q 2772 3750 2511 3984 
Q 2250 4219 1831 4219 
Q 1534 4219 1204 4116 
Q 875 4013 500 3803 
L 500 4441 
Q 881 4594 1212 4672 
Q 1544 4750 1819 4750 
Q 2544 4750 2975 4387 
Q 3406 4025 3406 3419 
Q 3406 3131 3298 2873 
Q 3191 2616 2906 2266 
Q 2828 2175 2409 1742 
Q 1991 1309 1228 531 
z
" transform="scale(0.015625)"/>
       </defs>
       <use xlink:href="#DejaVuSans-30"/>
       <use xlink:href="#DejaVuSans-2e" transform="translate(63.623047 0)"/>
       <use xlink:href="#DejaVuSans-32" transform="translate(95.410156 0)"/>
      </g>
     </g>
    </g>
    <g id="xtick_3">
     <g id="line2d_3">
      <g>
       <use xlink:href="#m01c487120c" x="245.544943" y="246.072178" style="stroke: #000000; stroke-width: 0.8"/>
      </g>
     </g>
     <g id="text_3">
      <!-- 0.4 -->
      <g transform="translate(237.593381 260.670616) scale(0.1 -0.1)">
       <defs>
        <path id="DejaVuSans-34" d="M 2419 4116 
L 825 1625 
L 2419 1625 
L 2419 4116 
z
M 2253 4666 
L 3047 4666 
L 3047 1625 
L 3713 1625 
L 3713 1100 
L 3047 1100 
L 3047 0 
L 2419 0 
L 2419 1100 
L 313 1100 
L 313 1709 
L 2253 4666 
z
" transform="scale(0.015625)"/>
       </defs>
       <use xlink:href="#DejaVuSans-30"/>
       <use xlink:href="#DejaVuSans-2e" transform="translate(63.623047 0)"/>
       <use xlink:href="#DejaVuSans-34" transform="translate(95.410156 0)"/>
      </g>
     </g>
    </g>
    <g id="xtick_4">
     <g id="line2d_4">
      <g>
       <use xlink:href="#m01c487120c" x="332.59303" y="246.072178" style="stroke: #000000; stroke-width: 0.8"/>
      </g>
     </g>
     <g id="text_4">
      <!-- 0.6 -->
      <g transform="translate(324.641468 260.670616) scale(0.1 -0.1)">
       <defs>
        <path id="DejaVuSans-36" d="M 2113 2584 
Q 1688 2584 1439 2293 
Q 1191 2003 1191 1497 
Q 1191 994 1439 701 
Q 1688 409 2113 409 
Q 2538 409 2786 701 
Q 3034 994 3034 1497 
Q 3034 2003 2786 2293 
Q 2538 2584 2113 2584 
z
M 3366 4563 
L 3366 3988 
Q 3128 4100 2886 4159 
Q 2644 4219 2406 4219 
Q 1781 4219 1451 3797 
Q 1122 3375 1075 2522 
Q 1259 2794 1537 2939 
Q 1816 3084 2150 3084 
Q 2853 3084 3261 2657 
Q 3669 2231 3669 1497 
Q 3669 778 3244 343 
Q 2819 -91 2113 -91 
Q 1303 -91 875 529 
Q 447 1150 447 2328 
Q 447 3434 972 4092 
Q 1497 4750 2381 4750 
Q 2619 4750 2861 4703 
Q 3103 4656 3366 4563 
z
" transform="scale(0.015625)"/>
       </defs>
       <use xlink:href="#DejaVuSans-30"/>
       <use xlink:href="#DejaVuSans-2e" transform="translate(63.623047 0)"/>
       <use xlink:href="#DejaVuSans-36" transform="translate(95.410156 0)"/>
      </g>
     </g>
    </g>
    <g id="xtick_5">
     <g id="line2d_5">
      <g>
       <use xlink:href="#m01c487120c" x="419.641117" y="246.072178" style="stroke: #000000; stroke-width: 0.8"/>
      </g>
     </g>
     <g id="text_5">
      <!-- 0.8 -->
      <g transform="translate(411.689555 260.670616) scale(0.1 -0.1)">
       <defs>
        <path id="DejaVuSans-38" d="M 2034 2216 
Q 1584 2216 1326 1975 
Q 1069 1734 1069 1313 
Q 1069 891 1326 650 
Q 1584 409 2034 409 
Q 2484 409 2743 651 
Q 3003 894 3003 1313 
Q 3003 1734 2745 1975 
Q 2488 2216 2034 2216 
z
M 1403 2484 
Q 997 2584 770 2862 
Q 544 3141 544 3541 
Q 544 4100 942 4425 
Q 1341 4750 2034 4750 
Q 2731 4750 3128 4425 
Q 3525 4100 3525 3541 
Q 3525 3141 3298 2862 
Q 3072 2584 2669 2484 
Q 3125 2378 3379 2068 
Q 3634 1759 3634 1313 
Q 3634 634 3220 271 
Q 2806 -91 2034 -91 
Q 1263 -91 848 271 
Q 434 634 434 1313 
Q 434 1759 690 2068 
Q 947 2378 1403 2484 
z
M 1172 3481 
Q 1172 3119 1398 2916 
Q 1625 2713 2034 2713 
Q 2441 2713 2670 2916 
Q 2900 3119 2900 3481 
Q 2900 3844 2670 4047 
Q 2441 4250 2034 4250 
Q 1625 4250 1398 4047 
Q 1172 3844 1172 3481 
z
" transform="scale(0.015625)"/>
       </defs>
       <use xlink:href="#DejaVuSans-30"/>
       <use xlink:href="#DejaVuSans-2e" transform="translate(63.623047 0)"/>
       <use xlink:href="#DejaVuSans-38" transform="translate(95.410156 0)"/>
      </g>
     </g>
    </g>
    <g id="xtick_6">
     <g id="line2d_6">
      <g>
       <use xlink:href="#m01c487120c" x="506.689205" y="246.072178" style="stroke: #000000; stroke-width: 0.8"/>
      </g>
     </g>
     <g id="text_6">
      <!-- 1.0 -->
      <g transform="translate(498.737642 260.670616) scale(0.1 -0.1)">
       <defs>
        <path id="DejaVuSans-31" d="M 794 531 
L 1825 531 
L 1825 4091 
L 703 3866 
L 703 4441 
L 1819 4666 
L 2450 4666 
L 2450 531 
L 3481 531 
L 3481 0 
L 794 0 
L 794 531 
z
" transform="scale(0.015625)"/>
       </defs>
       <use xlink:href="#DejaVuSans-31"/>
       <use xlink:href="#DejaVuSans-2e" transform="translate(63.623047 0)"/>
       <use xlink:href="#DejaVuSans-30" transform="translate(95.410156 0)"/>
      </g>
     </g>
    </g>
    <g id="text_7">
     <!-- $\theta$ -->
     <g transform="translate(286.186607 274.348741) scale(0.1 -0.1)">
      <defs>
       <path id="DejaVuSans-Oblique-3b8" d="M 2913 2219 
L 925 2219 
Q 791 1284 928 888 
Q 1100 400 1566 400 
Q 2034 400 2391 891 
Q 2703 1322 2913 2219 
z
M 3009 2750 
Q 3094 3638 2984 3950 
Q 2813 4444 2353 4444 
Q 1875 4444 1525 3956 
Q 1250 3563 1034 2750 
L 3009 2750 
z
M 2444 4913 
Q 3194 4913 3494 4250 
Q 3794 3591 3566 2422 
Q 3341 1256 2781 594 
Q 2225 -72 1475 -72 
Q 722 -72 425 594 
Q 128 1256 353 2422 
Q 581 3591 1134 4250 
Q 1691 4913 2444 4913 
z
" transform="scale(0.015625)"/>
      </defs>
      <use xlink:href="#DejaVuSans-Oblique-3b8" transform="translate(0 0.234375)"/>
     </g>
    </g>
   </g>
   <g id="matplotlib.axis_2">
    <g id="ytick_1">
     <g id="line2d_7">
      <defs>
       <path id="mb8c67b797f" d="M 0 0 
L -3.5 0 
" style="stroke: #000000; stroke-width: 0.8"/>
      </defs>
      <g>
       <use xlink:href="#mb8c67b797f" x="50.14375" y="220.525871" style="stroke: #000000; stroke-width: 0.8"/>
      </g>
     </g>
     <g id="text_8">
      <!-- 0.51 -->
      <g transform="translate(20.878125 224.32509) scale(0.1 -0.1)">
       <defs>
        <path id="DejaVuSans-35" d="M 691 4666 
L 3169 4666 
L 3169 4134 
L 1269 4134 
L 1269 2991 
Q 1406 3038 1543 3061 
Q 1681 3084 1819 3084 
Q 2600 3084 3056 2656 
Q 3513 2228 3513 1497 
Q 3513 744 3044 326 
Q 2575 -91 1722 -91 
Q 1428 -91 1123 -41 
Q 819 9 494 109 
L 494 744 
Q 775 591 1075 516 
Q 1375 441 1709 441 
Q 2250 441 2565 725 
Q 2881 1009 2881 1497 
Q 2881 1984 2565 2268 
Q 2250 2553 1709 2553 
Q 1456 2553 1204 2497 
Q 953 2441 691 2322 
L 691 4666 
z
" transform="scale(0.015625)"/>
       </defs>
       <use xlink:href="#DejaVuSans-30"/>
       <use xlink:href="#DejaVuSans-2e" transform="translate(63.623047 0)"/>
       <use xlink:href="#DejaVuSans-35" transform="translate(95.410156 0)"/>
       <use xlink:href="#DejaVuSans-31" transform="translate(159.033203 0)"/>
      </g>
     </g>
    </g>
    <g id="ytick_2">
     <g id="line2d_8">
      <g>
       <use xlink:href="#mb8c67b797f" x="50.14375" y="175.430274" style="stroke: #000000; stroke-width: 0.8"/>
      </g>
     </g>
     <g id="text_9">
      <!-- 0.52 -->
      <g transform="translate(20.878125 179.229493) scale(0.1 -0.1)">
       <use xlink:href="#DejaVuSans-30"/>
       <use xlink:href="#DejaVuSans-2e" transform="translate(63.623047 0)"/>
       <use xlink:href="#DejaVuSans-35" transform="translate(95.410156 0)"/>
       <use xlink:href="#DejaVuSans-32" transform="translate(159.033203 0)"/>
      </g>
     </g>
    </g>
    <g id="ytick_3">
     <g id="line2d_9">
      <g>
       <use xlink:href="#mb8c67b797f" x="50.14375" y="130.334677" style="stroke: #000000; stroke-width: 0.8"/>
      </g>
     </g>
     <g id="text_10">
      <!-- 0.53 -->
      <g transform="translate(20.878125 134.133896) scale(0.1 -0.1)">
       <defs>
        <path id="DejaVuSans-33" d="M 2597 2516 
Q 3050 2419 3304 2112 
Q 3559 1806 3559 1356 
Q 3559 666 3084 287 
Q 2609 -91 1734 -91 
Q 1441 -91 1130 -33 
Q 819 25 488 141 
L 488 750 
Q 750 597 1062 519 
Q 1375 441 1716 441 
Q 2309 441 2620 675 
Q 2931 909 2931 1356 
Q 2931 1769 2642 2001 
Q 2353 2234 1838 2234 
L 1294 2234 
L 1294 2753 
L 1863 2753 
Q 2328 2753 2575 2939 
Q 2822 3125 2822 3475 
Q 2822 3834 2567 4026 
Q 2313 4219 1838 4219 
Q 1578 4219 1281 4162 
Q 984 4106 628 3988 
L 628 4550 
Q 988 4650 1302 4700 
Q 1616 4750 1894 4750 
Q 2613 4750 3031 4423 
Q 3450 4097 3450 3541 
Q 3450 3153 3228 2886 
Q 3006 2619 2597 2516 
z
" transform="scale(0.015625)"/>
       </defs>
       <use xlink:href="#DejaVuSans-30"/>
       <use xlink:href="#DejaVuSans-2e" transform="translate(63.623047 0)"/>
       <use xlink:href="#DejaVuSans-35" transform="translate(95.410156 0)"/>
       <use xlink:href="#DejaVuSans-33" transform="translate(159.033203 0)"/>
      </g>
     </g>
    </g>
    <g id="ytick_4">
     <g id="line2d_10">
      <g>
       <use xlink:href="#mb8c67b797f" x="50.14375" y="85.23908" style="stroke: #000000; stroke-width: 0.8"/>
      </g>
     </g>
     <g id="text_11">
      <!-- 0.54 -->
      <g transform="translate(20.878125 89.038299) scale(0.1 -0.1)">
       <use xlink:href="#DejaVuSans-30"/>
       <use xlink:href="#DejaVuSans-2e" transform="translate(63.623047 0)"/>
       <use xlink:href="#DejaVuSans-35" transform="translate(95.410156 0)"/>
       <use xlink:href="#DejaVuSans-34" transform="translate(159.033203 0)"/>
      </g>
     </g>
    </g>
    <g id="ytick_5">
     <g id="line2d_11">
      <g>
       <use xlink:href="#mb8c67b797f" x="50.14375" y="40.143483" style="stroke: #000000; stroke-width: 0.8"/>
      </g>
     </g>
     <g id="text_12">
      <!-- 0.55 -->
      <g transform="translate(20.878125 43.942702) scale(0.1 -0.1)">
       <use xlink:href="#DejaVuSans-30"/>
       <use xlink:href="#DejaVuSans-2e" transform="translate(63.623047 0)"/>
       <use xlink:href="#DejaVuSans-35" transform="translate(95.410156 0)"/>
       <use xlink:href="#DejaVuSans-35" transform="translate(159.033203 0)"/>
      </g>
     </g>
    </g>
    <g id="text_13">
     <!-- Welfare -->
     <g transform="translate(14.798437 154.151553) rotate(-90) scale(0.1 -0.1)">
      <defs>
       <path id="DejaVuSans-57" d="M 213 4666 
L 850 4666 
L 1831 722 
L 2809 4666 
L 3519 4666 
L 4500 722 
L 5478 4666 
L 6119 4666 
L 4947 0 
L 4153 0 
L 3169 4050 
L 2175 0 
L 1381 0 
L 213 4666 
z
" transform="scale(0.015625)"/>
       <path id="DejaVuSans-65" d="M 3597 1894 
L 3597 1613 
L 953 1613 
Q 991 1019 1311 708 
Q 1631 397 2203 397 
Q 2534 397 2845 478 
Q 3156 559 3463 722 
L 3463 178 
Q 3153 47 2828 -22 
Q 2503 -91 2169 -91 
Q 1331 -91 842 396 
Q 353 884 353 1716 
Q 353 2575 817 3079 
Q 1281 3584 2069 3584 
Q 2775 3584 3186 3129 
Q 3597 2675 3597 1894 
z
M 3022 2063 
Q 3016 2534 2758 2815 
Q 2500 3097 2075 3097 
Q 1594 3097 1305 2825 
Q 1016 2553 972 2059 
L 3022 2063 
z
" transform="scale(0.015625)"/>
       <path id="DejaVuSans-6c" d="M 603 4863 
L 1178 4863 
L 1178 0 
L 603 0 
L 603 4863 
z
" transform="scale(0.015625)"/>
       <path id="DejaVuSans-66" d="M 2375 4863 
L 2375 4384 
L 1825 4384 
Q 1516 4384 1395 4259 
Q 1275 4134 1275 3809 
L 1275 3500 
L 2222 3500 
L 2222 3053 
L 1275 3053 
L 1275 0 
L 697 0 
L 697 3053 
L 147 3053 
L 147 3500 
L 697 3500 
L 697 3744 
Q 697 4328 969 4595 
Q 1241 4863 1831 4863 
L 2375 4863 
z
" transform="scale(0.015625)"/>
       <path id="DejaVuSans-61" d="M 2194 1759 
Q 1497 1759 1228 1600 
Q 959 1441 959 1056 
Q 959 750 1161 570 
Q 1363 391 1709 391 
Q 2188 391 2477 730 
Q 2766 1069 2766 1631 
L 2766 1759 
L 2194 1759 
z
M 3341 1997 
L 3341 0 
L 2766 0 
L 2766 531 
Q 2569 213 2275 61 
Q 1981 -91 1556 -91 
Q 1019 -91 701 211 
Q 384 513 384 1019 
Q 384 1609 779 1909 
Q 1175 2209 1959 2209 
L 2766 2209 
L 2766 2266 
Q 2766 2663 2505 2880 
Q 2244 3097 1772 3097 
Q 1472 3097 1187 3025 
Q 903 2953 641 2809 
L 641 3341 
Q 956 3463 1253 3523 
Q 1550 3584 1831 3584 
Q 2591 3584 2966 3190 
Q 3341 2797 3341 1997 
z
" transform="scale(0.015625)"/>
       <path id="DejaVuSans-72" d="M 2631 2963 
Q 2534 3019 2420 3045 
Q 2306 3072 2169 3072 
Q 1681 3072 1420 2755 
Q 1159 2438 1159 1844 
L 1159 0 
L 581 0 
L 581 3500 
L 1159 3500 
L 1159 2956 
Q 1341 3275 1631 3429 
Q 1922 3584 2338 3584 
Q 2397 3584 2469 3576 
Q 2541 3569 2628 3553 
L 2631 2963 
z
" transform="scale(0.015625)"/>
      </defs>
      <use xlink:href="#DejaVuSans-57"/>
      <use xlink:href="#DejaVuSans-65" transform="translate(93.001953 0)"/>
      <use xlink:href="#DejaVuSans-6c" transform="translate(154.525391 0)"/>
      <use xlink:href="#DejaVuSans-66" transform="translate(182.308594 0)"/>
      <use xlink:href="#DejaVuSans-61" transform="translate(217.513672 0)"/>
      <use xlink:href="#DejaVuSans-72" transform="translate(278.792969 0)"/>
      <use xlink:href="#DejaVuSans-65" transform="translate(317.65625 0)"/>
     </g>
    </g>
   </g>
   <g id="line2d_12">
    <path d="M 71.88401 87.714231 
L 74.06896 87.714132 
L 76.253911 87.713892 
L 78.438862 87.71351 
L 80.623813 87.712986 
L 82.808763 87.712317 
L 84.993714 87.711503 
L 87.178665 87.710541 
L 89.363616 87.709429 
L 91.548566 87.708164 
L 93.733517 87.706743 
L 95.918468 87.705163 
L 98.103418 87.70342 
L 100.288369 87.70151 
L 102.47332 87.699428 
L 104.658271 87.697169 
L 106.843221 87.694729 
L 109.028172 87.692101 
L 111.213123 87.68928 
L 113.398074 87.686259 
L 115.583024 87.683031 
L 117.767975 87.67959 
L 119.952926 87.675928 
L 122.137876 87.672036 
L 124.322827 87.667908 
L 126.507778 87.663533 
L 128.692729 87.658904 
L 130.877679 87.654009 
L 133.06263 87.648841 
L 135.247581 87.643387 
L 137.432532 87.637638 
L 139.617482 87.631582 
L 141.802433 87.625208 
L 143.987384 87.618504 
L 146.172334 87.611457 
L 148.357285 87.604054 
L 150.542236 87.596281 
L 152.727187 87.588126 
L 154.912137 87.579574 
L 157.097088 87.570609 
L 159.282039 87.561217 
L 161.46699 87.551381 
L 163.65194 87.541086 
L 165.836891 87.530315 
L 168.021842 87.51905 
L 170.206792 87.507273 
L 172.391743 87.494967 
L 174.576694 87.482112 
L 176.761645 87.468688 
L 178.946595 87.454677 
L 181.131546 87.440056 
L 183.316497 87.424805 
L 185.501448 87.408901 
L 187.686398 87.392324 
L 189.871349 87.375049 
L 192.0563 87.357052 
L 194.24125 87.33831 
L 196.426201 87.318797 
L 198.611152 87.298488 
L 200.796103 87.277357 
L 202.981053 87.255375 
L 205.166004 87.232516 
L 207.350955 87.208751 
L 209.535906 87.184051 
L 211.720856 87.158385 
L 213.905807 87.131723 
L 216.090758 87.104033 
L 218.275708 87.075283 
L 220.460659 87.045439 
L 222.64561 87.014468 
L 224.830561 86.982333 
L 227.015511 86.949 
L 229.200462 86.914432 
L 231.385413 86.87859 
L 233.570364 86.841437 
L 235.755314 86.802931 
L 237.940265 86.763033 
L 240.125216 86.721702 
L 242.310166 86.678893 
L 244.495117 86.634563 
L 246.680068 86.588668 
L 248.865019 86.541161 
L 251.049969 86.491995 
L 253.23492 86.441122 
L 255.419871 86.388491 
L 257.604822 86.334052 
L 259.789772 86.277753 
L 261.974723 86.219541 
L 264.159674 86.159359 
L 266.344625 86.097154 
L 268.529575 86.032865 
L 270.714526 85.966436 
L 272.899477 85.897804 
L 275.084427 85.826908 
L 277.269378 85.753685 
L 279.454329 85.678069 
L 281.63928 85.599993 
L 283.82423 85.519388 
L 286.009181 85.436185 
L 288.194132 85.350312 
L 290.379083 85.261693 
L 292.564033 85.170254 
L 294.748984 85.075917 
L 296.933935 84.978602 
L 299.118885 84.878228 
L 301.303836 84.77471 
L 303.488787 84.667962 
L 305.673738 84.557898 
L 307.858688 84.444425 
L 310.043639 84.327451 
L 312.22859 84.206882 
L 314.413541 84.082619 
L 316.598491 83.954562 
L 318.783442 83.822609 
L 320.968393 83.686653 
L 323.153343 83.546588 
L 325.338294 83.402302 
L 327.523245 83.253681 
L 329.708196 83.100608 
L 331.893146 82.942962 
" clip-path="url(#p86badc4233)" style="fill: none; stroke: #1f77b4; stroke-width: 2; stroke-linecap: square"/>
   </g>
   <g id="line2d_13">
    <path d="M 334.078097 82.780622 
L 336.263048 82.61346 
L 338.447999 82.441347 
L 340.632949 82.264149 
L 342.8179 82.08173 
L 345.002851 81.893949 
L 347.187801 81.700661 
L 349.372752 81.501719 
L 351.557703 81.29697 
L 353.742654 81.086259 
L 355.927604 80.869424 
L 358.112555 80.6463 
L 360.297506 80.416719 
L 362.482457 80.180505 
L 364.667407 79.93748 
L 366.852358 79.687461 
L 369.037309 79.430257 
L 371.222259 79.165675 
L 373.40721 78.893516 
L 375.592161 78.613573 
L 377.777112 78.325636 
L 379.962062 78.029488 
L 382.147013 77.724905 
L 384.331964 77.411658 
L 386.516915 77.089511 
L 388.701865 76.75822 
L 390.886816 76.417537 
L 393.071767 76.067204 
L 395.256717 75.706956 
L 397.441668 75.336521 
L 399.626619 74.955619 
L 401.81157 74.563961 
L 403.99652 74.161251 
L 406.181471 73.747183 
L 408.366422 73.321441 
L 410.551373 72.883702 
L 412.736323 72.433632 
L 414.921274 71.970887 
L 417.106225 71.495112 
L 419.291175 71.005942 
L 421.476126 70.503002 
L 423.661077 69.985903 
L 425.846028 69.454245 
L 428.030978 68.907617 
L 430.215929 68.345593 
L 432.40088 67.767737 
L 434.585831 67.173595 
L 436.770781 66.562703 
L 438.955732 65.934579 
L 441.140683 65.288727 
L 443.325633 64.624637 
L 445.510584 63.941779 
L 447.695535 63.239608 
L 449.880486 62.517563 
L 452.065436 61.775061 
L 454.250387 61.011503 
L 456.435338 60.22627 
L 458.620289 59.418721 
L 460.805239 58.588194 
L 462.99019 57.734007 
L 465.175141 56.855453 
L 467.360091 55.951803 
L 469.545042 55.022301 
L 471.729993 54.066167 
L 473.914944 53.082595 
L 476.099894 52.070749 
L 478.284845 51.029765 
L 480.469796 49.958751 
L 482.654747 48.856781 
L 484.839697 47.722899 
L 487.024648 46.556112 
L 489.209599 45.355395 
L 491.394549 44.119685 
L 493.5795 42.84788 
L 495.764451 41.53884 
L 497.949402 40.191383 
L 500.134352 38.804282 
L 502.319303 37.376268 
L 504.504254 35.906022 
L 506.689205 34.392178 
" clip-path="url(#p86badc4233)" style="fill: none; stroke-dasharray: 2,2; stroke-dashoffset: 0; stroke: #1f77b4; stroke-width: 2"/>
   </g>
   <g id="line2d_14">
    <path d="M 248.865019 145.115856 
L 251.049969 144.73809 
L 253.23492 144.35453 
L 255.419871 143.965129 
L 257.604822 143.569839 
L 259.789772 143.168613 
L 261.974723 142.761399 
L 264.159674 142.348148 
L 266.344625 141.928809 
L 268.529575 141.503328 
L 270.714526 141.071654 
L 272.899477 140.633731 
L 275.084427 140.189505 
L 277.269378 139.73892 
L 279.454329 139.281919 
L 281.63928 138.818443 
L 283.82423 138.348434 
L 286.009181 137.871831 
L 288.194132 137.388574 
L 290.379083 136.898601 
L 292.564033 136.401848 
L 294.748984 135.89825 
L 296.933935 135.387744 
L 299.118885 134.870262 
L 301.303836 134.345736 
L 303.488787 133.814098 
L 305.673738 133.275278 
L 307.858688 132.729204 
L 310.043639 132.175805 
L 312.22859 131.615006 
L 314.413541 131.046733 
L 316.598491 130.470909 
L 318.783442 129.887458 
" clip-path="url(#p86badc4233)" style="fill: none; stroke: #ff7f0e; stroke-width: 2; stroke-linecap: square"/>
   </g>
   <g id="line2d_15">
    <path d="M 71.88401 159.446565 
L 74.06896 159.443706 
L 76.253911 159.436756 
L 78.438862 159.425716 
L 80.623813 159.410584 
L 82.808763 159.391358 
L 84.993714 159.368037 
L 87.178665 159.340617 
L 89.363616 159.309096 
L 91.548566 159.27347 
L 93.733517 159.233735 
L 95.918468 159.189888 
L 98.103418 159.141923 
L 100.288369 159.089835 
L 102.47332 159.033618 
L 104.658271 158.973266 
L 106.843221 158.908773 
L 109.028172 158.840131 
L 111.213123 158.767333 
L 113.398074 158.690371 
L 115.583024 158.609236 
L 117.767975 158.52392 
L 119.952926 158.434413 
L 122.137876 158.340705 
L 124.322827 158.242786 
L 126.507778 158.140645 
L 128.692729 158.03427 
L 130.877679 157.923651 
L 133.06263 157.808775 
L 135.247581 157.689629 
L 137.432532 157.5662 
L 139.617482 157.438474 
L 141.802433 157.306437 
L 143.987384 157.170074 
L 146.172334 157.029371 
L 148.357285 156.884311 
L 150.542236 156.734878 
L 152.727187 156.581056 
L 154.912137 156.422827 
L 157.097088 156.260174 
L 159.282039 156.093079 
L 161.46699 155.921522 
L 163.65194 155.745485 
L 165.836891 155.564947 
L 168.021842 155.379889 
L 170.206792 155.190289 
L 172.391743 154.996126 
L 174.576694 154.797378 
L 176.761645 154.594023 
L 178.946595 154.386037 
L 181.131546 154.173397 
L 183.316497 153.956078 
L 185.501448 153.734056 
L 187.686398 153.507305 
L 189.871349 153.275799 
L 192.0563 153.039513 
L 194.24125 152.798418 
L 196.426201 152.552487 
L 198.611152 152.301691 
L 200.796103 152.046002 
L 202.981053 151.78539 
L 205.166004 151.519824 
L 207.350955 151.249274 
L 209.535906 150.973709 
L 211.720856 150.693096 
L 213.905807 150.407402 
L 216.090758 150.116593 
L 218.275708 149.820637 
L 220.460659 149.519497 
L 222.64561 149.213138 
L 224.830561 148.901525 
L 227.015511 148.584619 
L 229.200462 148.262384 
L 231.385413 147.934781 
L 233.570364 147.601771 
L 235.755314 147.263313 
L 237.940265 146.919369 
L 240.125216 146.569895 
L 242.310166 146.21485 
L 244.495117 145.854191 
L 246.680068 145.487875 
" clip-path="url(#p86badc4233)" style="fill: none; stroke-dasharray: 2,2; stroke-dashoffset: 0; stroke: #ff7f0e; stroke-width: 2"/>
   </g>
   <g id="line2d_16">
    <path d="M 320.968393 129.296301 
L 323.153343 128.697356 
L 325.338294 128.090544 
L 327.523245 127.475781 
L 329.708196 126.852983 
L 331.893146 126.222064 
L 334.078097 125.582938 
L 336.263048 124.935515 
L 338.447999 124.279705 
L 340.632949 123.615418 
L 342.8179 122.942559 
L 345.002851 122.261034 
L 347.187801 121.570747 
L 349.372752 120.871599 
L 351.557703 120.163492 
L 353.742654 119.446323 
L 355.927604 118.719989 
L 358.112555 117.984386 
L 360.297506 117.239407 
L 362.482457 116.484943 
L 364.667407 115.720885 
L 366.852358 114.94712 
L 369.037309 114.163533 
L 371.222259 113.370009 
L 373.40721 112.566429 
L 375.592161 111.752674 
L 377.777112 110.928621 
L 379.962062 110.094146 
L 382.147013 109.249123 
L 384.331964 108.393422 
L 386.516915 107.526913 
L 388.701865 106.649463 
L 390.886816 105.760936 
L 393.071767 104.861194 
L 395.256717 103.950098 
L 397.441668 103.027503 
L 399.626619 102.093267 
L 401.81157 101.147239 
L 403.99652 100.189271 
L 406.181471 99.219208 
L 408.366422 98.236896 
L 410.551373 97.242176 
L 412.736323 96.234887 
L 414.921274 95.214864 
L 417.106225 94.181941 
L 419.291175 93.135947 
L 421.476126 92.076709 
L 423.661077 91.004051 
L 425.846028 89.917794 
L 428.030978 88.817756 
L 430.215929 87.703749 
L 432.40088 86.575586 
L 434.585831 85.433073 
L 436.770781 84.276014 
L 438.955732 83.104209 
L 441.140683 81.917455 
L 443.325633 80.715545 
L 445.510584 79.498268 
L 447.695535 78.265409 
L 449.880486 77.016749 
L 452.065436 75.752065 
L 454.250387 74.47113 
L 456.435338 73.173714 
L 458.620289 71.85958 
L 460.805239 70.528488 
L 462.99019 69.180194 
L 465.175141 67.81445 
L 467.360091 66.431 
L 469.545042 65.029587 
L 471.729993 63.609946 
L 473.914944 62.17181 
L 476.099894 60.714905 
L 478.284845 59.238952 
L 480.469796 57.743665 
L 482.654747 56.228757 
L 484.839697 54.693931 
L 487.024648 53.138886 
L 489.209599 51.563314 
L 491.394549 49.966904 
L 493.5795 48.349336 
L 495.764451 46.710284 
L 497.949402 45.049417 
L 500.134352 43.366396 
L 502.319303 41.660876 
L 504.504254 39.932505 
L 506.689205 38.180923 
" clip-path="url(#p86badc4233)" style="fill: none; stroke-dasharray: 2,2; stroke-dashoffset: 0; stroke: #ff7f0e; stroke-width: 2"/>
   </g>
   <g id="line2d_17">
    <path d="M 237.940265 189.820241 
L 240.125216 189.391594 
L 242.310166 188.956912 
L 244.495117 188.516178 
L 246.680068 188.069373 
L 248.865019 187.61648 
L 251.049969 187.157479 
L 253.23492 186.692351 
L 255.419871 186.221078 
L 257.604822 185.743639 
L 259.789772 185.260014 
L 261.974723 184.770184 
L 264.159674 184.274128 
L 266.344625 183.771825 
L 268.529575 183.263255 
L 270.714526 182.748395 
L 272.899477 182.227225 
L 275.084427 181.699723 
L 277.269378 181.165866 
L 279.454329 180.625632 
L 281.63928 180.078998 
L 283.82423 179.525941 
L 286.009181 178.966438 
L 288.194132 178.400464 
L 290.379083 177.827997 
L 292.564033 177.249011 
L 294.748984 176.663483 
L 296.933935 176.071386 
L 299.118885 175.472697 
L 301.303836 174.867388 
L 303.488787 174.255435 
L 305.673738 173.636812 
L 307.858688 173.01149 
L 310.043639 172.379445 
L 312.22859 171.740647 
L 314.413541 171.095071 
L 316.598491 170.442688 
L 318.783442 169.78347 
L 320.968393 169.117387 
L 323.153343 168.444412 
L 325.338294 167.764515 
" clip-path="url(#p86badc4233)" style="fill: none; stroke: #2ca02c; stroke-width: 2; stroke-linecap: square"/>
   </g>
   <g id="line2d_18">
    <path d="M 71.88401 205.729152 
L 74.06896 205.725394 
L 76.253911 205.716259 
L 78.438862 205.701748 
L 80.623813 205.681861 
L 82.808763 205.656595 
L 84.993714 205.625952 
L 87.178665 205.589928 
L 89.363616 205.548523 
L 91.548566 205.501736 
L 93.733517 205.449564 
L 95.918468 205.392005 
L 98.103418 205.329057 
L 100.288369 205.260717 
L 102.47332 205.186984 
L 104.658271 205.107853 
L 106.843221 205.023322 
L 109.028172 204.933387 
L 111.213123 204.838046 
L 113.398074 204.737293 
L 115.583024 204.631126 
L 117.767975 204.519539 
L 119.952926 204.402529 
L 122.137876 204.280091 
L 124.322827 204.152221 
L 126.507778 204.018912 
L 128.692729 203.880159 
L 130.877679 203.735959 
L 133.06263 203.586303 
L 135.247581 203.431187 
L 137.432532 203.270605 
L 139.617482 203.10455 
L 141.802433 202.933015 
L 143.987384 202.755993 
L 146.172334 202.573479 
L 148.357285 202.385464 
L 150.542236 202.19194 
L 152.727187 201.992901 
L 154.912137 201.788339 
L 157.097088 201.578244 
L 159.282039 201.362609 
L 161.46699 201.141425 
L 163.65194 200.914684 
L 165.836891 200.682376 
L 168.021842 200.444492 
L 170.206792 200.201022 
L 172.391743 199.951957 
L 174.576694 199.697287 
L 176.761645 199.437001 
L 178.946595 199.17109 
L 181.131546 198.899542 
L 183.316497 198.622347 
L 185.501448 198.339493 
L 187.686398 198.050969 
L 189.871349 197.756763 
L 192.0563 197.456865 
L 194.24125 197.15126 
L 196.426201 196.839938 
L 198.611152 196.522886 
L 200.796103 196.20009 
L 202.981053 195.871538 
L 205.166004 195.537216 
L 207.350955 195.197112 
L 209.535906 194.85121 
L 211.720856 194.499498 
L 213.905807 194.14196 
L 216.090758 193.778583 
L 218.275708 193.409351 
L 220.460659 193.034249 
L 222.64561 192.653263 
L 224.830561 192.266376 
L 227.015511 191.873573 
L 229.200462 191.474837 
L 231.385413 191.070153 
L 233.570364 190.659504 
L 235.755314 190.242872 
" clip-path="url(#p86badc4233)" style="fill: none; stroke-dasharray: 2,2; stroke-dashoffset: 0; stroke: #2ca02c; stroke-width: 2"/>
   </g>
   <g id="line2d_19">
    <path d="M 327.523245 167.077667 
L 329.708196 166.383836 
L 331.893146 165.682994 
L 334.078097 164.975109 
L 336.263048 164.26015 
L 338.447999 163.538086 
L 340.632949 162.808886 
L 342.8179 162.072516 
L 345.002851 161.328944 
L 347.187801 160.578137 
L 349.372752 159.820063 
L 351.557703 159.054687 
L 353.742654 158.281975 
L 355.927604 157.501893 
L 358.112555 156.714406 
L 360.297506 155.919479 
L 362.482457 155.117075 
L 364.667407 154.307159 
L 366.852358 153.489695 
L 369.037309 152.664645 
L 371.222259 151.831972 
L 373.40721 150.991638 
L 375.592161 150.143605 
L 377.777112 149.287835 
L 379.962062 148.424289 
L 382.147013 147.552926 
L 384.331964 146.673708 
L 386.516915 145.786593 
L 388.701865 144.891541 
L 390.886816 143.98851 
L 393.071767 143.07746 
L 395.256717 142.158347 
L 397.441668 141.231129 
L 399.626619 140.295764 
L 401.81157 139.352206 
L 403.99652 138.400413 
L 406.181471 137.440339 
L 408.366422 136.47194 
L 410.551373 135.495169 
L 412.736323 134.509982 
L 414.921274 133.516331 
L 417.106225 132.51417 
L 419.291175 131.50345 
L 421.476126 130.484123 
L 423.661077 129.456142 
L 425.846028 128.419457 
L 428.030978 127.374017 
L 430.215929 126.319774 
L 432.40088 125.256675 
L 434.585831 124.184671 
L 436.770781 123.103708 
L 438.955732 122.013734 
L 441.140683 120.914697 
L 443.325633 119.806543 
L 445.510584 118.689217 
L 447.695535 117.562665 
L 449.880486 116.426831 
L 452.065436 115.28166 
L 454.250387 114.127095 
L 456.435338 112.963078 
L 458.620289 111.789553 
L 460.805239 110.60646 
L 462.99019 109.41374 
L 465.175141 108.211334 
L 467.360091 106.999181 
L 469.545042 105.777221 
L 471.729993 104.545391 
L 473.914944 103.30363 
L 476.099894 102.051874 
L 478.284845 100.79006 
L 480.469796 99.518124 
L 482.654747 98.235999 
L 484.839697 96.943621 
L 487.024648 95.640923 
L 489.209599 94.327838 
L 491.394549 93.004298 
L 493.5795 91.670234 
L 495.764451 90.325576 
L 497.949402 88.970256 
L 500.134352 87.604201 
L 502.319303 86.22734 
L 504.504254 84.839601 
L 506.689205 83.44091 
" clip-path="url(#p86badc4233)" style="fill: none; stroke-dasharray: 2,2; stroke-dashoffset: 0; stroke: #2ca02c; stroke-width: 2"/>
   </g>
   <g id="line2d_20">
    <path d="M 240.125216 224.291215 
L 242.310166 223.984894 
L 244.495117 223.674568 
L 246.680068 223.360233 
L 248.865019 223.041888 
L 251.049969 222.71953 
L 253.23492 222.393156 
L 255.419871 222.062763 
L 257.604822 221.72835 
L 259.789772 221.389913 
L 261.974723 221.04745 
L 264.159674 220.700958 
L 266.344625 220.350434 
L 268.529575 219.995876 
L 270.714526 219.63728 
L 272.899477 219.274645 
L 275.084427 218.907966 
L 277.269378 218.537242 
L 279.454329 218.162469 
L 281.63928 217.783644 
L 283.82423 217.400764 
L 286.009181 217.013826 
L 288.194132 216.622828 
L 290.379083 216.227765 
L 292.564033 215.828636 
L 294.748984 215.425436 
L 296.933935 215.018162 
L 299.118885 214.606812 
L 301.303836 214.191382 
L 303.488787 213.771869 
L 305.673738 213.348268 
L 307.858688 212.920578 
L 310.043639 212.488795 
L 312.22859 212.052914 
L 314.413541 211.612934 
L 316.598491 211.168849 
L 318.783442 210.720657 
L 320.968393 210.268355 
L 323.153343 209.811937 
L 325.338294 209.351402 
L 327.523245 208.886744 
L 329.708196 208.417961 
L 331.893146 207.945049 
L 334.078097 207.468004 
L 336.263048 206.986821 
L 338.447999 206.501498 
L 340.632949 206.012031 
L 342.8179 205.518414 
L 345.002851 205.020646 
L 347.187801 204.51872 
L 349.372752 204.012635 
L 351.557703 203.502384 
L 353.742654 202.987965 
L 355.927604 202.469373 
L 358.112555 201.946605 
L 360.297506 201.419655 
L 362.482457 200.88852 
L 364.667407 200.353195 
L 366.852358 199.813676 
L 369.037309 199.269959 
L 371.222259 198.722039 
L 373.40721 198.169912 
L 375.592161 197.613574 
L 377.777112 197.053019 
L 379.962062 196.488245 
L 382.147013 195.919245 
L 384.331964 195.346015 
L 386.516915 194.768551 
L 388.701865 194.186848 
L 390.886816 193.600902 
L 393.071767 193.010707 
L 395.256717 192.416259 
L 397.441668 191.817553 
L 399.626619 191.214584 
L 401.81157 190.607348 
L 403.99652 189.995839 
L 406.181471 189.380052 
L 408.366422 188.759983 
L 410.551373 188.135626 
L 412.736323 187.506977 
L 414.921274 186.874029 
L 417.106225 186.236779 
L 419.291175 185.595221 
L 421.476126 184.94935 
L 423.661077 184.29916 
L 425.846028 183.644646 
L 428.030978 182.985803 
L 430.215929 182.322625 
L 432.40088 181.655108 
L 434.585831 180.983245 
L 436.770781 180.307031 
L 438.955732 179.62646 
L 441.140683 178.941528 
L 443.325633 178.252228 
L 445.510584 177.558556 
L 447.695535 176.860504 
L 449.880486 176.158067 
L 452.065436 175.45124 
L 454.250387 174.740017 
L 456.435338 174.024392 
L 458.620289 173.30436 
L 460.805239 172.579913 
L 462.99019 171.851047 
L 465.175141 171.117755 
L 467.360091 170.380031 
L 469.545042 169.637869 
L 471.729993 168.891264 
L 473.914944 168.140208 
L 476.099894 167.384697 
L 478.284845 166.624722 
L 480.469796 165.860279 
L 482.654747 165.091361 
L 484.839697 164.317961 
L 487.024648 163.540074 
L 489.209599 162.757692 
L 491.394549 161.970809 
L 493.5795 161.17942 
L 495.764451 160.383516 
L 497.949402 159.583092 
L 500.134352 158.778141 
L 502.319303 157.968656 
L 504.504254 157.154631 
L 506.689205 156.336058 
" clip-path="url(#p86badc4233)" style="fill: none; stroke: #d62728; stroke-width: 2; stroke-linecap: square"/>
   </g>
   <g id="line2d_21">
    <path d="M 71.88401 235.992178 
L 74.06896 235.989443 
L 76.253911 235.982797 
L 78.438862 235.972239 
L 80.623813 235.957769 
L 82.808763 235.939388 
L 84.993714 235.917095 
L 87.178665 235.890889 
L 89.363616 235.860772 
L 91.548566 235.826742 
L 93.733517 235.788799 
L 95.918468 235.746943 
L 98.103418 235.701173 
L 100.288369 235.65149 
L 102.47332 235.597893 
L 104.658271 235.540381 
L 106.843221 235.478954 
L 109.028172 235.413612 
L 111.213123 235.344353 
L 113.398074 235.271178 
L 115.583024 235.194086 
L 117.767975 235.113077 
L 119.952926 235.028148 
L 122.137876 234.939301 
L 124.322827 234.846534 
L 126.507778 234.749847 
L 128.692729 234.649239 
L 130.877679 234.544708 
L 133.06263 234.436255 
L 135.247581 234.323878 
L 137.432532 234.207576 
L 139.617482 234.08735 
L 141.802433 233.963196 
L 143.987384 233.835116 
L 146.172334 233.703107 
L 148.357285 233.567168 
L 150.542236 233.427299 
L 152.727187 233.283499 
L 154.912137 233.135766 
L 157.097088 232.984099 
L 159.282039 232.828497 
L 161.46699 232.668959 
L 163.65194 232.505484 
L 165.836891 232.338069 
L 168.021842 232.166715 
L 170.206792 231.991419 
L 172.391743 231.812181 
L 174.576694 231.628998 
L 176.761645 231.441869 
L 178.946595 231.250794 
L 181.131546 231.05577 
L 183.316497 230.856795 
L 185.501448 230.653869 
L 187.686398 230.44699 
L 189.871349 230.236156 
L 192.0563 230.021365 
L 194.24125 229.802616 
L 196.426201 229.579908 
L 198.611152 229.353237 
L 200.796103 229.122603 
L 202.981053 228.888004 
L 205.166004 228.649437 
L 207.350955 228.406901 
L 209.535906 228.160395 
L 211.720856 227.909916 
L 213.905807 227.655462 
L 216.090758 227.397031 
L 218.275708 227.134621 
L 220.460659 226.86823 
L 222.64561 226.597856 
L 224.830561 226.323497 
L 227.015511 226.045151 
L 229.200462 225.762815 
L 231.385413 225.476488 
L 233.570364 225.186166 
L 235.755314 224.891849 
L 237.940265 224.593532 
" clip-path="url(#p86badc4233)" style="fill: none; stroke-dasharray: 2,2; stroke-dashoffset: 0; stroke: #d62728; stroke-width: 2"/>
   </g>
   <g id="line2d_22"/>
   <g id="line2d_23"/>
   <g id="line2d_24"/>
   <g id="line2d_25"/>
   <g id="line2d_26"/>
   <g id="line2d_27"/>
   <g id="line2d_28"/>
   <g id="line2d_29"/>
   <g id="line2d_30">
    <path d="M 240.125216 246.072178 
L 240.125216 24.312178 
" clip-path="url(#p86badc4233)" style="fill: none; stroke-dasharray: 3.7,1.6; stroke-dashoffset: 0; stroke: #000000"/>
   </g>
   <g id="line2d_31">
    <path d="M 331.893146 246.072178 
L 331.893146 24.312178 
" clip-path="url(#p86badc4233)" style="fill: none; stroke-dasharray: 3.7,1.6; stroke-dashoffset: 0; stroke: #000000"/>
   </g>
   <g id="patch_3">
    <path d="M 50.14375 246.072178 
L 50.14375 24.312178 
" style="fill: none; stroke: #000000; stroke-width: 0.8; stroke-linejoin: miter; stroke-linecap: square"/>
   </g>
   <g id="patch_4">
    <path d="M 528.429464 246.072178 
L 528.429464 24.312178 
" style="fill: none; stroke: #000000; stroke-width: 0.8; stroke-linejoin: miter; stroke-linecap: square"/>
   </g>
   <g id="patch_5">
    <path d="M 50.14375 246.072178 
L 528.429464 246.072178 
" style="fill: none; stroke: #000000; stroke-width: 0.8; stroke-linejoin: miter; stroke-linecap: square"/>
   </g>
   <g id="patch_6">
    <path d="M 50.14375 24.312178 
L 528.429464 24.312178 
" style="fill: none; stroke: #000000; stroke-width: 0.8; stroke-linejoin: miter; stroke-linecap: square"/>
   </g>
   <g id="text_14">
    <!-- $\theta$̲ -->
    <g transform="translate(236.405216 16.44) scale(0.12 -0.12)">
     <defs>
      <path id="DejaVuSans-332" d="M 63 -1063 
L 63 -1509 
L -3263 -1509 
L -3263 -1063 
L 63 -1063 
z
" transform="scale(0.015625)"/>
     </defs>
     <use xlink:href="#DejaVuSans-Oblique-3b8" transform="translate(0 0.234375)"/>
     <use xlink:href="#DejaVuSans-332" transform="translate(61.181641 0.234375)"/>
    </g>
   </g>
   <g id="text_15">
    <!-- $\bar{\theta}$ -->
    <g transform="translate(328.173146 16.824375) scale(0.12 -0.12)">
     <defs>
      <path id="DejaVuSans-304" d="M -2518 4769 
L -650 4769 
L -650 4306 
L -2518 4306 
L -2518 4769 
z
" transform="scale(0.015625)"/>
     </defs>
     <use xlink:href="#DejaVuSans-304" transform="translate(62.63916 22.484375)"/>
     <use xlink:href="#DejaVuSans-Oblique-3b8" transform="translate(0 0.5)"/>
    </g>
   </g>
   <g id="legend_1">
    <g id="patch_7">
     <path d="M 57.14375 61.668428 
L 141.51875 61.668428 
Q 143.51875 61.668428 143.51875 59.668428 
L 143.51875 31.312178 
Q 143.51875 29.312178 141.51875 29.312178 
L 57.14375 29.312178 
Q 55.14375 29.312178 55.14375 31.312178 
L 55.14375 59.668428 
Q 55.14375 61.668428 57.14375 61.668428 
z
" style="fill: #ffffff; opacity: 0.8; stroke: #cccccc; stroke-linejoin: miter"/>
    </g>
    <g id="line2d_32">
     <path d="M 59.14375 37.410616 
L 69.14375 37.410616 
L 79.14375 37.410616 
" style="fill: none; stroke: #000000; stroke-width: 1.5; stroke-linecap: square"/>
    </g>
    <g id="text_16">
     <!-- Stable -->
     <g transform="translate(87.14375 40.910616) scale(0.1 -0.1)">
      <defs>
       <path id="DejaVuSans-53" d="M 3425 4513 
L 3425 3897 
Q 3066 4069 2747 4153 
Q 2428 4238 2131 4238 
Q 1616 4238 1336 4038 
Q 1056 3838 1056 3469 
Q 1056 3159 1242 3001 
Q 1428 2844 1947 2747 
L 2328 2669 
Q 3034 2534 3370 2195 
Q 3706 1856 3706 1288 
Q 3706 609 3251 259 
Q 2797 -91 1919 -91 
Q 1588 -91 1214 -16 
Q 841 59 441 206 
L 441 856 
Q 825 641 1194 531 
Q 1563 422 1919 422 
Q 2459 422 2753 634 
Q 3047 847 3047 1241 
Q 3047 1584 2836 1778 
Q 2625 1972 2144 2069 
L 1759 2144 
Q 1053 2284 737 2584 
Q 422 2884 422 3419 
Q 422 4038 858 4394 
Q 1294 4750 2059 4750 
Q 2388 4750 2728 4690 
Q 3069 4631 3425 4513 
z
" transform="scale(0.015625)"/>
       <path id="DejaVuSans-74" d="M 1172 4494 
L 1172 3500 
L 2356 3500 
L 2356 3053 
L 1172 3053 
L 1172 1153 
Q 1172 725 1289 603 
Q 1406 481 1766 481 
L 2356 481 
L 2356 0 
L 1766 0 
Q 1100 0 847 248 
Q 594 497 594 1153 
L 594 3053 
L 172 3053 
L 172 3500 
L 594 3500 
L 594 4494 
L 1172 4494 
z
" transform="scale(0.015625)"/>
       <path id="DejaVuSans-62" d="M 3116 1747 
Q 3116 2381 2855 2742 
Q 2594 3103 2138 3103 
Q 1681 3103 1420 2742 
Q 1159 2381 1159 1747 
Q 1159 1113 1420 752 
Q 1681 391 2138 391 
Q 2594 391 2855 752 
Q 3116 1113 3116 1747 
z
M 1159 2969 
Q 1341 3281 1617 3432 
Q 1894 3584 2278 3584 
Q 2916 3584 3314 3078 
Q 3713 2572 3713 1747 
Q 3713 922 3314 415 
Q 2916 -91 2278 -91 
Q 1894 -91 1617 61 
Q 1341 213 1159 525 
L 1159 0 
L 581 0 
L 581 4863 
L 1159 4863 
L 1159 2969 
z
" transform="scale(0.015625)"/>
      </defs>
      <use xlink:href="#DejaVuSans-53"/>
      <use xlink:href="#DejaVuSans-74" transform="translate(63.476562 0)"/>
      <use xlink:href="#DejaVuSans-61" transform="translate(102.685547 0)"/>
      <use xlink:href="#DejaVuSans-62" transform="translate(163.964844 0)"/>
      <use xlink:href="#DejaVuSans-6c" transform="translate(227.441406 0)"/>
      <use xlink:href="#DejaVuSans-65" transform="translate(255.224609 0)"/>
     </g>
    </g>
    <g id="line2d_33">
     <path d="M 59.14375 52.088741 
L 69.14375 52.088741 
L 79.14375 52.088741 
" style="fill: none; stroke-dasharray: 1,1.65; stroke-dashoffset: 0; stroke: #000000"/>
    </g>
    <g id="text_17">
     <!-- Not Stable -->
     <g transform="translate(87.14375 55.588741) scale(0.1 -0.1)">
      <defs>
       <path id="DejaVuSans-4e" d="M 628 4666 
L 1478 4666 
L 3547 763 
L 3547 4666 
L 4159 4666 
L 4159 0 
L 3309 0 
L 1241 3903 
L 1241 0 
L 628 0 
L 628 4666 
z
" transform="scale(0.015625)"/>
       <path id="DejaVuSans-6f" d="M 1959 3097 
Q 1497 3097 1228 2736 
Q 959 2375 959 1747 
Q 959 1119 1226 758 
Q 1494 397 1959 397 
Q 2419 397 2687 759 
Q 2956 1122 2956 1747 
Q 2956 2369 2687 2733 
Q 2419 3097 1959 3097 
z
M 1959 3584 
Q 2709 3584 3137 3096 
Q 3566 2609 3566 1747 
Q 3566 888 3137 398 
Q 2709 -91 1959 -91 
Q 1206 -91 779 398 
Q 353 888 353 1747 
Q 353 2609 779 3096 
Q 1206 3584 1959 3584 
z
" transform="scale(0.015625)"/>
       <path id="DejaVuSans-20" transform="scale(0.015625)"/>
      </defs>
      <use xlink:href="#DejaVuSans-4e"/>
      <use xlink:href="#DejaVuSans-6f" transform="translate(74.804688 0)"/>
      <use xlink:href="#DejaVuSans-74" transform="translate(135.986328 0)"/>
      <use xlink:href="#DejaVuSans-20" transform="translate(175.195312 0)"/>
      <use xlink:href="#DejaVuSans-53" transform="translate(206.982422 0)"/>
      <use xlink:href="#DejaVuSans-74" transform="translate(270.458984 0)"/>
      <use xlink:href="#DejaVuSans-61" transform="translate(309.667969 0)"/>
      <use xlink:href="#DejaVuSans-62" transform="translate(370.947266 0)"/>
      <use xlink:href="#DejaVuSans-6c" transform="translate(434.423828 0)"/>
      <use xlink:href="#DejaVuSans-65" transform="translate(462.207031 0)"/>
     </g>
    </g>
   </g>
  </g>
  <g id="axes_2">
   <g id="LineCollection_1">
    <path d="M 651.986607 48.416526 
L 651.986607 48.416526 
" clip-path="url(#pda20697bf7)" style="fill: none; stroke: #1f77b4; stroke-opacity: 0.9; stroke-width: 1.5"/>
    <path d="M 651.986607 48.416526 
L 638.036607 33.804041 
" clip-path="url(#pda20697bf7)" style="fill: none; stroke: #1f77b4; stroke-opacity: 0.9; stroke-width: 1.5"/>
    <path d="M 651.986607 48.416526 
L 610.136606 33.804042 
" clip-path="url(#pda20697bf7)" style="fill: none; stroke: #1f77b4; stroke-opacity: 0.9; stroke-width: 1.5"/>
    <path d="M 638.036607 33.804041 
L 638.036607 33.804041 
" clip-path="url(#pda20697bf7)" style="fill: none; stroke: #1f77b4; stroke-opacity: 0.9; stroke-width: 1.5"/>
    <path d="M 638.036607 33.804041 
L 610.136606 33.804042 
" clip-path="url(#pda20697bf7)" style="fill: none; stroke: #1f77b4; stroke-opacity: 0.9; stroke-width: 1.5"/>
    <path d="M 610.136606 33.804042 
L 610.136606 33.804042 
" clip-path="url(#pda20697bf7)" style="fill: none; stroke: #1f77b4; stroke-opacity: 0.9; stroke-width: 1.5"/>
    <path d="M 596.186608 48.416527 
L 596.186608 48.416527 
" clip-path="url(#pda20697bf7)" style="fill: none; stroke: #1f77b4; stroke-opacity: 0.9; stroke-width: 1.5"/>
    <path d="M 596.186608 48.416527 
L 610.13661 63.029011 
" clip-path="url(#pda20697bf7)" style="fill: none; stroke: #1f77b4; stroke-opacity: 0.9; stroke-width: 1.5"/>
    <path d="M 596.186608 48.416527 
L 638.036605 63.029011 
" clip-path="url(#pda20697bf7)" style="fill: none; stroke: #1f77b4; stroke-opacity: 0.9; stroke-width: 1.5"/>
    <path d="M 610.13661 63.029011 
L 610.13661 63.029011 
" clip-path="url(#pda20697bf7)" style="fill: none; stroke: #1f77b4; stroke-opacity: 0.9; stroke-width: 1.5"/>
    <path d="M 610.13661 63.029011 
L 638.036605 63.029011 
" clip-path="url(#pda20697bf7)" style="fill: none; stroke: #1f77b4; stroke-opacity: 0.9; stroke-width: 1.5"/>
    <path d="M 638.036605 63.029011 
L 638.036605 63.029011 
" clip-path="url(#pda20697bf7)" style="fill: none; stroke: #1f77b4; stroke-opacity: 0.9; stroke-width: 1.5"/>
   </g>
   <g id="patch_8">
    <path d="M 651.986607 45.494029 
C 654.402818 45.494029 654.402818 48.416526 651.986607 48.416526 
C 649.570396 48.416526 649.570396 45.494029 651.986607 45.494029 
" clip-path="url(#pda20697bf7)" style="fill: none; stroke: #1f77b4; stroke-opacity: 0.9; stroke-width: 1.5; stroke-linecap: round"/>
   </g>
   <g id="patch_9">
    <path d="M 638.036607 30.881544 
C 640.452817 30.881544 640.452817 33.804041 638.036607 33.804041 
C 635.620396 33.804041 635.620396 30.881544 638.036607 30.881544 
" clip-path="url(#pda20697bf7)" style="fill: none; stroke: #1f77b4; stroke-opacity: 0.9; stroke-width: 1.5; stroke-linecap: round"/>
   </g>
   <g id="patch_10">
    <path d="M 610.136606 30.881545 
C 612.552817 30.881545 612.552817 33.804042 610.136606 33.804042 
C 607.720395 33.804042 607.720395 30.881545 610.136606 30.881545 
" clip-path="url(#pda20697bf7)" style="fill: none; stroke: #1f77b4; stroke-opacity: 0.9; stroke-width: 1.5; stroke-linecap: round"/>
   </g>
   <g id="patch_11">
    <path d="M 596.186608 45.49403 
C 598.602819 45.49403 598.602819 48.416527 596.186608 48.416527 
C 593.770397 48.416527 593.770397 45.49403 596.186608 45.49403 
" clip-path="url(#pda20697bf7)" style="fill: none; stroke: #1f77b4; stroke-opacity: 0.9; stroke-width: 1.5; stroke-linecap: round"/>
   </g>
   <g id="patch_12">
    <path d="M 610.13661 60.106514 
C 612.552821 60.106514 612.552821 63.029011 610.13661 63.029011 
C 607.720399 63.029011 607.720399 60.106514 610.13661 60.106514 
" clip-path="url(#pda20697bf7)" style="fill: none; stroke: #1f77b4; stroke-opacity: 0.9; stroke-width: 1.5; stroke-linecap: round"/>
   </g>
   <g id="patch_13">
    <path d="M 638.036605 60.106514 
C 640.452816 60.106514 640.452816 63.029011 638.036605 63.029011 
C 635.620394 63.029011 635.620394 60.106514 638.036605 60.106514 
" clip-path="url(#pda20697bf7)" style="fill: none; stroke: #1f77b4; stroke-opacity: 0.9; stroke-width: 1.5; stroke-linecap: round"/>
   </g>
   <g id="PathCollection_1">
    <defs>
     <path id="C0_0_b40a4b3a80" d="M 0 6.123724 
C 1.624031 6.123724 3.181764 5.47849 4.330127 4.330127 
C 5.47849 3.181764 6.123724 1.624031 6.123724 -0 
C 6.123724 -1.624031 5.47849 -3.181764 4.330127 -4.330127 
C 3.181764 -5.47849 1.624031 -6.123724 0 -6.123724 
C -1.624031 -6.123724 -3.181764 -5.47849 -4.330127 -4.330127 
C -5.47849 -3.181764 -6.123724 -1.624031 -6.123724 0 
C -6.123724 1.624031 -5.47849 3.181764 -4.330127 4.330127 
C -3.181764 5.47849 -1.624031 6.123724 0 6.123724 
z
"/>
    </defs>
    <g clip-path="url(#pda20697bf7)">
     <use xlink:href="#C0_0_b40a4b3a80" x="651.986607" y="48.416526" style="fill: #1f77b4; fill-opacity: 0.9; stroke: #1f77b4; stroke-opacity: 0.9; stroke-width: 2"/>
    </g>
    <g clip-path="url(#pda20697bf7)">
     <use xlink:href="#C0_0_b40a4b3a80" x="638.036607" y="33.804041" style="fill: #1f77b4; fill-opacity: 0.9; stroke: #1f77b4; stroke-opacity: 0.9; stroke-width: 2"/>
    </g>
    <g clip-path="url(#pda20697bf7)">
     <use xlink:href="#C0_0_b40a4b3a80" x="610.136606" y="33.804042" style="fill: #1f77b4; fill-opacity: 0.9; stroke: #1f77b4; stroke-opacity: 0.9; stroke-width: 2"/>
    </g>
    <g clip-path="url(#pda20697bf7)">
     <use xlink:href="#C0_0_b40a4b3a80" x="596.186608" y="48.416527" style="fill: #ffffff; fill-opacity: 0.9; stroke: #1f77b4; stroke-opacity: 0.9; stroke-width: 2"/>
    </g>
    <g clip-path="url(#pda20697bf7)">
     <use xlink:href="#C0_0_b40a4b3a80" x="610.13661" y="63.029011" style="fill: #ffffff; fill-opacity: 0.9; stroke: #1f77b4; stroke-opacity: 0.9; stroke-width: 2"/>
    </g>
    <g clip-path="url(#pda20697bf7)">
     <use xlink:href="#C0_0_b40a4b3a80" x="638.036605" y="63.029011" style="fill: #ffffff; fill-opacity: 0.9; stroke: #1f77b4; stroke-opacity: 0.9; stroke-width: 2"/>
    </g>
   </g>
   <g id="text_18">
    <g clip-path="url(#pda20697bf7)">
     <!-- H -->
     <g style="opacity: 0.9" transform="translate(647.802232 51.175901) scale(0.1 -0.1)">
      <defs>
       <path id="DejaVuSans-Bold-48" d="M 588 4666 
L 1791 4666 
L 1791 2888 
L 3566 2888 
L 3566 4666 
L 4769 4666 
L 4769 0 
L 3566 0 
L 3566 1978 
L 1791 1978 
L 1791 0 
L 588 0 
L 588 4666 
z
" transform="scale(0.015625)"/>
      </defs>
      <use xlink:href="#DejaVuSans-Bold-48"/>
     </g>
    </g>
   </g>
   <g id="text_19">
    <g clip-path="url(#pda20697bf7)">
     <!-- H -->
     <g style="opacity: 0.9" transform="translate(633.852232 36.563416) scale(0.1 -0.1)">
      <use xlink:href="#DejaVuSans-Bold-48"/>
     </g>
    </g>
   </g>
   <g id="text_20">
    <g clip-path="url(#pda20697bf7)">
     <!-- H -->
     <g style="opacity: 0.9" transform="translate(605.952231 36.563417) scale(0.1 -0.1)">
      <use xlink:href="#DejaVuSans-Bold-48"/>
     </g>
    </g>
   </g>
   <g id="text_21">
    <g clip-path="url(#pda20697bf7)">
     <!-- L -->
     <g style="opacity: 0.9" transform="translate(593.00067 51.175902) scale(0.1 -0.1)">
      <defs>
       <path id="DejaVuSans-Bold-4c" d="M 588 4666 
L 1791 4666 
L 1791 909 
L 3903 909 
L 3903 0 
L 588 0 
L 588 4666 
z
" transform="scale(0.015625)"/>
      </defs>
      <use xlink:href="#DejaVuSans-Bold-4c"/>
     </g>
    </g>
   </g>
   <g id="text_22">
    <g clip-path="url(#pda20697bf7)">
     <!-- L -->
     <g style="opacity: 0.9" transform="translate(606.950673 65.788386) scale(0.1 -0.1)">
      <use xlink:href="#DejaVuSans-Bold-4c"/>
     </g>
    </g>
   </g>
   <g id="text_23">
    <g clip-path="url(#pda20697bf7)">
     <!-- L -->
     <g style="opacity: 0.9" transform="translate(634.850667 65.788386) scale(0.1 -0.1)">
      <use xlink:href="#DejaVuSans-Bold-4c"/>
     </g>
    </g>
   </g>
   <g id="text_24">
    <!-- Network Structure -->
    <g transform="translate(569.220357 18.312178) scale(0.12 -0.12)">
     <defs>
      <path id="DejaVuSans-77" d="M 269 3500 
L 844 3500 
L 1563 769 
L 2278 3500 
L 2956 3500 
L 3675 769 
L 4391 3500 
L 4966 3500 
L 4050 0 
L 3372 0 
L 2619 2869 
L 1863 0 
L 1184 0 
L 269 3500 
z
" transform="scale(0.015625)"/>
      <path id="DejaVuSans-6b" d="M 581 4863 
L 1159 4863 
L 1159 1991 
L 2875 3500 
L 3609 3500 
L 1753 1863 
L 3688 0 
L 2938 0 
L 1159 1709 
L 1159 0 
L 581 0 
L 581 4863 
z
" transform="scale(0.015625)"/>
      <path id="DejaVuSans-75" d="M 544 1381 
L 544 3500 
L 1119 3500 
L 1119 1403 
Q 1119 906 1312 657 
Q 1506 409 1894 409 
Q 2359 409 2629 706 
Q 2900 1003 2900 1516 
L 2900 3500 
L 3475 3500 
L 3475 0 
L 2900 0 
L 2900 538 
Q 2691 219 2414 64 
Q 2138 -91 1772 -91 
Q 1169 -91 856 284 
Q 544 659 544 1381 
z
M 1991 3584 
L 1991 3584 
z
" transform="scale(0.015625)"/>
      <path id="DejaVuSans-63" d="M 3122 3366 
L 3122 2828 
Q 2878 2963 2633 3030 
Q 2388 3097 2138 3097 
Q 1578 3097 1268 2742 
Q 959 2388 959 1747 
Q 959 1106 1268 751 
Q 1578 397 2138 397 
Q 2388 397 2633 464 
Q 2878 531 3122 666 
L 3122 134 
Q 2881 22 2623 -34 
Q 2366 -91 2075 -91 
Q 1284 -91 818 406 
Q 353 903 353 1747 
Q 353 2603 823 3093 
Q 1294 3584 2113 3584 
Q 2378 3584 2631 3529 
Q 2884 3475 3122 3366 
z
" transform="scale(0.015625)"/>
     </defs>
     <use xlink:href="#DejaVuSans-4e"/>
     <use xlink:href="#DejaVuSans-65" transform="translate(74.804688 0)"/>
     <use xlink:href="#DejaVuSans-74" transform="translate(136.328125 0)"/>
     <use xlink:href="#DejaVuSans-77" transform="translate(175.537109 0)"/>
     <use xlink:href="#DejaVuSans-6f" transform="translate(257.324219 0)"/>
     <use xlink:href="#DejaVuSans-72" transform="translate(318.505859 0)"/>
     <use xlink:href="#DejaVuSans-6b" transform="translate(359.619141 0)"/>
     <use xlink:href="#DejaVuSans-20" transform="translate(417.529297 0)"/>
     <use xlink:href="#DejaVuSans-53" transform="translate(449.316406 0)"/>
     <use xlink:href="#DejaVuSans-74" transform="translate(512.792969 0)"/>
     <use xlink:href="#DejaVuSans-72" transform="translate(552.001953 0)"/>
     <use xlink:href="#DejaVuSans-75" transform="translate(593.115234 0)"/>
     <use xlink:href="#DejaVuSans-63" transform="translate(656.494141 0)"/>
     <use xlink:href="#DejaVuSans-74" transform="translate(711.474609 0)"/>
     <use xlink:href="#DejaVuSans-75" transform="translate(750.683594 0)"/>
     <use xlink:href="#DejaVuSans-72" transform="translate(814.0625 0)"/>
     <use xlink:href="#DejaVuSans-65" transform="translate(852.925781 0)"/>
    </g>
   </g>
  </g>
  <g id="axes_3">
   <g id="LineCollection_2">
    <path d="M 651.986607 106.26696 
L 651.986607 106.26696 
" clip-path="url(#pc35a03f254)" style="fill: none; stroke: #ff7f0e; stroke-opacity: 0.9; stroke-width: 1.5"/>
    <path d="M 651.986607 106.26696 
L 638.036607 91.654476 
" clip-path="url(#pc35a03f254)" style="fill: none; stroke: #ff7f0e; stroke-opacity: 0.9; stroke-width: 1.5"/>
    <path d="M 651.986607 106.26696 
L 610.136606 91.654477 
" clip-path="url(#pc35a03f254)" style="fill: none; stroke: #ff7f0e; stroke-opacity: 0.9; stroke-width: 1.5"/>
    <path d="M 651.986607 106.26696 
L 596.186608 106.266962 
" clip-path="url(#pc35a03f254)" style="fill: none; stroke: #ff7f0e; stroke-opacity: 0.9; stroke-width: 1.5"/>
    <path d="M 651.986607 106.26696 
L 610.13661 120.879445 
" clip-path="url(#pc35a03f254)" style="fill: none; stroke: #ff7f0e; stroke-opacity: 0.9; stroke-width: 1.5"/>
    <path d="M 651.986607 106.26696 
L 638.036605 120.879445 
" clip-path="url(#pc35a03f254)" style="fill: none; stroke: #ff7f0e; stroke-opacity: 0.9; stroke-width: 1.5"/>
    <path d="M 638.036607 91.654476 
L 638.036607 91.654476 
" clip-path="url(#pc35a03f254)" style="fill: none; stroke: #ff7f0e; stroke-opacity: 0.9; stroke-width: 1.5"/>
    <path d="M 638.036607 91.654476 
L 610.136606 91.654477 
" clip-path="url(#pc35a03f254)" style="fill: none; stroke: #ff7f0e; stroke-opacity: 0.9; stroke-width: 1.5"/>
    <path d="M 610.136606 91.654477 
L 610.136606 91.654477 
" clip-path="url(#pc35a03f254)" style="fill: none; stroke: #ff7f0e; stroke-opacity: 0.9; stroke-width: 1.5"/>
    <path d="M 596.186608 106.266962 
L 596.186608 106.266962 
" clip-path="url(#pc35a03f254)" style="fill: none; stroke: #ff7f0e; stroke-opacity: 0.9; stroke-width: 1.5"/>
    <path d="M 596.186608 106.266962 
L 610.13661 120.879445 
" clip-path="url(#pc35a03f254)" style="fill: none; stroke: #ff7f0e; stroke-opacity: 0.9; stroke-width: 1.5"/>
    <path d="M 596.186608 106.266962 
L 638.036605 120.879445 
" clip-path="url(#pc35a03f254)" style="fill: none; stroke: #ff7f0e; stroke-opacity: 0.9; stroke-width: 1.5"/>
    <path d="M 610.13661 120.879445 
L 610.13661 120.879445 
" clip-path="url(#pc35a03f254)" style="fill: none; stroke: #ff7f0e; stroke-opacity: 0.9; stroke-width: 1.5"/>
    <path d="M 610.13661 120.879445 
L 638.036605 120.879445 
" clip-path="url(#pc35a03f254)" style="fill: none; stroke: #ff7f0e; stroke-opacity: 0.9; stroke-width: 1.5"/>
    <path d="M 638.036605 120.879445 
L 638.036605 120.879445 
" clip-path="url(#pc35a03f254)" style="fill: none; stroke: #ff7f0e; stroke-opacity: 0.9; stroke-width: 1.5"/>
   </g>
   <g id="patch_14">
    <path d="M 651.986607 103.344464 
C 654.402818 103.344464 654.402818 106.26696 651.986607 106.26696 
C 649.570396 106.26696 649.570396 103.344464 651.986607 103.344464 
" clip-path="url(#pc35a03f254)" style="fill: none; stroke: #ff7f0e; stroke-opacity: 0.9; stroke-width: 1.5; stroke-linecap: round"/>
   </g>
   <g id="patch_15">
    <path d="M 638.036607 88.731979 
C 640.452817 88.731979 640.452817 91.654476 638.036607 91.654476 
C 635.620396 91.654476 635.620396 88.731979 638.036607 88.731979 
" clip-path="url(#pc35a03f254)" style="fill: none; stroke: #ff7f0e; stroke-opacity: 0.9; stroke-width: 1.5; stroke-linecap: round"/>
   </g>
   <g id="patch_16">
    <path d="M 610.136606 88.73198 
C 612.552817 88.73198 612.552817 91.654477 610.136606 91.654477 
C 607.720395 91.654477 607.720395 88.73198 610.136606 88.73198 
" clip-path="url(#pc35a03f254)" style="fill: none; stroke: #ff7f0e; stroke-opacity: 0.9; stroke-width: 1.5; stroke-linecap: round"/>
   </g>
   <g id="patch_17">
    <path d="M 596.186608 103.344465 
C 598.602819 103.344465 598.602819 106.266962 596.186608 106.266962 
C 593.770397 106.266962 593.770397 103.344465 596.186608 103.344465 
" clip-path="url(#pc35a03f254)" style="fill: none; stroke: #ff7f0e; stroke-opacity: 0.9; stroke-width: 1.5; stroke-linecap: round"/>
   </g>
   <g id="patch_18">
    <path d="M 610.13661 117.956948 
C 612.552821 117.956948 612.552821 120.879445 610.13661 120.879445 
C 607.720399 120.879445 607.720399 117.956948 610.13661 117.956948 
" clip-path="url(#pc35a03f254)" style="fill: none; stroke: #ff7f0e; stroke-opacity: 0.9; stroke-width: 1.5; stroke-linecap: round"/>
   </g>
   <g id="patch_19">
    <path d="M 638.036605 117.956948 
C 640.452816 117.956948 640.452816 120.879445 638.036605 120.879445 
C 635.620394 120.879445 635.620394 117.956948 638.036605 117.956948 
" clip-path="url(#pc35a03f254)" style="fill: none; stroke: #ff7f0e; stroke-opacity: 0.9; stroke-width: 1.5; stroke-linecap: round"/>
   </g>
   <g id="PathCollection_2">
    <defs>
     <path id="C1_0_6397ec1991" d="M 0 6.123724 
C 1.624031 6.123724 3.181764 5.47849 4.330127 4.330127 
C 5.47849 3.181764 6.123724 1.624031 6.123724 -0 
C 6.123724 -1.624031 5.47849 -3.181764 4.330127 -4.330127 
C 3.181764 -5.47849 1.624031 -6.123724 0 -6.123724 
C -1.624031 -6.123724 -3.181764 -5.47849 -4.330127 -4.330127 
C -5.47849 -3.181764 -6.123724 -1.624031 -6.123724 0 
C -6.123724 1.624031 -5.47849 3.181764 -4.330127 4.330127 
C -3.181764 5.47849 -1.624031 6.123724 0 6.123724 
z
"/>
    </defs>
    <g clip-path="url(#pc35a03f254)">
     <use xlink:href="#C1_0_6397ec1991" x="651.986607" y="106.26696" style="fill: #ff7f0e; fill-opacity: 0.9; stroke: #ff7f0e; stroke-opacity: 0.9; stroke-width: 2"/>
    </g>
    <g clip-path="url(#pc35a03f254)">
     <use xlink:href="#C1_0_6397ec1991" x="638.036607" y="91.654476" style="fill: #ff7f0e; fill-opacity: 0.9; stroke: #ff7f0e; stroke-opacity: 0.9; stroke-width: 2"/>
    </g>
    <g clip-path="url(#pc35a03f254)">
     <use xlink:href="#C1_0_6397ec1991" x="610.136606" y="91.654477" style="fill: #ff7f0e; fill-opacity: 0.9; stroke: #ff7f0e; stroke-opacity: 0.9; stroke-width: 2"/>
    </g>
    <g clip-path="url(#pc35a03f254)">
     <use xlink:href="#C1_0_6397ec1991" x="596.186608" y="106.266962" style="fill: #ffffff; fill-opacity: 0.9; stroke: #ff7f0e; stroke-opacity: 0.9; stroke-width: 2"/>
    </g>
    <g clip-path="url(#pc35a03f254)">
     <use xlink:href="#C1_0_6397ec1991" x="610.13661" y="120.879445" style="fill: #ffffff; fill-opacity: 0.9; stroke: #ff7f0e; stroke-opacity: 0.9; stroke-width: 2"/>
    </g>
    <g clip-path="url(#pc35a03f254)">
     <use xlink:href="#C1_0_6397ec1991" x="638.036605" y="120.879445" style="fill: #ffffff; fill-opacity: 0.9; stroke: #ff7f0e; stroke-opacity: 0.9; stroke-width: 2"/>
    </g>
   </g>
   <g id="text_25">
    <g clip-path="url(#pc35a03f254)">
     <!-- H -->
     <g style="opacity: 0.9" transform="translate(647.802232 109.026335) scale(0.1 -0.1)">
      <use xlink:href="#DejaVuSans-Bold-48"/>
     </g>
    </g>
   </g>
   <g id="text_26">
    <g clip-path="url(#pc35a03f254)">
     <!-- H -->
     <g style="opacity: 0.9" transform="translate(633.852232 94.413851) scale(0.1 -0.1)">
      <use xlink:href="#DejaVuSans-Bold-48"/>
     </g>
    </g>
   </g>
   <g id="text_27">
    <g clip-path="url(#pc35a03f254)">
     <!-- H -->
     <g style="opacity: 0.9" transform="translate(605.952231 94.413852) scale(0.1 -0.1)">
      <use xlink:href="#DejaVuSans-Bold-48"/>
     </g>
    </g>
   </g>
   <g id="text_28">
    <g clip-path="url(#pc35a03f254)">
     <!-- L -->
     <g style="opacity: 0.9" transform="translate(593.00067 109.026337) scale(0.1 -0.1)">
      <use xlink:href="#DejaVuSans-Bold-4c"/>
     </g>
    </g>
   </g>
   <g id="text_29">
    <g clip-path="url(#pc35a03f254)">
     <!-- L -->
     <g style="opacity: 0.9" transform="translate(606.950673 123.63882) scale(0.1 -0.1)">
      <use xlink:href="#DejaVuSans-Bold-4c"/>
     </g>
    </g>
   </g>
   <g id="text_30">
    <g clip-path="url(#pc35a03f254)">
     <!-- L -->
     <g style="opacity: 0.9" transform="translate(634.850667 123.63882) scale(0.1 -0.1)">
      <use xlink:href="#DejaVuSans-Bold-4c"/>
     </g>
    </g>
   </g>
  </g>
  <g id="axes_4">
   <g id="LineCollection_3">
    <path d="M 651.986607 164.117395 
L 651.986607 164.117395 
" clip-path="url(#p7b1bc57de0)" style="fill: none; stroke: #2ca02c; stroke-opacity: 0.9; stroke-width: 1.5"/>
    <path d="M 651.986607 164.117395 
L 638.036607 149.50491 
" clip-path="url(#p7b1bc57de0)" style="fill: none; stroke: #2ca02c; stroke-opacity: 0.9; stroke-width: 1.5"/>
    <path d="M 651.986607 164.117395 
L 610.136606 149.504911 
" clip-path="url(#p7b1bc57de0)" style="fill: none; stroke: #2ca02c; stroke-opacity: 0.9; stroke-width: 1.5"/>
    <path d="M 651.986607 164.117395 
L 596.186608 164.117397 
" clip-path="url(#p7b1bc57de0)" style="fill: none; stroke: #2ca02c; stroke-opacity: 0.9; stroke-width: 1.5"/>
    <path d="M 651.986607 164.117395 
L 610.13661 178.72988 
" clip-path="url(#p7b1bc57de0)" style="fill: none; stroke: #2ca02c; stroke-opacity: 0.9; stroke-width: 1.5"/>
    <path d="M 651.986607 164.117395 
L 638.036605 178.72988 
" clip-path="url(#p7b1bc57de0)" style="fill: none; stroke: #2ca02c; stroke-opacity: 0.9; stroke-width: 1.5"/>
    <path d="M 638.036607 149.50491 
L 638.036607 149.50491 
" clip-path="url(#p7b1bc57de0)" style="fill: none; stroke: #2ca02c; stroke-opacity: 0.9; stroke-width: 1.5"/>
    <path d="M 638.036607 149.50491 
L 610.136606 149.504911 
" clip-path="url(#p7b1bc57de0)" style="fill: none; stroke: #2ca02c; stroke-opacity: 0.9; stroke-width: 1.5"/>
    <path d="M 638.036607 149.50491 
L 596.186608 164.117397 
" clip-path="url(#p7b1bc57de0)" style="fill: none; stroke: #2ca02c; stroke-opacity: 0.9; stroke-width: 1.5"/>
    <path d="M 638.036607 149.50491 
L 610.13661 178.72988 
" clip-path="url(#p7b1bc57de0)" style="fill: none; stroke: #2ca02c; stroke-opacity: 0.9; stroke-width: 1.5"/>
    <path d="M 638.036607 149.50491 
L 638.036605 178.72988 
" clip-path="url(#p7b1bc57de0)" style="fill: none; stroke: #2ca02c; stroke-opacity: 0.9; stroke-width: 1.5"/>
    <path d="M 610.136606 149.504911 
L 610.136606 149.504911 
" clip-path="url(#p7b1bc57de0)" style="fill: none; stroke: #2ca02c; stroke-opacity: 0.9; stroke-width: 1.5"/>
    <path d="M 596.186608 164.117397 
L 596.186608 164.117397 
" clip-path="url(#p7b1bc57de0)" style="fill: none; stroke: #2ca02c; stroke-opacity: 0.9; stroke-width: 1.5"/>
    <path d="M 596.186608 164.117397 
L 610.13661 178.72988 
" clip-path="url(#p7b1bc57de0)" style="fill: none; stroke: #2ca02c; stroke-opacity: 0.9; stroke-width: 1.5"/>
    <path d="M 596.186608 164.117397 
L 638.036605 178.72988 
" clip-path="url(#p7b1bc57de0)" style="fill: none; stroke: #2ca02c; stroke-opacity: 0.9; stroke-width: 1.5"/>
    <path d="M 610.13661 178.72988 
L 610.13661 178.72988 
" clip-path="url(#p7b1bc57de0)" style="fill: none; stroke: #2ca02c; stroke-opacity: 0.9; stroke-width: 1.5"/>
    <path d="M 610.13661 178.72988 
L 638.036605 178.72988 
" clip-path="url(#p7b1bc57de0)" style="fill: none; stroke: #2ca02c; stroke-opacity: 0.9; stroke-width: 1.5"/>
    <path d="M 638.036605 178.72988 
L 638.036605 178.72988 
" clip-path="url(#p7b1bc57de0)" style="fill: none; stroke: #2ca02c; stroke-opacity: 0.9; stroke-width: 1.5"/>
   </g>
   <g id="patch_20">
    <path d="M 651.986607 161.194898 
C 654.402818 161.194898 654.402818 164.117395 651.986607 164.117395 
C 649.570396 164.117395 649.570396 161.194898 651.986607 161.194898 
" clip-path="url(#p7b1bc57de0)" style="fill: none; stroke: #2ca02c; stroke-opacity: 0.9; stroke-width: 1.5; stroke-linecap: round"/>
   </g>
   <g id="patch_21">
    <path d="M 638.036607 146.582413 
C 640.452817 146.582413 640.452817 149.50491 638.036607 149.50491 
C 635.620396 149.50491 635.620396 146.582413 638.036607 146.582413 
" clip-path="url(#p7b1bc57de0)" style="fill: none; stroke: #2ca02c; stroke-opacity: 0.9; stroke-width: 1.5; stroke-linecap: round"/>
   </g>
   <g id="patch_22">
    <path d="M 610.136606 146.582414 
C 612.552817 146.582414 612.552817 149.504911 610.136606 149.504911 
C 607.720395 149.504911 607.720395 146.582414 610.136606 146.582414 
" clip-path="url(#p7b1bc57de0)" style="fill: none; stroke: #2ca02c; stroke-opacity: 0.9; stroke-width: 1.5; stroke-linecap: round"/>
   </g>
   <g id="patch_23">
    <path d="M 596.186608 161.1949 
C 598.602819 161.1949 598.602819 164.117397 596.186608 164.117397 
C 593.770397 164.117397 593.770397 161.1949 596.186608 161.1949 
" clip-path="url(#p7b1bc57de0)" style="fill: none; stroke: #2ca02c; stroke-opacity: 0.9; stroke-width: 1.5; stroke-linecap: round"/>
   </g>
   <g id="patch_24">
    <path d="M 610.13661 175.807383 
C 612.552821 175.807383 612.552821 178.72988 610.13661 178.72988 
C 607.720399 178.72988 607.720399 175.807383 610.13661 175.807383 
" clip-path="url(#p7b1bc57de0)" style="fill: none; stroke: #2ca02c; stroke-opacity: 0.9; stroke-width: 1.5; stroke-linecap: round"/>
   </g>
   <g id="patch_25">
    <path d="M 638.036605 175.807383 
C 640.452816 175.807383 640.452816 178.72988 638.036605 178.72988 
C 635.620394 178.72988 635.620394 175.807383 638.036605 175.807383 
" clip-path="url(#p7b1bc57de0)" style="fill: none; stroke: #2ca02c; stroke-opacity: 0.9; stroke-width: 1.5; stroke-linecap: round"/>
   </g>
   <g id="PathCollection_3">
    <defs>
     <path id="C2_0_e65bf504eb" d="M 0 6.123724 
C 1.624031 6.123724 3.181764 5.47849 4.330127 4.330127 
C 5.47849 3.181764 6.123724 1.624031 6.123724 -0 
C 6.123724 -1.624031 5.47849 -3.181764 4.330127 -4.330127 
C 3.181764 -5.47849 1.624031 -6.123724 0 -6.123724 
C -1.624031 -6.123724 -3.181764 -5.47849 -4.330127 -4.330127 
C -5.47849 -3.181764 -6.123724 -1.624031 -6.123724 0 
C -6.123724 1.624031 -5.47849 3.181764 -4.330127 4.330127 
C -3.181764 5.47849 -1.624031 6.123724 0 6.123724 
z
"/>
    </defs>
    <g clip-path="url(#p7b1bc57de0)">
     <use xlink:href="#C2_0_e65bf504eb" x="651.986607" y="164.117395" style="fill: #2ca02c; fill-opacity: 0.9; stroke: #2ca02c; stroke-opacity: 0.9; stroke-width: 2"/>
    </g>
    <g clip-path="url(#p7b1bc57de0)">
     <use xlink:href="#C2_0_e65bf504eb" x="638.036607" y="149.50491" style="fill: #2ca02c; fill-opacity: 0.9; stroke: #2ca02c; stroke-opacity: 0.9; stroke-width: 2"/>
    </g>
    <g clip-path="url(#p7b1bc57de0)">
     <use xlink:href="#C2_0_e65bf504eb" x="610.136606" y="149.504911" style="fill: #2ca02c; fill-opacity: 0.9; stroke: #2ca02c; stroke-opacity: 0.9; stroke-width: 2"/>
    </g>
    <g clip-path="url(#p7b1bc57de0)">
     <use xlink:href="#C2_0_e65bf504eb" x="596.186608" y="164.117397" style="fill: #ffffff; fill-opacity: 0.9; stroke: #2ca02c; stroke-opacity: 0.9; stroke-width: 2"/>
    </g>
    <g clip-path="url(#p7b1bc57de0)">
     <use xlink:href="#C2_0_e65bf504eb" x="610.13661" y="178.72988" style="fill: #ffffff; fill-opacity: 0.9; stroke: #2ca02c; stroke-opacity: 0.9; stroke-width: 2"/>
    </g>
    <g clip-path="url(#p7b1bc57de0)">
     <use xlink:href="#C2_0_e65bf504eb" x="638.036605" y="178.72988" style="fill: #ffffff; fill-opacity: 0.9; stroke: #2ca02c; stroke-opacity: 0.9; stroke-width: 2"/>
    </g>
   </g>
   <g id="text_31">
    <g clip-path="url(#p7b1bc57de0)">
     <!-- H -->
     <g style="opacity: 0.9" transform="translate(647.802232 166.87677) scale(0.1 -0.1)">
      <use xlink:href="#DejaVuSans-Bold-48"/>
     </g>
    </g>
   </g>
   <g id="text_32">
    <g clip-path="url(#p7b1bc57de0)">
     <!-- H -->
     <g style="opacity: 0.9" transform="translate(633.852232 152.264285) scale(0.1 -0.1)">
      <use xlink:href="#DejaVuSans-Bold-48"/>
     </g>
    </g>
   </g>
   <g id="text_33">
    <g clip-path="url(#p7b1bc57de0)">
     <!-- H -->
     <g style="opacity: 0.9" transform="translate(605.952231 152.264286) scale(0.1 -0.1)">
      <use xlink:href="#DejaVuSans-Bold-48"/>
     </g>
    </g>
   </g>
   <g id="text_34">
    <g clip-path="url(#p7b1bc57de0)">
     <!-- L -->
     <g style="opacity: 0.9" transform="translate(593.00067 166.876772) scale(0.1 -0.1)">
      <use xlink:href="#DejaVuSans-Bold-4c"/>
     </g>
    </g>
   </g>
   <g id="text_35">
    <g clip-path="url(#p7b1bc57de0)">
     <!-- L -->
     <g style="opacity: 0.9" transform="translate(606.950673 181.489255) scale(0.1 -0.1)">
      <use xlink:href="#DejaVuSans-Bold-4c"/>
     </g>
    </g>
   </g>
   <g id="text_36">
    <g clip-path="url(#p7b1bc57de0)">
     <!-- L -->
     <g style="opacity: 0.9" transform="translate(634.850667 181.489255) scale(0.1 -0.1)">
      <use xlink:href="#DejaVuSans-Bold-4c"/>
     </g>
    </g>
   </g>
  </g>
  <g id="axes_5">
   <g id="LineCollection_4">
    <path d="M 651.986607 221.96783 
L 651.986607 221.96783 
" clip-path="url(#pe4d39e23a0)" style="fill: none; stroke: #d62728; stroke-opacity: 0.9; stroke-width: 1.5"/>
    <path d="M 651.986607 221.96783 
L 638.036607 207.355345 
" clip-path="url(#pe4d39e23a0)" style="fill: none; stroke: #d62728; stroke-opacity: 0.9; stroke-width: 1.5"/>
    <path d="M 651.986607 221.96783 
L 610.136606 207.355346 
" clip-path="url(#pe4d39e23a0)" style="fill: none; stroke: #d62728; stroke-opacity: 0.9; stroke-width: 1.5"/>
    <path d="M 651.986607 221.96783 
L 596.186608 221.967832 
" clip-path="url(#pe4d39e23a0)" style="fill: none; stroke: #d62728; stroke-opacity: 0.9; stroke-width: 1.5"/>
    <path d="M 651.986607 221.96783 
L 610.13661 236.580315 
" clip-path="url(#pe4d39e23a0)" style="fill: none; stroke: #d62728; stroke-opacity: 0.9; stroke-width: 1.5"/>
    <path d="M 651.986607 221.96783 
L 638.036605 236.580315 
" clip-path="url(#pe4d39e23a0)" style="fill: none; stroke: #d62728; stroke-opacity: 0.9; stroke-width: 1.5"/>
    <path d="M 638.036607 207.355345 
L 638.036607 207.355345 
" clip-path="url(#pe4d39e23a0)" style="fill: none; stroke: #d62728; stroke-opacity: 0.9; stroke-width: 1.5"/>
    <path d="M 638.036607 207.355345 
L 610.136606 207.355346 
" clip-path="url(#pe4d39e23a0)" style="fill: none; stroke: #d62728; stroke-opacity: 0.9; stroke-width: 1.5"/>
    <path d="M 638.036607 207.355345 
L 596.186608 221.967832 
" clip-path="url(#pe4d39e23a0)" style="fill: none; stroke: #d62728; stroke-opacity: 0.9; stroke-width: 1.5"/>
    <path d="M 638.036607 207.355345 
L 610.13661 236.580315 
" clip-path="url(#pe4d39e23a0)" style="fill: none; stroke: #d62728; stroke-opacity: 0.9; stroke-width: 1.5"/>
    <path d="M 638.036607 207.355345 
L 638.036605 236.580315 
" clip-path="url(#pe4d39e23a0)" style="fill: none; stroke: #d62728; stroke-opacity: 0.9; stroke-width: 1.5"/>
    <path d="M 610.136606 207.355346 
L 610.136606 207.355346 
" clip-path="url(#pe4d39e23a0)" style="fill: none; stroke: #d62728; stroke-opacity: 0.9; stroke-width: 1.5"/>
    <path d="M 610.136606 207.355346 
L 596.186608 221.967832 
" clip-path="url(#pe4d39e23a0)" style="fill: none; stroke: #d62728; stroke-opacity: 0.9; stroke-width: 1.5"/>
    <path d="M 610.136606 207.355346 
L 610.13661 236.580315 
" clip-path="url(#pe4d39e23a0)" style="fill: none; stroke: #d62728; stroke-opacity: 0.9; stroke-width: 1.5"/>
    <path d="M 610.136606 207.355346 
L 638.036605 236.580315 
" clip-path="url(#pe4d39e23a0)" style="fill: none; stroke: #d62728; stroke-opacity: 0.9; stroke-width: 1.5"/>
    <path d="M 596.186608 221.967832 
L 596.186608 221.967832 
" clip-path="url(#pe4d39e23a0)" style="fill: none; stroke: #d62728; stroke-opacity: 0.9; stroke-width: 1.5"/>
    <path d="M 596.186608 221.967832 
L 610.13661 236.580315 
" clip-path="url(#pe4d39e23a0)" style="fill: none; stroke: #d62728; stroke-opacity: 0.9; stroke-width: 1.5"/>
    <path d="M 596.186608 221.967832 
L 638.036605 236.580315 
" clip-path="url(#pe4d39e23a0)" style="fill: none; stroke: #d62728; stroke-opacity: 0.9; stroke-width: 1.5"/>
    <path d="M 610.13661 236.580315 
L 610.13661 236.580315 
" clip-path="url(#pe4d39e23a0)" style="fill: none; stroke: #d62728; stroke-opacity: 0.9; stroke-width: 1.5"/>
    <path d="M 610.13661 236.580315 
L 638.036605 236.580315 
" clip-path="url(#pe4d39e23a0)" style="fill: none; stroke: #d62728; stroke-opacity: 0.9; stroke-width: 1.5"/>
    <path d="M 638.036605 236.580315 
L 638.036605 236.580315 
" clip-path="url(#pe4d39e23a0)" style="fill: none; stroke: #d62728; stroke-opacity: 0.9; stroke-width: 1.5"/>
   </g>
   <g id="patch_26">
    <path d="M 651.986607 219.045333 
C 654.402818 219.045333 654.402818 221.96783 651.986607 221.96783 
C 649.570396 221.96783 649.570396 219.045333 651.986607 219.045333 
" clip-path="url(#pe4d39e23a0)" style="fill: none; stroke: #d62728; stroke-opacity: 0.9; stroke-width: 1.5; stroke-linecap: round"/>
   </g>
   <g id="patch_27">
    <path d="M 638.036607 204.432848 
C 640.452817 204.432848 640.452817 207.355345 638.036607 207.355345 
C 635.620396 207.355345 635.620396 204.432848 638.036607 204.432848 
" clip-path="url(#pe4d39e23a0)" style="fill: none; stroke: #d62728; stroke-opacity: 0.9; stroke-width: 1.5; stroke-linecap: round"/>
   </g>
   <g id="patch_28">
    <path d="M 610.136606 204.432849 
C 612.552817 204.432849 612.552817 207.355346 610.136606 207.355346 
C 607.720395 207.355346 607.720395 204.432849 610.136606 204.432849 
" clip-path="url(#pe4d39e23a0)" style="fill: none; stroke: #d62728; stroke-opacity: 0.9; stroke-width: 1.5; stroke-linecap: round"/>
   </g>
   <g id="patch_29">
    <path d="M 596.186608 219.045335 
C 598.602819 219.045335 598.602819 221.967832 596.186608 221.967832 
C 593.770397 221.967832 593.770397 219.045335 596.186608 219.045335 
" clip-path="url(#pe4d39e23a0)" style="fill: none; stroke: #d62728; stroke-opacity: 0.9; stroke-width: 1.5; stroke-linecap: round"/>
   </g>
   <g id="patch_30">
    <path d="M 610.13661 233.657818 
C 612.552821 233.657818 612.552821 236.580315 610.13661 236.580315 
C 607.720399 236.580315 607.720399 233.657818 610.13661 233.657818 
" clip-path="url(#pe4d39e23a0)" style="fill: none; stroke: #d62728; stroke-opacity: 0.9; stroke-width: 1.5; stroke-linecap: round"/>
   </g>
   <g id="patch_31">
    <path d="M 638.036605 233.657818 
C 640.452816 233.657818 640.452816 236.580315 638.036605 236.580315 
C 635.620394 236.580315 635.620394 233.657818 638.036605 233.657818 
" clip-path="url(#pe4d39e23a0)" style="fill: none; stroke: #d62728; stroke-opacity: 0.9; stroke-width: 1.5; stroke-linecap: round"/>
   </g>
   <g id="PathCollection_4">
    <defs>
     <path id="C3_0_38489d3d9f" d="M 0 6.123724 
C 1.624031 6.123724 3.181764 5.47849 4.330127 4.330127 
C 5.47849 3.181764 6.123724 1.624031 6.123724 -0 
C 6.123724 -1.624031 5.47849 -3.181764 4.330127 -4.330127 
C 3.181764 -5.47849 1.624031 -6.123724 0 -6.123724 
C -1.624031 -6.123724 -3.181764 -5.47849 -4.330127 -4.330127 
C -5.47849 -3.181764 -6.123724 -1.624031 -6.123724 0 
C -6.123724 1.624031 -5.47849 3.181764 -4.330127 4.330127 
C -3.181764 5.47849 -1.624031 6.123724 0 6.123724 
z
"/>
    </defs>
    <g clip-path="url(#pe4d39e23a0)">
     <use xlink:href="#C3_0_38489d3d9f" x="651.986607" y="221.96783" style="fill: #d62728; fill-opacity: 0.9; stroke: #d62728; stroke-opacity: 0.9; stroke-width: 2"/>
    </g>
    <g clip-path="url(#pe4d39e23a0)">
     <use xlink:href="#C3_0_38489d3d9f" x="638.036607" y="207.355345" style="fill: #d62728; fill-opacity: 0.9; stroke: #d62728; stroke-opacity: 0.9; stroke-width: 2"/>
    </g>
    <g clip-path="url(#pe4d39e23a0)">
     <use xlink:href="#C3_0_38489d3d9f" x="610.136606" y="207.355346" style="fill: #d62728; fill-opacity: 0.9; stroke: #d62728; stroke-opacity: 0.9; stroke-width: 2"/>
    </g>
    <g clip-path="url(#pe4d39e23a0)">
     <use xlink:href="#C3_0_38489d3d9f" x="596.186608" y="221.967832" style="fill: #ffffff; fill-opacity: 0.9; stroke: #d62728; stroke-opacity: 0.9; stroke-width: 2"/>
    </g>
    <g clip-path="url(#pe4d39e23a0)">
     <use xlink:href="#C3_0_38489d3d9f" x="610.13661" y="236.580315" style="fill: #ffffff; fill-opacity: 0.9; stroke: #d62728; stroke-opacity: 0.9; stroke-width: 2"/>
    </g>
    <g clip-path="url(#pe4d39e23a0)">
     <use xlink:href="#C3_0_38489d3d9f" x="638.036605" y="236.580315" style="fill: #ffffff; fill-opacity: 0.9; stroke: #d62728; stroke-opacity: 0.9; stroke-width: 2"/>
    </g>
   </g>
   <g id="text_37">
    <g clip-path="url(#pe4d39e23a0)">
     <!-- H -->
     <g style="opacity: 0.9" transform="translate(647.802232 224.727205) scale(0.1 -0.1)">
      <use xlink:href="#DejaVuSans-Bold-48"/>
     </g>
    </g>
   </g>
   <g id="text_38">
    <g clip-path="url(#pe4d39e23a0)">
     <!-- H -->
     <g style="opacity: 0.9" transform="translate(633.852232 210.11472) scale(0.1 -0.1)">
      <use xlink:href="#DejaVuSans-Bold-48"/>
     </g>
    </g>
   </g>
   <g id="text_39">
    <g clip-path="url(#pe4d39e23a0)">
     <!-- H -->
     <g style="opacity: 0.9" transform="translate(605.952231 210.114721) scale(0.1 -0.1)">
      <use xlink:href="#DejaVuSans-Bold-48"/>
     </g>
    </g>
   </g>
   <g id="text_40">
    <g clip-path="url(#pe4d39e23a0)">
     <!-- L -->
     <g style="opacity: 0.9" transform="translate(593.00067 224.727207) scale(0.1 -0.1)">
      <use xlink:href="#DejaVuSans-Bold-4c"/>
     </g>
    </g>
   </g>
   <g id="text_41">
    <g clip-path="url(#pe4d39e23a0)">
     <!-- L -->
     <g style="opacity: 0.9" transform="translate(606.950673 239.33969) scale(0.1 -0.1)">
      <use xlink:href="#DejaVuSans-Bold-4c"/>
     </g>
    </g>
   </g>
   <g id="text_42">
    <g clip-path="url(#pe4d39e23a0)">
     <!-- L -->
     <g style="opacity: 0.9" transform="translate(634.850667 239.33969) scale(0.1 -0.1)">
      <use xlink:href="#DejaVuSans-Bold-4c"/>
     </g>
    </g>
   </g>
  </g>
 </g>
 <defs>
  <clipPath id="p86badc4233">
   <rect x="50.14375" y="24.312178" width="478.285714" height="221.76"/>
  </clipPath>
  <clipPath id="pda20697bf7">
   <rect x="584.229464" y="24.312178" width="79.714286" height="48.208696"/>
  </clipPath>
  <clipPath id="pc35a03f254">
   <rect x="584.229464" y="82.162613" width="79.714286" height="48.208696"/>
  </clipPath>
  <clipPath id="p7b1bc57de0">
   <rect x="584.229464" y="140.013048" width="79.714286" height="48.208696"/>
  </clipPath>
  <clipPath id="pe4d39e23a0">
   <rect x="584.229464" y="197.863483" width="79.714286" height="48.208696"/>
  </clipPath>
 </defs>
</svg>
