<?xml version="1.0" encoding="utf-8" standalone="no"?>
<!DOCTYPE svg PUBLIC "-//W3C//DTD SVG 1.1//EN"
  "http://www.w3.org/Graphics/SVG/1.1/DTD/svg11.dtd">
<svg xmlns:xlink="http://www.w3.org/1999/xlink" width="576.196667pt" height="350.954688pt" viewBox="0 0 576.196667 350.954688" xmlns="http://www.w3.org/2000/svg" version="1.1">
 <metadata>
  <rdf:RDF xmlns:dc="http://purl.org/dc/elements/1.1/" xmlns:cc="http://creativecommons.org/ns#" xmlns:rdf="http://www.w3.org/1999/02/22-rdf-syntax-ns#">
   <cc:Work>
    <dc:type rdf:resource="http://purl.org/dc/dcmitype/StillImage"/>
    <dc:date>2024-10-30T12:51:48.630736</dc:date>
    <dc:format>image/svg+xml</dc:format>
    <dc:creator>
     <cc:Agent>
      <dc:title>Matplotlib v3.8.0, https://matplotlib.org/</dc:title>
     </cc:Agent>
    </dc:creator>
   </cc:Work>
  </rdf:RDF>
 </metadata>
 <defs>
  <style type="text/css">*{stroke-linejoin: round; stroke-linecap: butt}</style>
 </defs>
 <g id="figure_1">
  <g id="patch_1">
   <path d="M 0 350.954688 
L 576.196667 350.954688 
L 576.196667 0 
L 0 0 
z
" style="fill: #ffffff"/>
  </g>
  <g id="axes_1">
   <g id="patch_2">
    <path d="M 53.328125 313.398438 
L 474.661458 313.398438 
L 474.661458 20.798437 
L 53.328125 20.798437 
z
" style="fill: #ffffff"/>
   </g>
   <g id="PolyCollection_1"/>
   <g id="PolyCollection_2"/>
   <g id="PolyCollection_3"/>
   <g id="PolyCollection_4"/>
   <g id="PolyCollection_5"/>
   <g id="PolyCollection_6"/>
   <g id="PolyCollection_7"/>
   <g id="PolyCollection_8"/>
   <g id="PolyCollection_9">
    <defs>
     <path id="mc491e01df0" d="M 292.779634 -21.300694 
L 219.858033 -21.300694 
L 219.858033 -362.667361 
L 292.779634 -362.667361 
L 292.779634 -362.667361 
L 292.779634 -21.300694 
z
" style="stroke: #7f7f7f; stroke-opacity: 0.1"/>
    </defs>
    <g clip-path="url(#p74b5ebcab1)">
     <use xlink:href="#mc491e01df0" x="0" y="350.954688" style="fill: #7f7f7f; fill-opacity: 0.1; stroke: #7f7f7f; stroke-opacity: 0.1"/>
    </g>
   </g>
   <g id="matplotlib.axis_1">
    <g id="xtick_1">
     <g id="line2d_1">
      <defs>
       <path id="m1a54501ac3" d="M 0 0 
L 0 3.5 
" style="stroke: #000000; stroke-width: 0.8"/>
      </defs>
      <g>
       <use xlink:href="#m1a54501ac3" x="72.095842" y="313.398438" style="stroke: #000000; stroke-width: 0.8"/>
      </g>
     </g>
     <g id="text_1">
      <!-- 0.0 -->
      <g transform="translate(64.14428 327.996875) scale(0.1 -0.1)">
       <defs>
        <path id="DejaVuSans-30" d="M 2034 4250 
Q 1547 4250 1301 3770 
Q 1056 3291 1056 2328 
Q 1056 1369 1301 889 
Q 1547 409 2034 409 
Q 2525 409 2770 889 
Q 3016 1369 3016 2328 
Q 3016 3291 2770 3770 
Q 2525 4250 2034 4250 
z
M 2034 4750 
Q 2819 4750 3233 4129 
Q 3647 3509 3647 2328 
Q 3647 1150 3233 529 
Q 2819 -91 2034 -91 
Q 1250 -91 836 529 
Q 422 1150 422 2328 
Q 422 3509 836 4129 
Q 1250 4750 2034 4750 
z
" transform="scale(0.015625)"/>
        <path id="DejaVuSans-2e" d="M 684 794 
L 1344 794 
L 1344 0 
L 684 0 
L 684 794 
z
" transform="scale(0.015625)"/>
       </defs>
       <use xlink:href="#DejaVuSans-30"/>
       <use xlink:href="#DejaVuSans-2e" x="63.623047"/>
       <use xlink:href="#DejaVuSans-30" x="95.410156"/>
      </g>
     </g>
    </g>
    <g id="xtick_2">
     <g id="line2d_2">
      <g>
       <use xlink:href="#m1a54501ac3" x="148.855422" y="313.398438" style="stroke: #000000; stroke-width: 0.8"/>
      </g>
     </g>
     <g id="text_2">
      <!-- 0.2 -->
      <g transform="translate(140.90386 327.996875) scale(0.1 -0.1)">
       <defs>
        <path id="DejaVuSans-32" d="M 1228 531 
L 3431 531 
L 3431 0 
L 469 0 
L 469 531 
Q 828 903 1448 1529 
Q 2069 2156 2228 2338 
Q 2531 2678 2651 2914 
Q 2772 3150 2772 3378 
Q 2772 3750 2511 3984 
Q 2250 4219 1831 4219 
Q 1534 4219 1204 4116 
Q 875 4013 500 3803 
L 500 4441 
Q 881 4594 1212 4672 
Q 1544 4750 1819 4750 
Q 2544 4750 2975 4387 
Q 3406 4025 3406 3419 
Q 3406 3131 3298 2873 
Q 3191 2616 2906 2266 
Q 2828 2175 2409 1742 
Q 1991 1309 1228 531 
z
" transform="scale(0.015625)"/>
       </defs>
       <use xlink:href="#DejaVuSans-30"/>
       <use xlink:href="#DejaVuSans-2e" x="63.623047"/>
       <use xlink:href="#DejaVuSans-32" x="95.410156"/>
      </g>
     </g>
    </g>
    <g id="xtick_3">
     <g id="line2d_3">
      <g>
       <use xlink:href="#m1a54501ac3" x="225.615002" y="313.398438" style="stroke: #000000; stroke-width: 0.8"/>
      </g>
     </g>
     <g id="text_3">
      <!-- 0.4 -->
      <g transform="translate(217.663439 327.996875) scale(0.1 -0.1)">
       <defs>
        <path id="DejaVuSans-34" d="M 2419 4116 
L 825 1625 
L 2419 1625 
L 2419 4116 
z
M 2253 4666 
L 3047 4666 
L 3047 1625 
L 3713 1625 
L 3713 1100 
L 3047 1100 
L 3047 0 
L 2419 0 
L 2419 1100 
L 313 1100 
L 313 1709 
L 2253 4666 
z
" transform="scale(0.015625)"/>
       </defs>
       <use xlink:href="#DejaVuSans-30"/>
       <use xlink:href="#DejaVuSans-2e" x="63.623047"/>
       <use xlink:href="#DejaVuSans-34" x="95.410156"/>
      </g>
     </g>
    </g>
    <g id="xtick_4">
     <g id="line2d_4">
      <g>
       <use xlink:href="#m1a54501ac3" x="302.374582" y="313.398438" style="stroke: #000000; stroke-width: 0.8"/>
      </g>
     </g>
     <g id="text_4">
      <!-- 0.6 -->
      <g transform="translate(294.423019 327.996875) scale(0.1 -0.1)">
       <defs>
        <path id="DejaVuSans-36" d="M 2113 2584 
Q 1688 2584 1439 2293 
Q 1191 2003 1191 1497 
Q 1191 994 1439 701 
Q 1688 409 2113 409 
Q 2538 409 2786 701 
Q 3034 994 3034 1497 
Q 3034 2003 2786 2293 
Q 2538 2584 2113 2584 
z
M 3366 4563 
L 3366 3988 
Q 3128 4100 2886 4159 
Q 2644 4219 2406 4219 
Q 1781 4219 1451 3797 
Q 1122 3375 1075 2522 
Q 1259 2794 1537 2939 
Q 1816 3084 2150 3084 
Q 2853 3084 3261 2657 
Q 3669 2231 3669 1497 
Q 3669 778 3244 343 
Q 2819 -91 2113 -91 
Q 1303 -91 875 529 
Q 447 1150 447 2328 
Q 447 3434 972 4092 
Q 1497 4750 2381 4750 
Q 2619 4750 2861 4703 
Q 3103 4656 3366 4563 
z
" transform="scale(0.015625)"/>
       </defs>
       <use xlink:href="#DejaVuSans-30"/>
       <use xlink:href="#DejaVuSans-2e" x="63.623047"/>
       <use xlink:href="#DejaVuSans-36" x="95.410156"/>
      </g>
     </g>
    </g>
    <g id="xtick_5">
     <g id="line2d_5">
      <g>
       <use xlink:href="#m1a54501ac3" x="379.134161" y="313.398438" style="stroke: #000000; stroke-width: 0.8"/>
      </g>
     </g>
     <g id="text_5">
      <!-- 0.8 -->
      <g transform="translate(371.182599 327.996875) scale(0.1 -0.1)">
       <defs>
        <path id="DejaVuSans-38" d="M 2034 2216 
Q 1584 2216 1326 1975 
Q 1069 1734 1069 1313 
Q 1069 891 1326 650 
Q 1584 409 2034 409 
Q 2484 409 2743 651 
Q 3003 894 3003 1313 
Q 3003 1734 2745 1975 
Q 2488 2216 2034 2216 
z
M 1403 2484 
Q 997 2584 770 2862 
Q 544 3141 544 3541 
Q 544 4100 942 4425 
Q 1341 4750 2034 4750 
Q 2731 4750 3128 4425 
Q 3525 4100 3525 3541 
Q 3525 3141 3298 2862 
Q 3072 2584 2669 2484 
Q 3125 2378 3379 2068 
Q 3634 1759 3634 1313 
Q 3634 634 3220 271 
Q 2806 -91 2034 -91 
Q 1263 -91 848 271 
Q 434 634 434 1313 
Q 434 1759 690 2068 
Q 947 2378 1403 2484 
z
M 1172 3481 
Q 1172 3119 1398 2916 
Q 1625 2713 2034 2713 
Q 2441 2713 2670 2916 
Q 2900 3119 2900 3481 
Q 2900 3844 2670 4047 
Q 2441 4250 2034 4250 
Q 1625 4250 1398 4047 
Q 1172 3844 1172 3481 
z
" transform="scale(0.015625)"/>
       </defs>
       <use xlink:href="#DejaVuSans-30"/>
       <use xlink:href="#DejaVuSans-2e" x="63.623047"/>
       <use xlink:href="#DejaVuSans-38" x="95.410156"/>
      </g>
     </g>
    </g>
    <g id="xtick_6">
     <g id="line2d_6">
      <g>
       <use xlink:href="#m1a54501ac3" x="455.893741" y="313.398438" style="stroke: #000000; stroke-width: 0.8"/>
      </g>
     </g>
     <g id="text_6">
      <!-- 1.0 -->
      <g transform="translate(447.942179 327.996875) scale(0.1 -0.1)">
       <defs>
        <path id="DejaVuSans-31" d="M 794 531 
L 1825 531 
L 1825 4091 
L 703 3866 
L 703 4441 
L 1819 4666 
L 2450 4666 
L 2450 531 
L 3481 531 
L 3481 0 
L 794 0 
L 794 531 
z
" transform="scale(0.015625)"/>
       </defs>
       <use xlink:href="#DejaVuSans-31"/>
       <use xlink:href="#DejaVuSans-2e" x="63.623047"/>
       <use xlink:href="#DejaVuSans-30" x="95.410156"/>
      </g>
     </g>
    </g>
    <g id="text_7">
     <!-- $\theta$ -->
     <g transform="translate(260.894792 341.675) scale(0.1 -0.1)">
      <defs>
       <path id="DejaVuSans-Oblique-3b8" d="M 2913 2219 
L 925 2219 
Q 791 1284 928 888 
Q 1100 400 1566 400 
Q 2034 400 2391 891 
Q 2703 1322 2913 2219 
z
M 3009 2750 
Q 3094 3638 2984 3950 
Q 2813 4444 2353 4444 
Q 1875 4444 1525 3956 
Q 1250 3563 1034 2750 
L 3009 2750 
z
M 2444 4913 
Q 3194 4913 3494 4250 
Q 3794 3591 3566 2422 
Q 3341 1256 2781 594 
Q 2225 -72 1475 -72 
Q 722 -72 425 594 
Q 128 1256 353 2422 
Q 581 3591 1134 4250 
Q 1691 4913 2444 4913 
z
" transform="scale(0.015625)"/>
      </defs>
      <use xlink:href="#DejaVuSans-Oblique-3b8" transform="translate(0 0.234375)"/>
     </g>
    </g>
   </g>
   <g id="matplotlib.axis_2">
    <g id="ytick_1">
     <g id="line2d_7">
      <defs>
       <path id="m4eb96f9fd0" d="M 0 0 
L -3.5 0 
" style="stroke: #000000; stroke-width: 0.8"/>
      </defs>
      <g>
       <use xlink:href="#m4eb96f9fd0" x="53.328125" y="297.142882" style="stroke: #000000; stroke-width: 0.8"/>
      </g>
     </g>
     <g id="text_8">
      <!-- 1020 -->
      <g transform="translate(20.878125 300.942101) scale(0.1 -0.1)">
       <use xlink:href="#DejaVuSans-31"/>
       <use xlink:href="#DejaVuSans-30" x="63.623047"/>
       <use xlink:href="#DejaVuSans-32" x="127.246094"/>
       <use xlink:href="#DejaVuSans-30" x="190.869141"/>
      </g>
     </g>
    </g>
    <g id="ytick_2">
     <g id="line2d_8">
      <g>
       <use xlink:href="#m4eb96f9fd0" x="53.328125" y="264.631771" style="stroke: #000000; stroke-width: 0.8"/>
      </g>
     </g>
     <g id="text_9">
      <!-- 1030 -->
      <g transform="translate(20.878125 268.43099) scale(0.1 -0.1)">
       <defs>
        <path id="DejaVuSans-33" d="M 2597 2516 
Q 3050 2419 3304 2112 
Q 3559 1806 3559 1356 
Q 3559 666 3084 287 
Q 2609 -91 1734 -91 
Q 1441 -91 1130 -33 
Q 819 25 488 141 
L 488 750 
Q 750 597 1062 519 
Q 1375 441 1716 441 
Q 2309 441 2620 675 
Q 2931 909 2931 1356 
Q 2931 1769 2642 2001 
Q 2353 2234 1838 2234 
L 1294 2234 
L 1294 2753 
L 1863 2753 
Q 2328 2753 2575 2939 
Q 2822 3125 2822 3475 
Q 2822 3834 2567 4026 
Q 2313 4219 1838 4219 
Q 1578 4219 1281 4162 
Q 984 4106 628 3988 
L 628 4550 
Q 988 4650 1302 4700 
Q 1616 4750 1894 4750 
Q 2613 4750 3031 4423 
Q 3450 4097 3450 3541 
Q 3450 3153 3228 2886 
Q 3006 2619 2597 2516 
z
" transform="scale(0.015625)"/>
       </defs>
       <use xlink:href="#DejaVuSans-31"/>
       <use xlink:href="#DejaVuSans-30" x="63.623047"/>
       <use xlink:href="#DejaVuSans-33" x="127.246094"/>
       <use xlink:href="#DejaVuSans-30" x="190.869141"/>
      </g>
     </g>
    </g>
    <g id="ytick_3">
     <g id="line2d_9">
      <g>
       <use xlink:href="#m4eb96f9fd0" x="53.328125" y="232.12066" style="stroke: #000000; stroke-width: 0.8"/>
      </g>
     </g>
     <g id="text_10">
      <!-- 1040 -->
      <g transform="translate(20.878125 235.919878) scale(0.1 -0.1)">
       <use xlink:href="#DejaVuSans-31"/>
       <use xlink:href="#DejaVuSans-30" x="63.623047"/>
       <use xlink:href="#DejaVuSans-34" x="127.246094"/>
       <use xlink:href="#DejaVuSans-30" x="190.869141"/>
      </g>
     </g>
    </g>
    <g id="ytick_4">
     <g id="line2d_10">
      <g>
       <use xlink:href="#m4eb96f9fd0" x="53.328125" y="199.609549" style="stroke: #000000; stroke-width: 0.8"/>
      </g>
     </g>
     <g id="text_11">
      <!-- 1050 -->
      <g transform="translate(20.878125 203.408767) scale(0.1 -0.1)">
       <defs>
        <path id="DejaVuSans-35" d="M 691 4666 
L 3169 4666 
L 3169 4134 
L 1269 4134 
L 1269 2991 
Q 1406 3038 1543 3061 
Q 1681 3084 1819 3084 
Q 2600 3084 3056 2656 
Q 3513 2228 3513 1497 
Q 3513 744 3044 326 
Q 2575 -91 1722 -91 
Q 1428 -91 1123 -41 
Q 819 9 494 109 
L 494 744 
Q 775 591 1075 516 
Q 1375 441 1709 441 
Q 2250 441 2565 725 
Q 2881 1009 2881 1497 
Q 2881 1984 2565 2268 
Q 2250 2553 1709 2553 
Q 1456 2553 1204 2497 
Q 953 2441 691 2322 
L 691 4666 
z
" transform="scale(0.015625)"/>
       </defs>
       <use xlink:href="#DejaVuSans-31"/>
       <use xlink:href="#DejaVuSans-30" x="63.623047"/>
       <use xlink:href="#DejaVuSans-35" x="127.246094"/>
       <use xlink:href="#DejaVuSans-30" x="190.869141"/>
      </g>
     </g>
    </g>
    <g id="ytick_5">
     <g id="line2d_11">
      <g>
       <use xlink:href="#m4eb96f9fd0" x="53.328125" y="167.098438" style="stroke: #000000; stroke-width: 0.8"/>
      </g>
     </g>
     <g id="text_12">
      <!-- 1060 -->
      <g transform="translate(20.878125 170.897656) scale(0.1 -0.1)">
       <use xlink:href="#DejaVuSans-31"/>
       <use xlink:href="#DejaVuSans-30" x="63.623047"/>
       <use xlink:href="#DejaVuSans-36" x="127.246094"/>
       <use xlink:href="#DejaVuSans-30" x="190.869141"/>
      </g>
     </g>
    </g>
    <g id="ytick_6">
     <g id="line2d_12">
      <g>
       <use xlink:href="#m4eb96f9fd0" x="53.328125" y="134.587326" style="stroke: #000000; stroke-width: 0.8"/>
      </g>
     </g>
     <g id="text_13">
      <!-- 1070 -->
      <g transform="translate(20.878125 138.386545) scale(0.1 -0.1)">
       <defs>
        <path id="DejaVuSans-37" d="M 525 4666 
L 3525 4666 
L 3525 4397 
L 1831 0 
L 1172 0 
L 2766 4134 
L 525 4134 
L 525 4666 
z
" transform="scale(0.015625)"/>
       </defs>
       <use xlink:href="#DejaVuSans-31"/>
       <use xlink:href="#DejaVuSans-30" x="63.623047"/>
       <use xlink:href="#DejaVuSans-37" x="127.246094"/>
       <use xlink:href="#DejaVuSans-30" x="190.869141"/>
      </g>
     </g>
    </g>
    <g id="ytick_7">
     <g id="line2d_13">
      <g>
       <use xlink:href="#m4eb96f9fd0" x="53.328125" y="102.076215" style="stroke: #000000; stroke-width: 0.8"/>
      </g>
     </g>
     <g id="text_14">
      <!-- 1080 -->
      <g transform="translate(20.878125 105.875434) scale(0.1 -0.1)">
       <use xlink:href="#DejaVuSans-31"/>
       <use xlink:href="#DejaVuSans-30" x="63.623047"/>
       <use xlink:href="#DejaVuSans-38" x="127.246094"/>
       <use xlink:href="#DejaVuSans-30" x="190.869141"/>
      </g>
     </g>
    </g>
    <g id="ytick_8">
     <g id="line2d_14">
      <g>
       <use xlink:href="#m4eb96f9fd0" x="53.328125" y="69.565104" style="stroke: #000000; stroke-width: 0.8"/>
      </g>
     </g>
     <g id="text_15">
      <!-- 1090 -->
      <g transform="translate(20.878125 73.364323) scale(0.1 -0.1)">
       <defs>
        <path id="DejaVuSans-39" d="M 703 97 
L 703 672 
Q 941 559 1184 500 
Q 1428 441 1663 441 
Q 2288 441 2617 861 
Q 2947 1281 2994 2138 
Q 2813 1869 2534 1725 
Q 2256 1581 1919 1581 
Q 1219 1581 811 2004 
Q 403 2428 403 3163 
Q 403 3881 828 4315 
Q 1253 4750 1959 4750 
Q 2769 4750 3195 4129 
Q 3622 3509 3622 2328 
Q 3622 1225 3098 567 
Q 2575 -91 1691 -91 
Q 1453 -91 1209 -44 
Q 966 3 703 97 
z
M 1959 2075 
Q 2384 2075 2632 2365 
Q 2881 2656 2881 3163 
Q 2881 3666 2632 3958 
Q 2384 4250 1959 4250 
Q 1534 4250 1286 3958 
Q 1038 3666 1038 3163 
Q 1038 2656 1286 2365 
Q 1534 2075 1959 2075 
z
" transform="scale(0.015625)"/>
       </defs>
       <use xlink:href="#DejaVuSans-31"/>
       <use xlink:href="#DejaVuSans-30" x="63.623047"/>
       <use xlink:href="#DejaVuSans-39" x="127.246094"/>
       <use xlink:href="#DejaVuSans-30" x="190.869141"/>
      </g>
     </g>
    </g>
    <g id="ytick_9">
     <g id="line2d_15">
      <g>
       <use xlink:href="#m4eb96f9fd0" x="53.328125" y="37.053993" style="stroke: #000000; stroke-width: 0.8"/>
      </g>
     </g>
     <g id="text_16">
      <!-- 1100 -->
      <g transform="translate(20.878125 40.853212) scale(0.1 -0.1)">
       <use xlink:href="#DejaVuSans-31"/>
       <use xlink:href="#DejaVuSans-31" x="63.623047"/>
       <use xlink:href="#DejaVuSans-30" x="127.246094"/>
       <use xlink:href="#DejaVuSans-30" x="190.869141"/>
      </g>
     </g>
    </g>
    <g id="text_17">
     <!-- Social Welfare -->
     <g transform="translate(14.798438 202.471875) rotate(-90) scale(0.1 -0.1)">
      <defs>
       <path id="DejaVuSans-53" d="M 3425 4513 
L 3425 3897 
Q 3066 4069 2747 4153 
Q 2428 4238 2131 4238 
Q 1616 4238 1336 4038 
Q 1056 3838 1056 3469 
Q 1056 3159 1242 3001 
Q 1428 2844 1947 2747 
L 2328 2669 
Q 3034 2534 3370 2195 
Q 3706 1856 3706 1288 
Q 3706 609 3251 259 
Q 2797 -91 1919 -91 
Q 1588 -91 1214 -16 
Q 841 59 441 206 
L 441 856 
Q 825 641 1194 531 
Q 1563 422 1919 422 
Q 2459 422 2753 634 
Q 3047 847 3047 1241 
Q 3047 1584 2836 1778 
Q 2625 1972 2144 2069 
L 1759 2144 
Q 1053 2284 737 2584 
Q 422 2884 422 3419 
Q 422 4038 858 4394 
Q 1294 4750 2059 4750 
Q 2388 4750 2728 4690 
Q 3069 4631 3425 4513 
z
" transform="scale(0.015625)"/>
       <path id="DejaVuSans-6f" d="M 1959 3097 
Q 1497 3097 1228 2736 
Q 959 2375 959 1747 
Q 959 1119 1226 758 
Q 1494 397 1959 397 
Q 2419 397 2687 759 
Q 2956 1122 2956 1747 
Q 2956 2369 2687 2733 
Q 2419 3097 1959 3097 
z
M 1959 3584 
Q 2709 3584 3137 3096 
Q 3566 2609 3566 1747 
Q 3566 888 3137 398 
Q 2709 -91 1959 -91 
Q 1206 -91 779 398 
Q 353 888 353 1747 
Q 353 2609 779 3096 
Q 1206 3584 1959 3584 
z
" transform="scale(0.015625)"/>
       <path id="DejaVuSans-63" d="M 3122 3366 
L 3122 2828 
Q 2878 2963 2633 3030 
Q 2388 3097 2138 3097 
Q 1578 3097 1268 2742 
Q 959 2388 959 1747 
Q 959 1106 1268 751 
Q 1578 397 2138 397 
Q 2388 397 2633 464 
Q 2878 531 3122 666 
L 3122 134 
Q 2881 22 2623 -34 
Q 2366 -91 2075 -91 
Q 1284 -91 818 406 
Q 353 903 353 1747 
Q 353 2603 823 3093 
Q 1294 3584 2113 3584 
Q 2378 3584 2631 3529 
Q 2884 3475 3122 3366 
z
" transform="scale(0.015625)"/>
       <path id="DejaVuSans-69" d="M 603 3500 
L 1178 3500 
L 1178 0 
L 603 0 
L 603 3500 
z
M 603 4863 
L 1178 4863 
L 1178 4134 
L 603 4134 
L 603 4863 
z
" transform="scale(0.015625)"/>
       <path id="DejaVuSans-61" d="M 2194 1759 
Q 1497 1759 1228 1600 
Q 959 1441 959 1056 
Q 959 750 1161 570 
Q 1363 391 1709 391 
Q 2188 391 2477 730 
Q 2766 1069 2766 1631 
L 2766 1759 
L 2194 1759 
z
M 3341 1997 
L 3341 0 
L 2766 0 
L 2766 531 
Q 2569 213 2275 61 
Q 1981 -91 1556 -91 
Q 1019 -91 701 211 
Q 384 513 384 1019 
Q 384 1609 779 1909 
Q 1175 2209 1959 2209 
L 2766 2209 
L 2766 2266 
Q 2766 2663 2505 2880 
Q 2244 3097 1772 3097 
Q 1472 3097 1187 3025 
Q 903 2953 641 2809 
L 641 3341 
Q 956 3463 1253 3523 
Q 1550 3584 1831 3584 
Q 2591 3584 2966 3190 
Q 3341 2797 3341 1997 
z
" transform="scale(0.015625)"/>
       <path id="DejaVuSans-6c" d="M 603 4863 
L 1178 4863 
L 1178 0 
L 603 0 
L 603 4863 
z
" transform="scale(0.015625)"/>
       <path id="DejaVuSans-20" transform="scale(0.015625)"/>
       <path id="DejaVuSans-57" d="M 213 4666 
L 850 4666 
L 1831 722 
L 2809 4666 
L 3519 4666 
L 4500 722 
L 5478 4666 
L 6119 4666 
L 4947 0 
L 4153 0 
L 3169 4050 
L 2175 0 
L 1381 0 
L 213 4666 
z
" transform="scale(0.015625)"/>
       <path id="DejaVuSans-65" d="M 3597 1894 
L 3597 1613 
L 953 1613 
Q 991 1019 1311 708 
Q 1631 397 2203 397 
Q 2534 397 2845 478 
Q 3156 559 3463 722 
L 3463 178 
Q 3153 47 2828 -22 
Q 2503 -91 2169 -91 
Q 1331 -91 842 396 
Q 353 884 353 1716 
Q 353 2575 817 3079 
Q 1281 3584 2069 3584 
Q 2775 3584 3186 3129 
Q 3597 2675 3597 1894 
z
M 3022 2063 
Q 3016 2534 2758 2815 
Q 2500 3097 2075 3097 
Q 1594 3097 1305 2825 
Q 1016 2553 972 2059 
L 3022 2063 
z
" transform="scale(0.015625)"/>
       <path id="DejaVuSans-66" d="M 2375 4863 
L 2375 4384 
L 1825 4384 
Q 1516 4384 1395 4259 
Q 1275 4134 1275 3809 
L 1275 3500 
L 2222 3500 
L 2222 3053 
L 1275 3053 
L 1275 0 
L 697 0 
L 697 3053 
L 147 3053 
L 147 3500 
L 697 3500 
L 697 3744 
Q 697 4328 969 4595 
Q 1241 4863 1831 4863 
L 2375 4863 
z
" transform="scale(0.015625)"/>
       <path id="DejaVuSans-72" d="M 2631 2963 
Q 2534 3019 2420 3045 
Q 2306 3072 2169 3072 
Q 1681 3072 1420 2755 
Q 1159 2438 1159 1844 
L 1159 0 
L 581 0 
L 581 3500 
L 1159 3500 
L 1159 2956 
Q 1341 3275 1631 3429 
Q 1922 3584 2338 3584 
Q 2397 3584 2469 3576 
Q 2541 3569 2628 3553 
L 2631 2963 
z
" transform="scale(0.015625)"/>
      </defs>
      <use xlink:href="#DejaVuSans-53"/>
      <use xlink:href="#DejaVuSans-6f" x="63.476562"/>
      <use xlink:href="#DejaVuSans-63" x="124.658203"/>
      <use xlink:href="#DejaVuSans-69" x="179.638672"/>
      <use xlink:href="#DejaVuSans-61" x="207.421875"/>
      <use xlink:href="#DejaVuSans-6c" x="268.701172"/>
      <use xlink:href="#DejaVuSans-20" x="296.484375"/>
      <use xlink:href="#DejaVuSans-57" x="328.271484"/>
      <use xlink:href="#DejaVuSans-65" x="421.273438"/>
      <use xlink:href="#DejaVuSans-6c" x="482.796875"/>
      <use xlink:href="#DejaVuSans-66" x="510.580078"/>
      <use xlink:href="#DejaVuSans-61" x="545.785156"/>
      <use xlink:href="#DejaVuSans-72" x="607.064453"/>
      <use xlink:href="#DejaVuSans-65" x="645.927734"/>
     </g>
    </g>
   </g>
   <g id="line2d_16">
    <path d="M 72.47964 114.739852 
L 99.345493 114.625092 
L 125.059952 114.297138 
L 149.23922 113.770602 
L 171.499498 113.066633 
L 191.840787 112.20339 
L 210.263086 111.203885 
L 227.150193 110.07048 
L 242.885907 108.792717 
L 257.470227 107.384054 
L 270.903154 105.864097 
L 283.568485 104.205225 
L 292.779634 102.842549 
L 292.779634 102.842549 
" clip-path="url(#p74b5ebcab1)" style="fill: none; stroke: #1f77b4; stroke-width: 2; stroke-linecap: square"/>
   </g>
   <g id="line2d_17">
    <path d="M 293.163432 102.782678 
L 304.293571 100.930289 
L 314.656114 98.98667 
L 324.63486 96.890667 
L 334.229807 94.642924 
L 343.057159 92.350857 
L 351.500713 89.935575 
L 359.560468 87.405753 
L 367.236426 84.772389 
L 374.912384 81.899166 
L 382.204545 78.926276 
L 389.112907 75.870838 
L 395.637471 72.752646 
L 402.162035 69.389083 
L 408.302802 65.980426 
L 414.443568 62.316606 
L 420.200536 58.631382 
L 425.957505 54.68455 
L 431.714473 50.455506 
L 437.087644 46.233965 
L 442.460815 41.727085 
L 447.833985 36.913191 
L 452.823358 32.147647 
L 455.509943 29.456388 
L 455.509943 29.456388 
" clip-path="url(#p74b5ebcab1)" style="fill: none; stroke-dasharray: 2,2; stroke-dashoffset: 0; stroke: #1f77b4; stroke-width: 2"/>
   </g>
   <g id="line2d_18">
    <path d="M 219.858033 178.833928 
L 230.220577 176.088858 
L 240.58312 173.116148 
L 250.945663 169.906792 
L 260.924408 166.583443 
L 270.903154 163.021914 
L 280.498101 159.363036 
L 287.022666 156.738594 
L 287.022666 156.738594 
" clip-path="url(#p74b5ebcab1)" style="fill: none; stroke: #ff7f0e; stroke-width: 2; stroke-linecap: square"/>
   </g>
   <g id="line2d_19">
    <path d="M 72.47964 196.764451 
L 84.377375 196.646313 
L 96.27511 196.3058 
L 108.172845 195.741685 
L 120.07058 194.951937 
L 131.968314 193.933696 
L 143.482251 192.727268 
L 154.996188 191.299262 
L 166.510125 189.644758 
L 177.640264 187.824711 
L 188.770403 185.781698 
L 199.900543 183.508971 
L 210.646884 181.089538 
L 219.474235 178.931335 
L 288.557857 156.104594 
L 297.769007 152.165118 
L 306.980156 147.985845 
L 316.191306 143.55568 
L 325.018658 139.063616 
L 333.846009 134.31882 
L 342.289563 129.532607 
L 350.733117 124.492582 
L 359.176671 119.186482 
L 367.236426 113.861287 
L 375.296182 108.269434 
L 383.355938 102.39782 
L 391.031896 96.532895 
L 398.707854 90.388563 
L 406.383812 83.951001 
L 413.675972 77.550274 
L 420.968132 70.858075 
L 428.260292 63.860001 
L 435.552452 56.54069 
L 442.460815 49.295437 
L 449.369177 41.732302 
L 455.509943 34.72988 
L 455.509943 34.72988 
" clip-path="url(#p74b5ebcab1)" style="fill: none; stroke-dasharray: 2,2; stroke-dashoffset: 0; stroke: #ff7f0e; stroke-width: 2"/>
   </g>
   <g id="line2d_20">
    <path d="M 214.484863 232.279432 
L 224.847406 229.230145 
L 235.209949 225.950319 
L 245.572493 222.43649 
L 255.935036 218.684921 
L 266.297579 214.691598 
L 276.660122 210.45222 
L 286.638868 206.133011 
L 296.617613 201.576994 
L 296.617613 201.576994 
" clip-path="url(#p74b5ebcab1)" style="fill: none; stroke: #2ca02c; stroke-width: 2; stroke-linecap: square"/>
   </g>
   <g id="line2d_21">
    <path d="M 72.47964 252.125461 
L 83.225981 252.006253 
L 93.972322 251.664393 
L 104.718664 251.099511 
L 115.465005 250.310992 
L 126.211346 249.297977 
L 136.957687 248.059359 
L 147.704028 246.593785 
L 158.450369 244.899647 
L 169.196711 242.975082 
L 179.943052 240.817967 
L 190.305595 238.515418 
L 200.668138 235.992033 
L 211.030682 233.245191 
L 214.101065 232.387983 
L 298.152805 200.854757 
L 308.13155 196.019699 
L 318.110295 190.937454 
L 328.089041 185.60274 
L 338.067786 180.009962 
L 348.046532 174.153202 
L 357.641479 168.266933 
L 367.236426 162.124945 
L 376.831374 155.721055 
L 386.426321 149.04875 
L 396.021269 142.101171 
L 405.616216 134.871104 
L 414.827366 127.657428 
L 424.038515 120.169355 
L 433.249665 112.399473 
L 442.460815 104.340005 
L 451.671964 95.982785 
L 455.509943 92.41071 
L 455.509943 92.41071 
" clip-path="url(#p74b5ebcab1)" style="fill: none; stroke-dasharray: 2,2; stroke-dashoffset: 0; stroke: #2ca02c; stroke-width: 2"/>
   </g>
   <g id="line2d_22">
    <path d="M 219.858033 274.748904 
L 232.523364 272.047065 
L 245.188695 269.119408 
L 257.854025 265.965038 
L 270.519356 262.58299 
L 283.184687 258.972224 
L 295.850017 255.131632 
L 308.515348 251.060028 
L 321.180679 246.756156 
L 333.846009 242.218683 
L 346.51134 237.446201 
L 359.176671 232.437226 
L 371.842001 227.190195 
L 384.507332 221.703466 
L 397.172663 215.975319 
L 409.837993 210.00395 
L 422.503324 203.787474 
L 435.168655 197.323923 
L 447.833985 190.611242 
L 455.509943 186.4208 
L 455.509943 186.4208 
" clip-path="url(#p74b5ebcab1)" style="fill: none; stroke: #d62728; stroke-width: 2; stroke-linecap: square"/>
   </g>
   <g id="line2d_23">
    <path d="M 72.47964 289.800746 
L 85.144971 289.683857 
L 97.810301 289.346515 
L 110.475632 288.788617 
L 123.140963 288.009994 
L 135.806293 287.010411 
L 148.471624 285.789565 
L 161.136955 284.347086 
L 173.802285 282.682536 
L 186.467616 280.795409 
L 199.132947 278.685132 
L 211.798277 276.351063 
L 219.474235 274.827262 
L 219.474235 274.827262 
" clip-path="url(#p74b5ebcab1)" style="fill: none; stroke-dasharray: 2,2; stroke-dashoffset: 0; stroke: #d62728; stroke-width: 2"/>
   </g>
   <g id="line2d_24"/>
   <g id="line2d_25"/>
   <g id="line2d_26"/>
   <g id="line2d_27"/>
   <g id="line2d_28"/>
   <g id="line2d_29"/>
   <g id="patch_3">
    <path d="M 53.328125 313.398438 
L 53.328125 20.798438 
" style="fill: none; stroke: #000000; stroke-width: 0.8; stroke-linejoin: miter; stroke-linecap: square"/>
   </g>
   <g id="patch_4">
    <path d="M 474.661458 313.398438 
L 474.661458 20.798438 
" style="fill: none; stroke: #000000; stroke-width: 0.8; stroke-linejoin: miter; stroke-linecap: square"/>
   </g>
   <g id="patch_5">
    <path d="M 53.328125 313.398438 
L 474.661458 313.398438 
" style="fill: none; stroke: #000000; stroke-width: 0.8; stroke-linejoin: miter; stroke-linecap: square"/>
   </g>
   <g id="patch_6">
    <path d="M 53.328125 20.798437 
L 474.661458 20.798437 
" style="fill: none; stroke: #000000; stroke-width: 0.8; stroke-linejoin: miter; stroke-linecap: square"/>
   </g>
   <g id="legend_1">
    <g id="patch_7">
     <path d="M 60.328125 58.154687 
L 144.703125 58.154687 
Q 146.703125 58.154687 146.703125 56.154687 
L 146.703125 27.798437 
Q 146.703125 25.798437 144.703125 25.798437 
L 60.328125 25.798437 
Q 58.328125 25.798437 58.328125 27.798437 
L 58.328125 56.154687 
Q 58.328125 58.154687 60.328125 58.154687 
z
" style="fill: #ffffff; opacity: 0.8; stroke: #cccccc; stroke-linejoin: miter"/>
    </g>
    <g id="line2d_30">
     <path d="M 62.328125 33.896875 
L 72.328125 33.896875 
L 82.328125 33.896875 
" style="fill: none; stroke: #000000; stroke-width: 1.5; stroke-linecap: square"/>
    </g>
    <g id="text_18">
     <!-- Stable -->
     <g transform="translate(90.328125 37.396875) scale(0.1 -0.1)">
      <defs>
       <path id="DejaVuSans-74" d="M 1172 4494 
L 1172 3500 
L 2356 3500 
L 2356 3053 
L 1172 3053 
L 1172 1153 
Q 1172 725 1289 603 
Q 1406 481 1766 481 
L 2356 481 
L 2356 0 
L 1766 0 
Q 1100 0 847 248 
Q 594 497 594 1153 
L 594 3053 
L 172 3053 
L 172 3500 
L 594 3500 
L 594 4494 
L 1172 4494 
z
" transform="scale(0.015625)"/>
       <path id="DejaVuSans-62" d="M 3116 1747 
Q 3116 2381 2855 2742 
Q 2594 3103 2138 3103 
Q 1681 3103 1420 2742 
Q 1159 2381 1159 1747 
Q 1159 1113 1420 752 
Q 1681 391 2138 391 
Q 2594 391 2855 752 
Q 3116 1113 3116 1747 
z
M 1159 2969 
Q 1341 3281 1617 3432 
Q 1894 3584 2278 3584 
Q 2916 3584 3314 3078 
Q 3713 2572 3713 1747 
Q 3713 922 3314 415 
Q 2916 -91 2278 -91 
Q 1894 -91 1617 61 
Q 1341 213 1159 525 
L 1159 0 
L 581 0 
L 581 4863 
L 1159 4863 
L 1159 2969 
z
" transform="scale(0.015625)"/>
      </defs>
      <use xlink:href="#DejaVuSans-53"/>
      <use xlink:href="#DejaVuSans-74" x="63.476562"/>
      <use xlink:href="#DejaVuSans-61" x="102.685547"/>
      <use xlink:href="#DejaVuSans-62" x="163.964844"/>
      <use xlink:href="#DejaVuSans-6c" x="227.441406"/>
      <use xlink:href="#DejaVuSans-65" x="255.224609"/>
     </g>
    </g>
    <g id="line2d_31">
     <path d="M 62.328125 48.575 
L 72.328125 48.575 
L 82.328125 48.575 
" style="fill: none; stroke-dasharray: 1,1.65; stroke-dashoffset: 0; stroke: #000000"/>
    </g>
    <g id="text_19">
     <!-- Not Stable -->
     <g transform="translate(90.328125 52.075) scale(0.1 -0.1)">
      <defs>
       <path id="DejaVuSans-4e" d="M 628 4666 
L 1478 4666 
L 3547 763 
L 3547 4666 
L 4159 4666 
L 4159 0 
L 3309 0 
L 1241 3903 
L 1241 0 
L 628 0 
L 628 4666 
z
" transform="scale(0.015625)"/>
      </defs>
      <use xlink:href="#DejaVuSans-4e"/>
      <use xlink:href="#DejaVuSans-6f" x="74.804688"/>
      <use xlink:href="#DejaVuSans-74" x="135.986328"/>
      <use xlink:href="#DejaVuSans-20" x="175.195312"/>
      <use xlink:href="#DejaVuSans-53" x="206.982422"/>
      <use xlink:href="#DejaVuSans-74" x="270.458984"/>
      <use xlink:href="#DejaVuSans-61" x="309.667969"/>
      <use xlink:href="#DejaVuSans-62" x="370.947266"/>
      <use xlink:href="#DejaVuSans-6c" x="434.423828"/>
      <use xlink:href="#DejaVuSans-65" x="462.207031"/>
     </g>
    </g>
   </g>
  </g>
  <g id="axes_2">
   <g id="LineCollection_1">
    <path d="M 553.525458 53.323437 
L 538.400124 30.789455 
" clip-path="url(#p8b25934873)" style="fill: none; stroke: #1f77b4; stroke-opacity: 0.9; stroke-width: 1.5"/>
    <path d="M 553.525458 53.323437 
L 508.149457 30.789457 
" clip-path="url(#p8b25934873)" style="fill: none; stroke: #1f77b4; stroke-opacity: 0.9; stroke-width: 1.5"/>
    <path d="M 538.400124 30.789455 
L 508.149457 30.789457 
" clip-path="url(#p8b25934873)" style="fill: none; stroke: #1f77b4; stroke-opacity: 0.9; stroke-width: 1.5"/>
    <path d="M 493.024126 53.323439 
L 508.149462 75.857419 
" clip-path="url(#p8b25934873)" style="fill: none; stroke: #1f77b4; stroke-opacity: 0.9; stroke-width: 1.5"/>
    <path d="M 493.024126 53.323439 
L 538.400123 75.857419 
" clip-path="url(#p8b25934873)" style="fill: none; stroke: #1f77b4; stroke-opacity: 0.9; stroke-width: 1.5"/>
    <path d="M 508.149462 75.857419 
L 538.400123 75.857419 
" clip-path="url(#p8b25934873)" style="fill: none; stroke: #1f77b4; stroke-opacity: 0.9; stroke-width: 1.5"/>
   </g>
   <g id="PathCollection_1">
    <defs>
     <path id="C0_0_3c6136e5e1" d="M 0 6.123724 
C 1.624031 6.123724 3.181764 5.47849 4.330127 4.330127 
C 5.47849 3.181764 6.123724 1.624031 6.123724 -0 
C 6.123724 -1.624031 5.47849 -3.181764 4.330127 -4.330127 
C 3.181764 -5.47849 1.624031 -6.123724 0 -6.123724 
C -1.624031 -6.123724 -3.181764 -5.47849 -4.330127 -4.330127 
C -5.47849 -3.181764 -6.123724 -1.624031 -6.123724 0 
C -6.123724 1.624031 -5.47849 3.181764 -4.330127 4.330127 
C -3.181764 5.47849 -1.624031 6.123724 0 6.123724 
z
"/>
    </defs>
    <g clip-path="url(#p8b25934873)">
     <use xlink:href="#C0_0_3c6136e5e1" x="553.525458" y="53.323437" style="fill: #1f77b4; fill-opacity: 0.9; stroke: #1f77b4; stroke-opacity: 0.9; stroke-width: 2"/>
    </g>
    <g clip-path="url(#p8b25934873)">
     <use xlink:href="#C0_0_3c6136e5e1" x="538.400124" y="30.789455" style="fill: #1f77b4; fill-opacity: 0.9; stroke: #1f77b4; stroke-opacity: 0.9; stroke-width: 2"/>
    </g>
    <g clip-path="url(#p8b25934873)">
     <use xlink:href="#C0_0_3c6136e5e1" x="508.149457" y="30.789457" style="fill: #1f77b4; fill-opacity: 0.9; stroke: #1f77b4; stroke-opacity: 0.9; stroke-width: 2"/>
    </g>
    <g clip-path="url(#p8b25934873)">
     <use xlink:href="#C0_0_3c6136e5e1" x="493.024126" y="53.323439" style="fill: #ffffff; fill-opacity: 0.9; stroke: #1f77b4; stroke-opacity: 0.9; stroke-width: 2"/>
    </g>
    <g clip-path="url(#p8b25934873)">
     <use xlink:href="#C0_0_3c6136e5e1" x="508.149462" y="75.857419" style="fill: #ffffff; fill-opacity: 0.9; stroke: #1f77b4; stroke-opacity: 0.9; stroke-width: 2"/>
    </g>
    <g clip-path="url(#p8b25934873)">
     <use xlink:href="#C0_0_3c6136e5e1" x="538.400123" y="75.857419" style="fill: #ffffff; fill-opacity: 0.9; stroke: #1f77b4; stroke-opacity: 0.9; stroke-width: 2"/>
    </g>
   </g>
   <g id="text_20">
    <g clip-path="url(#p8b25934873)">
     <!-- H -->
     <g style="opacity: 0.9" transform="translate(550.177958 55.530937) scale(0.08 -0.08)">
      <defs>
       <path id="DejaVuSans-Bold-48" d="M 588 4666 
L 1791 4666 
L 1791 2888 
L 3566 2888 
L 3566 4666 
L 4769 4666 
L 4769 0 
L 3566 0 
L 3566 1978 
L 1791 1978 
L 1791 0 
L 588 0 
L 588 4666 
z
" transform="scale(0.015625)"/>
      </defs>
      <use xlink:href="#DejaVuSans-Bold-48"/>
     </g>
    </g>
   </g>
   <g id="text_21">
    <g clip-path="url(#p8b25934873)">
     <!-- H -->
     <g style="opacity: 0.9" transform="translate(535.052624 32.996955) scale(0.08 -0.08)">
      <use xlink:href="#DejaVuSans-Bold-48"/>
     </g>
    </g>
   </g>
   <g id="text_22">
    <g clip-path="url(#p8b25934873)">
     <!-- H -->
     <g style="opacity: 0.9" transform="translate(504.801957 32.996957) scale(0.08 -0.08)">
      <use xlink:href="#DejaVuSans-Bold-48"/>
     </g>
    </g>
   </g>
   <g id="text_23">
    <g clip-path="url(#p8b25934873)">
     <!-- L -->
     <g style="opacity: 0.9" transform="translate(490.475376 55.530939) scale(0.08 -0.08)">
      <defs>
       <path id="DejaVuSans-Bold-4c" d="M 588 4666 
L 1791 4666 
L 1791 909 
L 3903 909 
L 3903 0 
L 588 0 
L 588 4666 
z
" transform="scale(0.015625)"/>
      </defs>
      <use xlink:href="#DejaVuSans-Bold-4c"/>
     </g>
    </g>
   </g>
   <g id="text_24">
    <g clip-path="url(#p8b25934873)">
     <!-- L -->
     <g style="opacity: 0.9" transform="translate(505.600712 78.064919) scale(0.08 -0.08)">
      <use xlink:href="#DejaVuSans-Bold-4c"/>
     </g>
    </g>
   </g>
   <g id="text_25">
    <g clip-path="url(#p8b25934873)">
     <!-- L -->
     <g style="opacity: 0.9" transform="translate(535.851373 78.064919) scale(0.08 -0.08)">
      <use xlink:href="#DejaVuSans-Bold-4c"/>
     </g>
    </g>
   </g>
   <g id="text_26">
    <!-- Network Structure -->
    <g transform="translate(477.552917 14.798437) scale(0.1 -0.1)">
     <defs>
      <path id="DejaVuSans-77" d="M 269 3500 
L 844 3500 
L 1563 769 
L 2278 3500 
L 2956 3500 
L 3675 769 
L 4391 3500 
L 4966 3500 
L 4050 0 
L 3372 0 
L 2619 2869 
L 1863 0 
L 1184 0 
L 269 3500 
z
" transform="scale(0.015625)"/>
      <path id="DejaVuSans-6b" d="M 581 4863 
L 1159 4863 
L 1159 1991 
L 2875 3500 
L 3609 3500 
L 1753 1863 
L 3688 0 
L 2938 0 
L 1159 1709 
L 1159 0 
L 581 0 
L 581 4863 
z
" transform="scale(0.015625)"/>
      <path id="DejaVuSans-75" d="M 544 1381 
L 544 3500 
L 1119 3500 
L 1119 1403 
Q 1119 906 1312 657 
Q 1506 409 1894 409 
Q 2359 409 2629 706 
Q 2900 1003 2900 1516 
L 2900 3500 
L 3475 3500 
L 3475 0 
L 2900 0 
L 2900 538 
Q 2691 219 2414 64 
Q 2138 -91 1772 -91 
Q 1169 -91 856 284 
Q 544 659 544 1381 
z
M 1991 3584 
L 1991 3584 
z
" transform="scale(0.015625)"/>
     </defs>
     <use xlink:href="#DejaVuSans-4e"/>
     <use xlink:href="#DejaVuSans-65" x="74.804688"/>
     <use xlink:href="#DejaVuSans-74" x="136.328125"/>
     <use xlink:href="#DejaVuSans-77" x="175.537109"/>
     <use xlink:href="#DejaVuSans-6f" x="257.324219"/>
     <use xlink:href="#DejaVuSans-72" x="318.505859"/>
     <use xlink:href="#DejaVuSans-6b" x="359.619141"/>
     <use xlink:href="#DejaVuSans-20" x="417.529297"/>
     <use xlink:href="#DejaVuSans-53" x="449.316406"/>
     <use xlink:href="#DejaVuSans-74" x="512.792969"/>
     <use xlink:href="#DejaVuSans-72" x="552.001953"/>
     <use xlink:href="#DejaVuSans-75" x="593.115234"/>
     <use xlink:href="#DejaVuSans-63" x="656.494141"/>
     <use xlink:href="#DejaVuSans-74" x="711.474609"/>
     <use xlink:href="#DejaVuSans-75" x="750.683594"/>
     <use xlink:href="#DejaVuSans-72" x="814.0625"/>
     <use xlink:href="#DejaVuSans-65" x="852.925781"/>
    </g>
   </g>
  </g>
  <g id="axes_3">
   <g id="LineCollection_2">
    <path d="M 553.525458 129.173437 
L 538.400124 106.639455 
" clip-path="url(#p8578d01d95)" style="fill: none; stroke: #ff7f0e; stroke-opacity: 0.9; stroke-width: 1.5"/>
    <path d="M 553.525458 129.173437 
L 508.149457 106.639457 
" clip-path="url(#p8578d01d95)" style="fill: none; stroke: #ff7f0e; stroke-opacity: 0.9; stroke-width: 1.5"/>
    <path d="M 553.525458 129.173437 
L 493.024126 129.173439 
" clip-path="url(#p8578d01d95)" style="fill: none; stroke: #ff7f0e; stroke-opacity: 0.9; stroke-width: 1.5"/>
    <path d="M 553.525458 129.173437 
L 508.149462 151.707419 
" clip-path="url(#p8578d01d95)" style="fill: none; stroke: #ff7f0e; stroke-opacity: 0.9; stroke-width: 1.5"/>
    <path d="M 553.525458 129.173437 
L 538.400123 151.707419 
" clip-path="url(#p8578d01d95)" style="fill: none; stroke: #ff7f0e; stroke-opacity: 0.9; stroke-width: 1.5"/>
    <path d="M 538.400124 106.639455 
L 508.149457 106.639457 
" clip-path="url(#p8578d01d95)" style="fill: none; stroke: #ff7f0e; stroke-opacity: 0.9; stroke-width: 1.5"/>
    <path d="M 493.024126 129.173439 
L 508.149462 151.707419 
" clip-path="url(#p8578d01d95)" style="fill: none; stroke: #ff7f0e; stroke-opacity: 0.9; stroke-width: 1.5"/>
    <path d="M 493.024126 129.173439 
L 538.400123 151.707419 
" clip-path="url(#p8578d01d95)" style="fill: none; stroke: #ff7f0e; stroke-opacity: 0.9; stroke-width: 1.5"/>
    <path d="M 508.149462 151.707419 
L 538.400123 151.707419 
" clip-path="url(#p8578d01d95)" style="fill: none; stroke: #ff7f0e; stroke-opacity: 0.9; stroke-width: 1.5"/>
   </g>
   <g id="PathCollection_2">
    <defs>
     <path id="C1_0_76e86d9304" d="M 0 6.123724 
C 1.624031 6.123724 3.181764 5.47849 4.330127 4.330127 
C 5.47849 3.181764 6.123724 1.624031 6.123724 -0 
C 6.123724 -1.624031 5.47849 -3.181764 4.330127 -4.330127 
C 3.181764 -5.47849 1.624031 -6.123724 0 -6.123724 
C -1.624031 -6.123724 -3.181764 -5.47849 -4.330127 -4.330127 
C -5.47849 -3.181764 -6.123724 -1.624031 -6.123724 0 
C -6.123724 1.624031 -5.47849 3.181764 -4.330127 4.330127 
C -3.181764 5.47849 -1.624031 6.123724 0 6.123724 
z
"/>
    </defs>
    <g clip-path="url(#p8578d01d95)">
     <use xlink:href="#C1_0_76e86d9304" x="553.525458" y="129.173437" style="fill: #ff7f0e; fill-opacity: 0.9; stroke: #ff7f0e; stroke-opacity: 0.9; stroke-width: 2"/>
    </g>
    <g clip-path="url(#p8578d01d95)">
     <use xlink:href="#C1_0_76e86d9304" x="538.400124" y="106.639455" style="fill: #ff7f0e; fill-opacity: 0.9; stroke: #ff7f0e; stroke-opacity: 0.9; stroke-width: 2"/>
    </g>
    <g clip-path="url(#p8578d01d95)">
     <use xlink:href="#C1_0_76e86d9304" x="508.149457" y="106.639457" style="fill: #ff7f0e; fill-opacity: 0.9; stroke: #ff7f0e; stroke-opacity: 0.9; stroke-width: 2"/>
    </g>
    <g clip-path="url(#p8578d01d95)">
     <use xlink:href="#C1_0_76e86d9304" x="493.024126" y="129.173439" style="fill: #ffffff; fill-opacity: 0.9; stroke: #ff7f0e; stroke-opacity: 0.9; stroke-width: 2"/>
    </g>
    <g clip-path="url(#p8578d01d95)">
     <use xlink:href="#C1_0_76e86d9304" x="508.149462" y="151.707419" style="fill: #ffffff; fill-opacity: 0.9; stroke: #ff7f0e; stroke-opacity: 0.9; stroke-width: 2"/>
    </g>
    <g clip-path="url(#p8578d01d95)">
     <use xlink:href="#C1_0_76e86d9304" x="538.400123" y="151.707419" style="fill: #ffffff; fill-opacity: 0.9; stroke: #ff7f0e; stroke-opacity: 0.9; stroke-width: 2"/>
    </g>
   </g>
   <g id="text_27">
    <g clip-path="url(#p8578d01d95)">
     <!-- H -->
     <g style="opacity: 0.9" transform="translate(550.177958 131.380937) scale(0.08 -0.08)">
      <use xlink:href="#DejaVuSans-Bold-48"/>
     </g>
    </g>
   </g>
   <g id="text_28">
    <g clip-path="url(#p8578d01d95)">
     <!-- H -->
     <g style="opacity: 0.9" transform="translate(535.052624 108.846955) scale(0.08 -0.08)">
      <use xlink:href="#DejaVuSans-Bold-48"/>
     </g>
    </g>
   </g>
   <g id="text_29">
    <g clip-path="url(#p8578d01d95)">
     <!-- H -->
     <g style="opacity: 0.9" transform="translate(504.801957 108.846957) scale(0.08 -0.08)">
      <use xlink:href="#DejaVuSans-Bold-48"/>
     </g>
    </g>
   </g>
   <g id="text_30">
    <g clip-path="url(#p8578d01d95)">
     <!-- L -->
     <g style="opacity: 0.9" transform="translate(490.475376 131.380939) scale(0.08 -0.08)">
      <use xlink:href="#DejaVuSans-Bold-4c"/>
     </g>
    </g>
   </g>
   <g id="text_31">
    <g clip-path="url(#p8578d01d95)">
     <!-- L -->
     <g style="opacity: 0.9" transform="translate(505.600712 153.914919) scale(0.08 -0.08)">
      <use xlink:href="#DejaVuSans-Bold-4c"/>
     </g>
    </g>
   </g>
   <g id="text_32">
    <g clip-path="url(#p8578d01d95)">
     <!-- L -->
     <g style="opacity: 0.9" transform="translate(535.851373 153.914919) scale(0.08 -0.08)">
      <use xlink:href="#DejaVuSans-Bold-4c"/>
     </g>
    </g>
   </g>
  </g>
  <g id="axes_4">
   <g id="LineCollection_3">
    <path d="M 553.525458 205.023437 
L 538.400124 182.489455 
" clip-path="url(#p9870b631dc)" style="fill: none; stroke: #2ca02c; stroke-opacity: 0.9; stroke-width: 1.5"/>
    <path d="M 553.525458 205.023437 
L 508.149457 182.489457 
" clip-path="url(#p9870b631dc)" style="fill: none; stroke: #2ca02c; stroke-opacity: 0.9; stroke-width: 1.5"/>
    <path d="M 553.525458 205.023437 
L 493.024126 205.023439 
" clip-path="url(#p9870b631dc)" style="fill: none; stroke: #2ca02c; stroke-opacity: 0.9; stroke-width: 1.5"/>
    <path d="M 553.525458 205.023437 
L 508.149462 227.557419 
" clip-path="url(#p9870b631dc)" style="fill: none; stroke: #2ca02c; stroke-opacity: 0.9; stroke-width: 1.5"/>
    <path d="M 553.525458 205.023437 
L 538.400123 227.557419 
" clip-path="url(#p9870b631dc)" style="fill: none; stroke: #2ca02c; stroke-opacity: 0.9; stroke-width: 1.5"/>
    <path d="M 538.400124 182.489455 
L 508.149457 182.489457 
" clip-path="url(#p9870b631dc)" style="fill: none; stroke: #2ca02c; stroke-opacity: 0.9; stroke-width: 1.5"/>
    <path d="M 538.400124 182.489455 
L 493.024126 205.023439 
" clip-path="url(#p9870b631dc)" style="fill: none; stroke: #2ca02c; stroke-opacity: 0.9; stroke-width: 1.5"/>
    <path d="M 538.400124 182.489455 
L 508.149462 227.557419 
" clip-path="url(#p9870b631dc)" style="fill: none; stroke: #2ca02c; stroke-opacity: 0.9; stroke-width: 1.5"/>
    <path d="M 538.400124 182.489455 
L 538.400123 227.557419 
" clip-path="url(#p9870b631dc)" style="fill: none; stroke: #2ca02c; stroke-opacity: 0.9; stroke-width: 1.5"/>
    <path d="M 493.024126 205.023439 
L 508.149462 227.557419 
" clip-path="url(#p9870b631dc)" style="fill: none; stroke: #2ca02c; stroke-opacity: 0.9; stroke-width: 1.5"/>
    <path d="M 493.024126 205.023439 
L 538.400123 227.557419 
" clip-path="url(#p9870b631dc)" style="fill: none; stroke: #2ca02c; stroke-opacity: 0.9; stroke-width: 1.5"/>
    <path d="M 508.149462 227.557419 
L 538.400123 227.557419 
" clip-path="url(#p9870b631dc)" style="fill: none; stroke: #2ca02c; stroke-opacity: 0.9; stroke-width: 1.5"/>
   </g>
   <g id="PathCollection_3">
    <defs>
     <path id="C2_0_852966a479" d="M 0 6.123724 
C 1.624031 6.123724 3.181764 5.47849 4.330127 4.330127 
C 5.47849 3.181764 6.123724 1.624031 6.123724 -0 
C 6.123724 -1.624031 5.47849 -3.181764 4.330127 -4.330127 
C 3.181764 -5.47849 1.624031 -6.123724 0 -6.123724 
C -1.624031 -6.123724 -3.181764 -5.47849 -4.330127 -4.330127 
C -5.47849 -3.181764 -6.123724 -1.624031 -6.123724 0 
C -6.123724 1.624031 -5.47849 3.181764 -4.330127 4.330127 
C -3.181764 5.47849 -1.624031 6.123724 0 6.123724 
z
"/>
    </defs>
    <g clip-path="url(#p9870b631dc)">
     <use xlink:href="#C2_0_852966a479" x="553.525458" y="205.023437" style="fill: #2ca02c; fill-opacity: 0.9; stroke: #2ca02c; stroke-opacity: 0.9; stroke-width: 2"/>
    </g>
    <g clip-path="url(#p9870b631dc)">
     <use xlink:href="#C2_0_852966a479" x="538.400124" y="182.489455" style="fill: #2ca02c; fill-opacity: 0.9; stroke: #2ca02c; stroke-opacity: 0.9; stroke-width: 2"/>
    </g>
    <g clip-path="url(#p9870b631dc)">
     <use xlink:href="#C2_0_852966a479" x="508.149457" y="182.489457" style="fill: #2ca02c; fill-opacity: 0.9; stroke: #2ca02c; stroke-opacity: 0.9; stroke-width: 2"/>
    </g>
    <g clip-path="url(#p9870b631dc)">
     <use xlink:href="#C2_0_852966a479" x="493.024126" y="205.023439" style="fill: #ffffff; fill-opacity: 0.9; stroke: #2ca02c; stroke-opacity: 0.9; stroke-width: 2"/>
    </g>
    <g clip-path="url(#p9870b631dc)">
     <use xlink:href="#C2_0_852966a479" x="508.149462" y="227.557419" style="fill: #ffffff; fill-opacity: 0.9; stroke: #2ca02c; stroke-opacity: 0.9; stroke-width: 2"/>
    </g>
    <g clip-path="url(#p9870b631dc)">
     <use xlink:href="#C2_0_852966a479" x="538.400123" y="227.557419" style="fill: #ffffff; fill-opacity: 0.9; stroke: #2ca02c; stroke-opacity: 0.9; stroke-width: 2"/>
    </g>
   </g>
   <g id="text_33">
    <g clip-path="url(#p9870b631dc)">
     <!-- H -->
     <g style="opacity: 0.9" transform="translate(550.177958 207.230937) scale(0.08 -0.08)">
      <use xlink:href="#DejaVuSans-Bold-48"/>
     </g>
    </g>
   </g>
   <g id="text_34">
    <g clip-path="url(#p9870b631dc)">
     <!-- H -->
     <g style="opacity: 0.9" transform="translate(535.052624 184.696955) scale(0.08 -0.08)">
      <use xlink:href="#DejaVuSans-Bold-48"/>
     </g>
    </g>
   </g>
   <g id="text_35">
    <g clip-path="url(#p9870b631dc)">
     <!-- H -->
     <g style="opacity: 0.9" transform="translate(504.801957 184.696957) scale(0.08 -0.08)">
      <use xlink:href="#DejaVuSans-Bold-48"/>
     </g>
    </g>
   </g>
   <g id="text_36">
    <g clip-path="url(#p9870b631dc)">
     <!-- L -->
     <g style="opacity: 0.9" transform="translate(490.475376 207.230939) scale(0.08 -0.08)">
      <use xlink:href="#DejaVuSans-Bold-4c"/>
     </g>
    </g>
   </g>
   <g id="text_37">
    <g clip-path="url(#p9870b631dc)">
     <!-- L -->
     <g style="opacity: 0.9" transform="translate(505.600712 229.764919) scale(0.08 -0.08)">
      <use xlink:href="#DejaVuSans-Bold-4c"/>
     </g>
    </g>
   </g>
   <g id="text_38">
    <g clip-path="url(#p9870b631dc)">
     <!-- L -->
     <g style="opacity: 0.9" transform="translate(535.851373 229.764919) scale(0.08 -0.08)">
      <use xlink:href="#DejaVuSans-Bold-4c"/>
     </g>
    </g>
   </g>
  </g>
  <g id="axes_5">
   <g id="LineCollection_4">
    <path d="M 553.525458 280.873437 
L 538.400124 258.339455 
" clip-path="url(#p0c4e0c96ed)" style="fill: none; stroke: #d62728; stroke-opacity: 0.9; stroke-width: 1.5"/>
    <path d="M 553.525458 280.873437 
L 508.149457 258.339457 
" clip-path="url(#p0c4e0c96ed)" style="fill: none; stroke: #d62728; stroke-opacity: 0.9; stroke-width: 1.5"/>
    <path d="M 553.525458 280.873437 
L 493.024126 280.873439 
" clip-path="url(#p0c4e0c96ed)" style="fill: none; stroke: #d62728; stroke-opacity: 0.9; stroke-width: 1.5"/>
    <path d="M 553.525458 280.873437 
L 508.149462 303.407419 
" clip-path="url(#p0c4e0c96ed)" style="fill: none; stroke: #d62728; stroke-opacity: 0.9; stroke-width: 1.5"/>
    <path d="M 553.525458 280.873437 
L 538.400123 303.407419 
" clip-path="url(#p0c4e0c96ed)" style="fill: none; stroke: #d62728; stroke-opacity: 0.9; stroke-width: 1.5"/>
    <path d="M 538.400124 258.339455 
L 508.149457 258.339457 
" clip-path="url(#p0c4e0c96ed)" style="fill: none; stroke: #d62728; stroke-opacity: 0.9; stroke-width: 1.5"/>
    <path d="M 538.400124 258.339455 
L 493.024126 280.873439 
" clip-path="url(#p0c4e0c96ed)" style="fill: none; stroke: #d62728; stroke-opacity: 0.9; stroke-width: 1.5"/>
    <path d="M 538.400124 258.339455 
L 508.149462 303.407419 
" clip-path="url(#p0c4e0c96ed)" style="fill: none; stroke: #d62728; stroke-opacity: 0.9; stroke-width: 1.5"/>
    <path d="M 538.400124 258.339455 
L 538.400123 303.407419 
" clip-path="url(#p0c4e0c96ed)" style="fill: none; stroke: #d62728; stroke-opacity: 0.9; stroke-width: 1.5"/>
    <path d="M 508.149457 258.339457 
L 493.024126 280.873439 
" clip-path="url(#p0c4e0c96ed)" style="fill: none; stroke: #d62728; stroke-opacity: 0.9; stroke-width: 1.5"/>
    <path d="M 508.149457 258.339457 
L 508.149462 303.407419 
" clip-path="url(#p0c4e0c96ed)" style="fill: none; stroke: #d62728; stroke-opacity: 0.9; stroke-width: 1.5"/>
    <path d="M 508.149457 258.339457 
L 538.400123 303.407419 
" clip-path="url(#p0c4e0c96ed)" style="fill: none; stroke: #d62728; stroke-opacity: 0.9; stroke-width: 1.5"/>
    <path d="M 493.024126 280.873439 
L 508.149462 303.407419 
" clip-path="url(#p0c4e0c96ed)" style="fill: none; stroke: #d62728; stroke-opacity: 0.9; stroke-width: 1.5"/>
    <path d="M 493.024126 280.873439 
L 538.400123 303.407419 
" clip-path="url(#p0c4e0c96ed)" style="fill: none; stroke: #d62728; stroke-opacity: 0.9; stroke-width: 1.5"/>
    <path d="M 508.149462 303.407419 
L 538.400123 303.407419 
" clip-path="url(#p0c4e0c96ed)" style="fill: none; stroke: #d62728; stroke-opacity: 0.9; stroke-width: 1.5"/>
   </g>
   <g id="PathCollection_4">
    <defs>
     <path id="C3_0_8c8e1f8f35" d="M 0 6.123724 
C 1.624031 6.123724 3.181764 5.47849 4.330127 4.330127 
C 5.47849 3.181764 6.123724 1.624031 6.123724 -0 
C 6.123724 -1.624031 5.47849 -3.181764 4.330127 -4.330127 
C 3.181764 -5.47849 1.624031 -6.123724 0 -6.123724 
C -1.624031 -6.123724 -3.181764 -5.47849 -4.330127 -4.330127 
C -5.47849 -3.181764 -6.123724 -1.624031 -6.123724 0 
C -6.123724 1.624031 -5.47849 3.181764 -4.330127 4.330127 
C -3.181764 5.47849 -1.624031 6.123724 0 6.123724 
z
"/>
    </defs>
    <g clip-path="url(#p0c4e0c96ed)">
     <use xlink:href="#C3_0_8c8e1f8f35" x="553.525458" y="280.873437" style="fill: #d62728; fill-opacity: 0.9; stroke: #d62728; stroke-opacity: 0.9; stroke-width: 2"/>
    </g>
    <g clip-path="url(#p0c4e0c96ed)">
     <use xlink:href="#C3_0_8c8e1f8f35" x="538.400124" y="258.339455" style="fill: #d62728; fill-opacity: 0.9; stroke: #d62728; stroke-opacity: 0.9; stroke-width: 2"/>
    </g>
    <g clip-path="url(#p0c4e0c96ed)">
     <use xlink:href="#C3_0_8c8e1f8f35" x="508.149457" y="258.339457" style="fill: #d62728; fill-opacity: 0.9; stroke: #d62728; stroke-opacity: 0.9; stroke-width: 2"/>
    </g>
    <g clip-path="url(#p0c4e0c96ed)">
     <use xlink:href="#C3_0_8c8e1f8f35" x="493.024126" y="280.873439" style="fill: #ffffff; fill-opacity: 0.9; stroke: #d62728; stroke-opacity: 0.9; stroke-width: 2"/>
    </g>
    <g clip-path="url(#p0c4e0c96ed)">
     <use xlink:href="#C3_0_8c8e1f8f35" x="508.149462" y="303.407419" style="fill: #ffffff; fill-opacity: 0.9; stroke: #d62728; stroke-opacity: 0.9; stroke-width: 2"/>
    </g>
    <g clip-path="url(#p0c4e0c96ed)">
     <use xlink:href="#C3_0_8c8e1f8f35" x="538.400123" y="303.407419" style="fill: #ffffff; fill-opacity: 0.9; stroke: #d62728; stroke-opacity: 0.9; stroke-width: 2"/>
    </g>
   </g>
   <g id="text_39">
    <g clip-path="url(#p0c4e0c96ed)">
     <!-- H -->
     <g style="opacity: 0.9" transform="translate(550.177958 283.080937) scale(0.08 -0.08)">
      <use xlink:href="#DejaVuSans-Bold-48"/>
     </g>
    </g>
   </g>
   <g id="text_40">
    <g clip-path="url(#p0c4e0c96ed)">
     <!-- H -->
     <g style="opacity: 0.9" transform="translate(535.052624 260.546955) scale(0.08 -0.08)">
      <use xlink:href="#DejaVuSans-Bold-48"/>
     </g>
    </g>
   </g>
   <g id="text_41">
    <g clip-path="url(#p0c4e0c96ed)">
     <!-- H -->
     <g style="opacity: 0.9" transform="translate(504.801957 260.546957) scale(0.08 -0.08)">
      <use xlink:href="#DejaVuSans-Bold-48"/>
     </g>
    </g>
   </g>
   <g id="text_42">
    <g clip-path="url(#p0c4e0c96ed)">
     <!-- L -->
     <g style="opacity: 0.9" transform="translate(490.475376 283.080939) scale(0.08 -0.08)">
      <use xlink:href="#DejaVuSans-Bold-4c"/>
     </g>
    </g>
   </g>
   <g id="text_43">
    <g clip-path="url(#p0c4e0c96ed)">
     <!-- L -->
     <g style="opacity: 0.9" transform="translate(505.600712 305.614919) scale(0.08 -0.08)">
      <use xlink:href="#DejaVuSans-Bold-4c"/>
     </g>
    </g>
   </g>
   <g id="text_44">
    <g clip-path="url(#p0c4e0c96ed)">
     <!-- L -->
     <g style="opacity: 0.9" transform="translate(535.851373 305.614919) scale(0.08 -0.08)">
      <use xlink:href="#DejaVuSans-Bold-4c"/>
     </g>
    </g>
   </g>
  </g>
 </g>
 <defs>
  <clipPath id="p74b5ebcab1">
   <rect x="53.328125" y="20.798438" width="421.333333" height="292.6"/>
  </clipPath>
  <clipPath id="p8b25934873">
   <rect x="485.461458" y="20.798437" width="75.626667" height="65.05"/>
  </clipPath>
  <clipPath id="p8578d01d95">
   <rect x="485.461458" y="96.648438" width="75.626667" height="65.05"/>
  </clipPath>
  <clipPath id="p9870b631dc">
   <rect x="485.461458" y="172.498438" width="75.626667" height="65.05"/>
  </clipPath>
  <clipPath id="p0c4e0c96ed">
   <rect x="485.461458" y="248.348438" width="75.626667" height="65.05"/>
  </clipPath>
 </defs>
</svg>
