<?xml version="1.0" encoding="utf-8" standalone="no"?>
<!DOCTYPE svg PUBLIC "-//W3C//DTD SVG 1.1//EN"
  "http://www.w3.org/Graphics/SVG/1.1/DTD/svg11.dtd">
<svg xmlns:xlink="http://www.w3.org/1999/xlink" width="691.135pt" height="283.628428pt" viewBox="0 0 691.135 283.628428" xmlns="http://www.w3.org/2000/svg" version="1.1">
 <metadata>
  <rdf:RDF xmlns:dc="http://purl.org/dc/elements/1.1/" xmlns:cc="http://creativecommons.org/ns#" xmlns:rdf="http://www.w3.org/1999/02/22-rdf-syntax-ns#">
   <cc:Work>
    <dc:type rdf:resource="http://purl.org/dc/dcmitype/StillImage"/>
    <dc:date>2025-11-22T16:20:08.121178</dc:date>
    <dc:format>image/svg+xml</dc:format>
    <dc:creator>
     <cc:Agent>
      <dc:title>Matplotlib v3.10.7, https://matplotlib.org/</dc:title>
     </cc:Agent>
    </dc:creator>
   </cc:Work>
  </rdf:RDF>
 </metadata>
 <defs>
  <style type="text/css">*{stroke-linejoin: round; stroke-linecap: butt}</style>
 </defs>
 <g id="figure_1">
  <g id="patch_1">
   <path d="M 0 283.628428 
L 691.135 283.628428 
L 691.135 0 
L 0 0 
z
" style="fill: #ffffff"/>
  </g>
  <g id="axes_1">
   <g id="patch_2">
    <path d="M 50.14375 246.072178 
L 538.39375 246.072178 
L 538.39375 24.312178 
L 50.14375 24.312178 
z
" style="fill: #ffffff"/>
   </g>
   <g id="FillBetweenPolyCollection_1"/>
   <g id="FillBetweenPolyCollection_2"/>
   <g id="FillBetweenPolyCollection_3"/>
   <g id="FillBetweenPolyCollection_4"/>
   <g id="FillBetweenPolyCollection_5"/>
   <g id="FillBetweenPolyCollection_6"/>
   <g id="FillBetweenPolyCollection_7"/>
   <g id="FillBetweenPolyCollection_8"/>
   <g id="FillBetweenPolyCollection_9">
    <defs>
     <path id="m034aa3bdfc" d="M 337.762925 -37.55625 
L 244.083163 -37.55625 
L 244.083163 -259.31625 
L 337.762925 -259.31625 
L 337.762925 -259.31625 
L 337.762925 -37.55625 
z
" style="stroke: #7f7f7f; stroke-opacity: 0.05"/>
    </defs>
    <g clip-path="url(#pf04846b793)">
     <use xlink:href="#m034aa3bdfc" x="0" y="283.628428" style="fill: #7f7f7f; fill-opacity: 0.05; stroke: #7f7f7f; stroke-opacity: 0.05"/>
    </g>
   </g>
   <g id="matplotlib.axis_1">
    <g id="xtick_1">
     <g id="line2d_1">
      <defs>
       <path id="m3f2a7ef366" d="M 0 0 
L 0 3.5 
" style="stroke: #000000; stroke-width: 0.8"/>
      </defs>
      <g>
       <use xlink:href="#m3f2a7ef366" x="71.892624" y="246.072178" style="stroke: #000000; stroke-width: 0.8"/>
      </g>
     </g>
     <g id="text_1">
      <!-- 0.0 -->
      <g transform="translate(63.941061 260.670616) scale(0.1 -0.1)">
       <defs>
        <path id="DejaVuSans-30" d="M 2034 4250 
Q 1547 4250 1301 3770 
Q 1056 3291 1056 2328 
Q 1056 1369 1301 889 
Q 1547 409 2034 409 
Q 2525 409 2770 889 
Q 3016 1369 3016 2328 
Q 3016 3291 2770 3770 
Q 2525 4250 2034 4250 
z
M 2034 4750 
Q 2819 4750 3233 4129 
Q 3647 3509 3647 2328 
Q 3647 1150 3233 529 
Q 2819 -91 2034 -91 
Q 1250 -91 836 529 
Q 422 1150 422 2328 
Q 422 3509 836 4129 
Q 1250 4750 2034 4750 
z
" transform="scale(0.015625)"/>
        <path id="DejaVuSans-2e" d="M 684 794 
L 1344 794 
L 1344 0 
L 684 0 
L 684 794 
z
" transform="scale(0.015625)"/>
       </defs>
       <use xlink:href="#DejaVuSans-30"/>
       <use xlink:href="#DejaVuSans-2e" transform="translate(63.623047 0)"/>
       <use xlink:href="#DejaVuSans-30" transform="translate(95.410156 0)"/>
      </g>
     </g>
    </g>
    <g id="xtick_2">
     <g id="line2d_2">
      <g>
       <use xlink:href="#m3f2a7ef366" x="160.754213" y="246.072178" style="stroke: #000000; stroke-width: 0.8"/>
      </g>
     </g>
     <g id="text_2">
      <!-- 0.2 -->
      <g transform="translate(152.80265 260.670616) scale(0.1 -0.1)">
       <defs>
        <path id="DejaVuSans-32" d="M 1228 531 
L 3431 531 
L 3431 0 
L 469 0 
L 469 531 
Q 828 903 1448 1529 
Q 2069 2156 2228 2338 
Q 2531 2678 2651 2914 
Q 2772 3150 2772 3378 
Q 2772 3750 2511 3984 
Q 2250 4219 1831 4219 
Q 1534 4219 1204 4116 
Q 875 4013 500 3803 
L 500 4441 
Q 881 4594 1212 4672 
Q 1544 4750 1819 4750 
Q 2544 4750 2975 4387 
Q 3406 4025 3406 3419 
Q 3406 3131 3298 2873 
Q 3191 2616 2906 2266 
Q 2828 2175 2409 1742 
Q 1991 1309 1228 531 
z
" transform="scale(0.015625)"/>
       </defs>
       <use xlink:href="#DejaVuSans-30"/>
       <use xlink:href="#DejaVuSans-2e" transform="translate(63.623047 0)"/>
       <use xlink:href="#DejaVuSans-32" transform="translate(95.410156 0)"/>
      </g>
     </g>
    </g>
    <g id="xtick_3">
     <g id="line2d_3">
      <g>
       <use xlink:href="#m3f2a7ef366" x="249.615802" y="246.072178" style="stroke: #000000; stroke-width: 0.8"/>
      </g>
     </g>
     <g id="text_3">
      <!-- 0.4 -->
      <g transform="translate(241.664239 260.670616) scale(0.1 -0.1)">
       <defs>
        <path id="DejaVuSans-34" d="M 2419 4116 
L 825 1625 
L 2419 1625 
L 2419 4116 
z
M 2253 4666 
L 3047 4666 
L 3047 1625 
L 3713 1625 
L 3713 1100 
L 3047 1100 
L 3047 0 
L 2419 0 
L 2419 1100 
L 313 1100 
L 313 1709 
L 2253 4666 
z
" transform="scale(0.015625)"/>
       </defs>
       <use xlink:href="#DejaVuSans-30"/>
       <use xlink:href="#DejaVuSans-2e" transform="translate(63.623047 0)"/>
       <use xlink:href="#DejaVuSans-34" transform="translate(95.410156 0)"/>
      </g>
     </g>
    </g>
    <g id="xtick_4">
     <g id="line2d_4">
      <g>
       <use xlink:href="#m3f2a7ef366" x="338.47739" y="246.072178" style="stroke: #000000; stroke-width: 0.8"/>
      </g>
     </g>
     <g id="text_4">
      <!-- 0.6 -->
      <g transform="translate(330.525828 260.670616) scale(0.1 -0.1)">
       <defs>
        <path id="DejaVuSans-36" d="M 2113 2584 
Q 1688 2584 1439 2293 
Q 1191 2003 1191 1497 
Q 1191 994 1439 701 
Q 1688 409 2113 409 
Q 2538 409 2786 701 
Q 3034 994 3034 1497 
Q 3034 2003 2786 2293 
Q 2538 2584 2113 2584 
z
M 3366 4563 
L 3366 3988 
Q 3128 4100 2886 4159 
Q 2644 4219 2406 4219 
Q 1781 4219 1451 3797 
Q 1122 3375 1075 2522 
Q 1259 2794 1537 2939 
Q 1816 3084 2150 3084 
Q 2853 3084 3261 2657 
Q 3669 2231 3669 1497 
Q 3669 778 3244 343 
Q 2819 -91 2113 -91 
Q 1303 -91 875 529 
Q 447 1150 447 2328 
Q 447 3434 972 4092 
Q 1497 4750 2381 4750 
Q 2619 4750 2861 4703 
Q 3103 4656 3366 4563 
z
" transform="scale(0.015625)"/>
       </defs>
       <use xlink:href="#DejaVuSans-30"/>
       <use xlink:href="#DejaVuSans-2e" transform="translate(63.623047 0)"/>
       <use xlink:href="#DejaVuSans-36" transform="translate(95.410156 0)"/>
      </g>
     </g>
    </g>
    <g id="xtick_5">
     <g id="line2d_5">
      <g>
       <use xlink:href="#m3f2a7ef366" x="427.338979" y="246.072178" style="stroke: #000000; stroke-width: 0.8"/>
      </g>
     </g>
     <g id="text_5">
      <!-- 0.8 -->
      <g transform="translate(419.387417 260.670616) scale(0.1 -0.1)">
       <defs>
        <path id="DejaVuSans-38" d="M 2034 2216 
Q 1584 2216 1326 1975 
Q 1069 1734 1069 1313 
Q 1069 891 1326 650 
Q 1584 409 2034 409 
Q 2484 409 2743 651 
Q 3003 894 3003 1313 
Q 3003 1734 2745 1975 
Q 2488 2216 2034 2216 
z
M 1403 2484 
Q 997 2584 770 2862 
Q 544 3141 544 3541 
Q 544 4100 942 4425 
Q 1341 4750 2034 4750 
Q 2731 4750 3128 4425 
Q 3525 4100 3525 3541 
Q 3525 3141 3298 2862 
Q 3072 2584 2669 2484 
Q 3125 2378 3379 2068 
Q 3634 1759 3634 1313 
Q 3634 634 3220 271 
Q 2806 -91 2034 -91 
Q 1263 -91 848 271 
Q 434 634 434 1313 
Q 434 1759 690 2068 
Q 947 2378 1403 2484 
z
M 1172 3481 
Q 1172 3119 1398 2916 
Q 1625 2713 2034 2713 
Q 2441 2713 2670 2916 
Q 2900 3119 2900 3481 
Q 2900 3844 2670 4047 
Q 2441 4250 2034 4250 
Q 1625 4250 1398 4047 
Q 1172 3844 1172 3481 
z
" transform="scale(0.015625)"/>
       </defs>
       <use xlink:href="#DejaVuSans-30"/>
       <use xlink:href="#DejaVuSans-2e" transform="translate(63.623047 0)"/>
       <use xlink:href="#DejaVuSans-38" transform="translate(95.410156 0)"/>
      </g>
     </g>
    </g>
    <g id="xtick_6">
     <g id="line2d_6">
      <g>
       <use xlink:href="#m3f2a7ef366" x="516.200568" y="246.072178" style="stroke: #000000; stroke-width: 0.8"/>
      </g>
     </g>
     <g id="text_6">
      <!-- 1.0 -->
      <g transform="translate(508.249006 260.670616) scale(0.1 -0.1)">
       <defs>
        <path id="DejaVuSans-31" d="M 794 531 
L 1825 531 
L 1825 4091 
L 703 3866 
L 703 4441 
L 1819 4666 
L 2450 4666 
L 2450 531 
L 3481 531 
L 3481 0 
L 794 0 
L 794 531 
z
" transform="scale(0.015625)"/>
       </defs>
       <use xlink:href="#DejaVuSans-31"/>
       <use xlink:href="#DejaVuSans-2e" transform="translate(63.623047 0)"/>
       <use xlink:href="#DejaVuSans-30" transform="translate(95.410156 0)"/>
      </g>
     </g>
    </g>
    <g id="text_7">
     <!-- $\theta$ -->
     <g transform="translate(291.16875 274.348741) scale(0.1 -0.1)">
      <defs>
       <path id="DejaVuSans-Oblique-3b8" d="M 2913 2219 
L 925 2219 
Q 791 1284 928 888 
Q 1100 400 1566 400 
Q 2034 400 2391 891 
Q 2703 1322 2913 2219 
z
M 3009 2750 
Q 3094 3638 2984 3950 
Q 2813 4444 2353 4444 
Q 1875 4444 1525 3956 
Q 1250 3563 1034 2750 
L 3009 2750 
z
M 2444 4913 
Q 3194 4913 3494 4250 
Q 3794 3591 3566 2422 
Q 3341 1256 2781 594 
Q 2225 -72 1475 -72 
Q 722 -72 425 594 
Q 128 1256 353 2422 
Q 581 3591 1134 4250 
Q 1691 4913 2444 4913 
z
" transform="scale(0.015625)"/>
      </defs>
      <use xlink:href="#DejaVuSans-Oblique-3b8" transform="translate(0 0.234375)"/>
     </g>
    </g>
   </g>
   <g id="matplotlib.axis_2">
    <g id="ytick_1">
     <g id="line2d_7">
      <defs>
       <path id="m952efe6fbb" d="M 0 0 
L -3.5 0 
" style="stroke: #000000; stroke-width: 0.8"/>
      </defs>
      <g>
       <use xlink:href="#m952efe6fbb" x="50.14375" y="220.525871" style="stroke: #000000; stroke-width: 0.8"/>
      </g>
     </g>
     <g id="text_8">
      <!-- 0.51 -->
      <g transform="translate(20.878125 224.32509) scale(0.1 -0.1)">
       <defs>
        <path id="DejaVuSans-35" d="M 691 4666 
L 3169 4666 
L 3169 4134 
L 1269 4134 
L 1269 2991 
Q 1406 3038 1543 3061 
Q 1681 3084 1819 3084 
Q 2600 3084 3056 2656 
Q 3513 2228 3513 1497 
Q 3513 744 3044 326 
Q 2575 -91 1722 -91 
Q 1428 -91 1123 -41 
Q 819 9 494 109 
L 494 744 
Q 775 591 1075 516 
Q 1375 441 1709 441 
Q 2250 441 2565 725 
Q 2881 1009 2881 1497 
Q 2881 1984 2565 2268 
Q 2250 2553 1709 2553 
Q 1456 2553 1204 2497 
Q 953 2441 691 2322 
L 691 4666 
z
" transform="scale(0.015625)"/>
       </defs>
       <use xlink:href="#DejaVuSans-30"/>
       <use xlink:href="#DejaVuSans-2e" transform="translate(63.623047 0)"/>
       <use xlink:href="#DejaVuSans-35" transform="translate(95.410156 0)"/>
       <use xlink:href="#DejaVuSans-31" transform="translate(159.033203 0)"/>
      </g>
     </g>
    </g>
    <g id="ytick_2">
     <g id="line2d_8">
      <g>
       <use xlink:href="#m952efe6fbb" x="50.14375" y="175.430274" style="stroke: #000000; stroke-width: 0.8"/>
      </g>
     </g>
     <g id="text_9">
      <!-- 0.52 -->
      <g transform="translate(20.878125 179.229493) scale(0.1 -0.1)">
       <use xlink:href="#DejaVuSans-30"/>
       <use xlink:href="#DejaVuSans-2e" transform="translate(63.623047 0)"/>
       <use xlink:href="#DejaVuSans-35" transform="translate(95.410156 0)"/>
       <use xlink:href="#DejaVuSans-32" transform="translate(159.033203 0)"/>
      </g>
     </g>
    </g>
    <g id="ytick_3">
     <g id="line2d_9">
      <g>
       <use xlink:href="#m952efe6fbb" x="50.14375" y="130.334677" style="stroke: #000000; stroke-width: 0.8"/>
      </g>
     </g>
     <g id="text_10">
      <!-- 0.53 -->
      <g transform="translate(20.878125 134.133896) scale(0.1 -0.1)">
       <defs>
        <path id="DejaVuSans-33" d="M 2597 2516 
Q 3050 2419 3304 2112 
Q 3559 1806 3559 1356 
Q 3559 666 3084 287 
Q 2609 -91 1734 -91 
Q 1441 -91 1130 -33 
Q 819 25 488 141 
L 488 750 
Q 750 597 1062 519 
Q 1375 441 1716 441 
Q 2309 441 2620 675 
Q 2931 909 2931 1356 
Q 2931 1769 2642 2001 
Q 2353 2234 1838 2234 
L 1294 2234 
L 1294 2753 
L 1863 2753 
Q 2328 2753 2575 2939 
Q 2822 3125 2822 3475 
Q 2822 3834 2567 4026 
Q 2313 4219 1838 4219 
Q 1578 4219 1281 4162 
Q 984 4106 628 3988 
L 628 4550 
Q 988 4650 1302 4700 
Q 1616 4750 1894 4750 
Q 2613 4750 3031 4423 
Q 3450 4097 3450 3541 
Q 3450 3153 3228 2886 
Q 3006 2619 2597 2516 
z
" transform="scale(0.015625)"/>
       </defs>
       <use xlink:href="#DejaVuSans-30"/>
       <use xlink:href="#DejaVuSans-2e" transform="translate(63.623047 0)"/>
       <use xlink:href="#DejaVuSans-35" transform="translate(95.410156 0)"/>
       <use xlink:href="#DejaVuSans-33" transform="translate(159.033203 0)"/>
      </g>
     </g>
    </g>
    <g id="ytick_4">
     <g id="line2d_10">
      <g>
       <use xlink:href="#m952efe6fbb" x="50.14375" y="85.23908" style="stroke: #000000; stroke-width: 0.8"/>
      </g>
     </g>
     <g id="text_11">
      <!-- 0.54 -->
      <g transform="translate(20.878125 89.038299) scale(0.1 -0.1)">
       <use xlink:href="#DejaVuSans-30"/>
       <use xlink:href="#DejaVuSans-2e" transform="translate(63.623047 0)"/>
       <use xlink:href="#DejaVuSans-35" transform="translate(95.410156 0)"/>
       <use xlink:href="#DejaVuSans-34" transform="translate(159.033203 0)"/>
      </g>
     </g>
    </g>
    <g id="ytick_5">
     <g id="line2d_11">
      <g>
       <use xlink:href="#m952efe6fbb" x="50.14375" y="40.143483" style="stroke: #000000; stroke-width: 0.8"/>
      </g>
     </g>
     <g id="text_12">
      <!-- 0.55 -->
      <g transform="translate(20.878125 43.942702) scale(0.1 -0.1)">
       <use xlink:href="#DejaVuSans-30"/>
       <use xlink:href="#DejaVuSans-2e" transform="translate(63.623047 0)"/>
       <use xlink:href="#DejaVuSans-35" transform="translate(95.410156 0)"/>
       <use xlink:href="#DejaVuSans-35" transform="translate(159.033203 0)"/>
      </g>
     </g>
    </g>
    <g id="text_13">
     <!-- Welfare -->
     <g transform="translate(14.798437 154.151553) rotate(-90) scale(0.1 -0.1)">
      <defs>
       <path id="DejaVuSans-57" d="M 213 4666 
L 850 4666 
L 1831 722 
L 2809 4666 
L 3519 4666 
L 4500 722 
L 5478 4666 
L 6119 4666 
L 4947 0 
L 4153 0 
L 3169 4050 
L 2175 0 
L 1381 0 
L 213 4666 
z
" transform="scale(0.015625)"/>
       <path id="DejaVuSans-65" d="M 3597 1894 
L 3597 1613 
L 953 1613 
Q 991 1019 1311 708 
Q 1631 397 2203 397 
Q 2534 397 2845 478 
Q 3156 559 3463 722 
L 3463 178 
Q 3153 47 2828 -22 
Q 2503 -91 2169 -91 
Q 1331 -91 842 396 
Q 353 884 353 1716 
Q 353 2575 817 3079 
Q 1281 3584 2069 3584 
Q 2775 3584 3186 3129 
Q 3597 2675 3597 1894 
z
M 3022 2063 
Q 3016 2534 2758 2815 
Q 2500 3097 2075 3097 
Q 1594 3097 1305 2825 
Q 1016 2553 972 2059 
L 3022 2063 
z
" transform="scale(0.015625)"/>
       <path id="DejaVuSans-6c" d="M 603 4863 
L 1178 4863 
L 1178 0 
L 603 0 
L 603 4863 
z
" transform="scale(0.015625)"/>
       <path id="DejaVuSans-66" d="M 2375 4863 
L 2375 4384 
L 1825 4384 
Q 1516 4384 1395 4259 
Q 1275 4134 1275 3809 
L 1275 3500 
L 2222 3500 
L 2222 3053 
L 1275 3053 
L 1275 0 
L 697 0 
L 697 3053 
L 147 3053 
L 147 3500 
L 697 3500 
L 697 3744 
Q 697 4328 969 4595 
Q 1241 4863 1831 4863 
L 2375 4863 
z
" transform="scale(0.015625)"/>
       <path id="DejaVuSans-61" d="M 2194 1759 
Q 1497 1759 1228 1600 
Q 959 1441 959 1056 
Q 959 750 1161 570 
Q 1363 391 1709 391 
Q 2188 391 2477 730 
Q 2766 1069 2766 1631 
L 2766 1759 
L 2194 1759 
z
M 3341 1997 
L 3341 0 
L 2766 0 
L 2766 531 
Q 2569 213 2275 61 
Q 1981 -91 1556 -91 
Q 1019 -91 701 211 
Q 384 513 384 1019 
Q 384 1609 779 1909 
Q 1175 2209 1959 2209 
L 2766 2209 
L 2766 2266 
Q 2766 2663 2505 2880 
Q 2244 3097 1772 3097 
Q 1472 3097 1187 3025 
Q 903 2953 641 2809 
L 641 3341 
Q 956 3463 1253 3523 
Q 1550 3584 1831 3584 
Q 2591 3584 2966 3190 
Q 3341 2797 3341 1997 
z
" transform="scale(0.015625)"/>
       <path id="DejaVuSans-72" d="M 2631 2963 
Q 2534 3019 2420 3045 
Q 2306 3072 2169 3072 
Q 1681 3072 1420 2755 
Q 1159 2438 1159 1844 
L 1159 0 
L 581 0 
L 581 3500 
L 1159 3500 
L 1159 2956 
Q 1341 3275 1631 3429 
Q 1922 3584 2338 3584 
Q 2397 3584 2469 3576 
Q 2541 3569 2628 3553 
L 2631 2963 
z
" transform="scale(0.015625)"/>
      </defs>
      <use xlink:href="#DejaVuSans-57"/>
      <use xlink:href="#DejaVuSans-65" transform="translate(93.001953 0)"/>
      <use xlink:href="#DejaVuSans-6c" transform="translate(154.525391 0)"/>
      <use xlink:href="#DejaVuSans-66" transform="translate(182.308594 0)"/>
      <use xlink:href="#DejaVuSans-61" transform="translate(217.513672 0)"/>
      <use xlink:href="#DejaVuSans-72" transform="translate(278.792969 0)"/>
      <use xlink:href="#DejaVuSans-65" transform="translate(317.65625 0)"/>
     </g>
    </g>
   </g>
   <g id="line2d_12">
    <path d="M 72.336932 87.714231 
L 74.567402 87.714132 
L 76.797873 87.713892 
L 79.028343 87.71351 
L 81.258814 87.712986 
L 83.489284 87.712317 
L 85.719755 87.711503 
L 87.950226 87.710541 
L 90.180696 87.709429 
L 92.411167 87.708164 
L 94.641637 87.706743 
L 96.872108 87.705163 
L 99.102578 87.70342 
L 101.333049 87.70151 
L 103.563519 87.699428 
L 105.79399 87.697169 
L 108.02446 87.694729 
L 110.254931 87.692101 
L 112.485401 87.68928 
L 114.715872 87.686259 
L 116.946343 87.683031 
L 119.176813 87.67959 
L 121.407284 87.675928 
L 123.637754 87.672036 
L 125.868225 87.667908 
L 128.098695 87.663533 
L 130.329166 87.658904 
L 132.559636 87.654009 
L 134.790107 87.648841 
L 137.020577 87.643387 
L 139.251048 87.637638 
L 141.481518 87.631582 
L 143.711989 87.625208 
L 145.942459 87.618504 
L 148.17293 87.611457 
L 150.403401 87.604054 
L 152.633871 87.596281 
L 154.864342 87.588126 
L 157.094812 87.579574 
L 159.325283 87.570609 
L 161.555753 87.561217 
L 163.786224 87.551381 
L 166.016694 87.541086 
L 168.247165 87.530315 
L 170.477635 87.51905 
L 172.708106 87.507273 
L 174.938576 87.494967 
L 177.169047 87.482112 
L 179.399517 87.468688 
L 181.629988 87.454677 
L 183.860459 87.440056 
L 186.090929 87.424805 
L 188.3214 87.408901 
L 190.55187 87.392324 
L 192.782341 87.375049 
L 195.012811 87.357052 
L 197.243282 87.33831 
L 199.473752 87.318797 
L 201.704223 87.298488 
L 203.934693 87.277357 
L 206.165164 87.255375 
L 208.395634 87.232516 
L 210.626105 87.208751 
L 212.856575 87.184051 
L 215.087046 87.158385 
L 217.317517 87.131723 
L 219.547987 87.104033 
L 221.778458 87.075283 
L 224.008928 87.045439 
L 226.239399 87.014468 
L 228.469869 86.982333 
L 230.70034 86.949 
L 232.93081 86.914432 
L 235.161281 86.87859 
L 237.391751 86.841437 
L 239.622222 86.802931 
L 241.852692 86.763033 
L 244.083163 86.721702 
L 246.313634 86.678893 
L 248.544104 86.634563 
L 250.774575 86.588668 
L 253.005045 86.541161 
L 255.235516 86.491995 
L 257.465986 86.441122 
L 259.696457 86.388491 
L 261.926927 86.334052 
L 264.157398 86.277753 
L 266.387868 86.219541 
L 268.618339 86.159359 
L 270.848809 86.097154 
L 273.07928 86.032865 
L 275.30975 85.966436 
L 277.540221 85.897804 
L 279.770692 85.826908 
L 282.001162 85.753685 
L 284.231633 85.678069 
L 286.462103 85.599993 
L 288.692574 85.519388 
L 290.923044 85.436185 
L 293.153515 85.350312 
L 295.383985 85.261693 
L 297.614456 85.170254 
L 299.844926 85.075917 
L 302.075397 84.978602 
L 304.305867 84.878228 
L 306.536338 84.77471 
L 308.766808 84.667962 
L 310.997279 84.557898 
L 313.22775 84.444425 
L 315.45822 84.327451 
L 317.688691 84.206882 
L 319.919161 84.082619 
L 322.149632 83.954562 
L 324.380102 83.822609 
L 326.610573 83.686653 
L 328.841043 83.546588 
L 331.071514 83.402302 
L 333.301984 83.253681 
L 335.532455 83.100608 
L 337.762925 82.942962 
" clip-path="url(#pf04846b793)" style="fill: none; stroke: #1f77b4; stroke-width: 2; stroke-linecap: square"/>
   </g>
   <g id="line2d_13">
    <path d="M 339.993396 82.780622 
L 342.223866 82.61346 
L 344.454337 82.441347 
L 346.684808 82.264149 
L 348.915278 82.08173 
L 351.145749 81.893949 
L 353.376219 81.700661 
L 355.60669 81.501719 
L 357.83716 81.29697 
L 360.067631 81.086259 
L 362.298101 80.869424 
L 364.528572 80.6463 
L 366.759042 80.416719 
L 368.989513 80.180505 
L 371.219983 79.93748 
L 373.450454 79.687461 
L 375.680925 79.430257 
L 377.911395 79.165675 
L 380.141866 78.893516 
L 382.372336 78.613573 
L 384.602807 78.325636 
L 386.833277 78.029488 
L 389.063748 77.724905 
L 391.294218 77.411658 
L 393.524689 77.089511 
L 395.755159 76.75822 
L 397.98563 76.417537 
L 400.2161 76.067204 
L 402.446571 75.706956 
L 404.677041 75.336521 
L 406.907512 74.955619 
L 409.137983 74.563961 
L 411.368453 74.161251 
L 413.598924 73.747183 
L 415.829394 73.321441 
L 418.059865 72.883702 
L 420.290335 72.433632 
L 422.520806 71.970887 
L 424.751276 71.495112 
L 426.981747 71.005942 
L 429.212217 70.503002 
L 431.442688 69.985903 
L 433.673158 69.454245 
L 435.903629 68.907617 
L 438.134099 68.345593 
L 440.36457 67.767737 
L 442.595041 67.173595 
L 444.825511 66.562703 
L 447.055982 65.934579 
L 449.286452 65.288727 
L 451.516923 64.624637 
L 453.747393 63.941779 
L 455.977864 63.239608 
L 458.208334 62.517563 
L 460.438805 61.775061 
L 462.669275 61.011503 
L 464.899746 60.22627 
L 467.130216 59.418721 
L 469.360687 58.588194 
L 471.591157 57.734007 
L 473.821628 56.855453 
L 476.052099 55.951803 
L 478.282569 55.022301 
L 480.51304 54.066167 
L 482.74351 53.082595 
L 484.973981 52.070749 
L 487.204451 51.029765 
L 489.434922 49.958751 
L 491.665392 48.856781 
L 493.895863 47.722899 
L 496.126333 46.556112 
L 498.356804 45.355395 
L 500.587274 44.119685 
L 502.817745 42.84788 
L 505.048216 41.53884 
L 507.278686 40.191383 
L 509.509157 38.804282 
L 511.739627 37.376268 
L 513.970098 35.906022 
L 516.200568 34.392178 
" clip-path="url(#pf04846b793)" style="fill: none; stroke-dasharray: 2,2; stroke-dashoffset: 0; stroke: #1f77b4; stroke-width: 2"/>
   </g>
   <g id="line2d_14">
    <path d="M 253.005045 145.115856 
L 255.235516 144.73809 
L 257.465986 144.35453 
L 259.696457 143.965129 
L 261.926927 143.569839 
L 264.157398 143.168613 
L 266.387868 142.761399 
L 268.618339 142.348148 
L 270.848809 141.928809 
L 273.07928 141.503328 
L 275.30975 141.071654 
L 277.540221 140.633731 
L 279.770692 140.189505 
L 282.001162 139.73892 
L 284.231633 139.281919 
L 286.462103 138.818443 
L 288.692574 138.348434 
L 290.923044 137.871831 
L 293.153515 137.388574 
L 295.383985 136.898601 
L 297.614456 136.401848 
L 299.844926 135.89825 
L 302.075397 135.387744 
L 304.305867 134.870262 
L 306.536338 134.345736 
L 308.766808 133.814098 
L 310.997279 133.275278 
L 313.22775 132.729204 
L 315.45822 132.175805 
L 317.688691 131.615006 
L 319.919161 131.046733 
L 322.149632 130.470909 
L 324.380102 129.887458 
" clip-path="url(#pf04846b793)" style="fill: none; stroke: #ff7f0e; stroke-width: 2; stroke-linecap: square"/>
   </g>
   <g id="line2d_15">
    <path d="M 72.336932 159.446565 
L 87.950226 159.340617 
L 103.563519 159.033618 
L 119.176813 158.52392 
L 134.790107 157.808775 
L 150.403401 156.884311 
L 166.016694 155.745485 
L 181.629988 154.386037 
L 197.243282 152.798418 
L 212.856575 150.973709 
L 228.469869 148.901525 
L 241.852692 146.919369 
L 250.774575 145.487875 
L 326.610573 129.296301 
L 337.762925 126.222064 
L 348.915278 122.942559 
L 360.067631 119.446323 
L 371.219983 115.720885 
L 382.372336 111.752674 
L 393.524689 107.526913 
L 404.677041 103.027503 
L 415.829394 98.236896 
L 424.751276 94.181941 
L 433.673158 89.917794 
L 442.595041 85.433073 
L 451.516923 80.715545 
L 460.438805 75.752065 
L 469.360687 70.528488 
L 478.282569 65.029587 
L 487.204451 59.238952 
L 496.126333 53.138886 
L 505.048216 46.710284 
L 513.970098 39.932505 
L 516.200568 38.180923 
L 516.200568 38.180923 
" clip-path="url(#pf04846b793)" style="fill: none; stroke-dasharray: 2,2; stroke-dashoffset: 0; stroke: #ff7f0e; stroke-width: 2"/>
   </g>
   <g id="line2d_16">
    <path d="M 241.852692 189.820241 
L 244.083163 189.391594 
L 246.313634 188.956912 
L 248.544104 188.516178 
L 250.774575 188.069373 
L 253.005045 187.61648 
L 255.235516 187.157479 
L 257.465986 186.692351 
L 259.696457 186.221078 
L 261.926927 185.743639 
L 264.157398 185.260014 
L 266.387868 184.770184 
L 268.618339 184.274128 
L 270.848809 183.771825 
L 273.07928 183.263255 
L 275.30975 182.748395 
L 277.540221 182.227225 
L 279.770692 181.699723 
L 282.001162 181.165866 
L 284.231633 180.625632 
L 286.462103 180.078998 
L 288.692574 179.525941 
L 290.923044 178.966438 
L 293.153515 178.400464 
L 295.383985 177.827997 
L 297.614456 177.249011 
L 299.844926 176.663483 
L 302.075397 176.071386 
L 304.305867 175.472697 
L 306.536338 174.867388 
L 308.766808 174.255435 
L 310.997279 173.636812 
L 313.22775 173.01149 
L 315.45822 172.379445 
L 317.688691 171.740647 
L 319.919161 171.095071 
L 322.149632 170.442688 
L 324.380102 169.78347 
L 326.610573 169.117387 
L 328.841043 168.444412 
L 331.071514 167.764515 
" clip-path="url(#pf04846b793)" style="fill: none; stroke: #2ca02c; stroke-width: 2; stroke-linecap: square"/>
   </g>
   <g id="line2d_17">
    <path d="M 72.336932 205.729152 
L 85.719755 205.625952 
L 99.102578 205.329057 
L 112.485401 204.838046 
L 125.868225 204.152221 
L 139.251048 203.270605 
L 152.633871 202.19194 
L 166.016694 200.914684 
L 179.399517 199.437001 
L 192.782341 197.756763 
L 206.165164 195.871538 
L 219.547987 193.778583 
L 232.93081 191.474837 
L 239.622222 190.242872 
L 333.301984 167.077667 
L 346.684808 162.808886 
L 360.067631 158.281975 
L 373.450454 153.489695 
L 386.833277 148.424289 
L 400.2161 143.07746 
L 411.368453 138.400413 
L 422.520806 133.516331 
L 433.673158 128.419457 
L 444.825511 123.103708 
L 455.977864 117.562665 
L 467.130216 111.789553 
L 478.282569 105.777221 
L 489.434922 99.518124 
L 500.587274 93.004298 
L 511.739627 86.22734 
L 516.200568 83.44091 
L 516.200568 83.44091 
" clip-path="url(#pf04846b793)" style="fill: none; stroke-dasharray: 2,2; stroke-dashoffset: 0; stroke: #2ca02c; stroke-width: 2"/>
   </g>
   <g id="line2d_18">
    <path d="M 244.083163 224.291215 
L 246.313634 223.984894 
L 248.544104 223.674568 
L 250.774575 223.360233 
L 253.005045 223.041888 
L 255.235516 222.71953 
L 257.465986 222.393156 
L 259.696457 222.062763 
L 261.926927 221.72835 
L 264.157398 221.389913 
L 266.387868 221.04745 
L 268.618339 220.700958 
L 270.848809 220.350434 
L 273.07928 219.995876 
L 275.30975 219.63728 
L 277.540221 219.274645 
L 279.770692 218.907966 
L 282.001162 218.537242 
L 284.231633 218.162469 
L 286.462103 217.783644 
L 288.692574 217.400764 
L 290.923044 217.013826 
L 293.153515 216.622828 
L 295.383985 216.227765 
L 297.614456 215.828636 
L 299.844926 215.425436 
L 302.075397 215.018162 
L 304.305867 214.606812 
L 306.536338 214.191382 
L 308.766808 213.771869 
L 310.997279 213.348268 
L 313.22775 212.920578 
L 315.45822 212.488795 
L 317.688691 212.052914 
L 319.919161 211.612934 
L 322.149632 211.168849 
L 324.380102 210.720657 
L 326.610573 210.268355 
L 328.841043 209.811937 
L 331.071514 209.351402 
L 333.301984 208.886744 
L 335.532455 208.417961 
L 337.762925 207.945049 
L 339.993396 207.468004 
L 342.223866 206.986821 
L 344.454337 206.501498 
L 346.684808 206.012031 
L 348.915278 205.518414 
L 351.145749 205.020646 
L 353.376219 204.51872 
L 355.60669 204.012635 
L 357.83716 203.502384 
L 360.067631 202.987965 
L 362.298101 202.469373 
L 364.528572 201.946605 
L 366.759042 201.419655 
L 368.989513 200.88852 
L 371.219983 200.353195 
L 373.450454 199.813676 
L 375.680925 199.269959 
L 377.911395 198.722039 
L 380.141866 198.169912 
L 382.372336 197.613574 
L 384.602807 197.053019 
L 386.833277 196.488245 
L 389.063748 195.919245 
L 391.294218 195.346015 
L 393.524689 194.768551 
L 395.755159 194.186848 
L 397.98563 193.600902 
L 400.2161 193.010707 
L 402.446571 192.416259 
L 404.677041 191.817553 
L 406.907512 191.214584 
L 409.137983 190.607348 
L 411.368453 189.995839 
L 413.598924 189.380052 
L 415.829394 188.759983 
L 418.059865 188.135626 
L 420.290335 187.506977 
L 422.520806 186.874029 
L 424.751276 186.236779 
L 426.981747 185.595221 
L 429.212217 184.94935 
L 431.442688 184.29916 
L 433.673158 183.644646 
L 435.903629 182.985803 
L 438.134099 182.322625 
L 440.36457 181.655108 
L 442.595041 180.983245 
L 444.825511 180.307031 
L 447.055982 179.62646 
L 449.286452 178.941528 
L 451.516923 178.252228 
L 453.747393 177.558556 
L 455.977864 176.860504 
L 458.208334 176.158067 
L 460.438805 175.45124 
L 462.669275 174.740017 
L 464.899746 174.024392 
L 467.130216 173.30436 
L 469.360687 172.579913 
L 471.591157 171.851047 
L 473.821628 171.117755 
L 476.052099 170.380031 
L 478.282569 169.637869 
L 480.51304 168.891264 
L 482.74351 168.140208 
L 484.973981 167.384697 
L 487.204451 166.624722 
L 489.434922 165.860279 
L 491.665392 165.091361 
L 493.895863 164.317961 
L 496.126333 163.540074 
L 498.356804 162.757692 
L 500.587274 161.970809 
L 502.817745 161.17942 
L 505.048216 160.383516 
L 507.278686 159.583092 
L 509.509157 158.778141 
L 511.739627 157.968656 
L 513.970098 157.154631 
L 516.200568 156.336058 
" clip-path="url(#pf04846b793)" style="fill: none; stroke: #d62728; stroke-width: 2; stroke-linecap: square"/>
   </g>
   <g id="line2d_19">
    <path d="M 72.336932 235.992178 
L 74.567402 235.989443 
L 76.797873 235.982797 
L 79.028343 235.972239 
L 81.258814 235.957769 
L 83.489284 235.939388 
L 85.719755 235.917095 
L 87.950226 235.890889 
L 90.180696 235.860772 
L 92.411167 235.826742 
L 94.641637 235.788799 
L 96.872108 235.746943 
L 99.102578 235.701173 
L 101.333049 235.65149 
L 103.563519 235.597893 
L 105.79399 235.540381 
L 108.02446 235.478954 
L 110.254931 235.413612 
L 112.485401 235.344353 
L 114.715872 235.271178 
L 116.946343 235.194086 
L 119.176813 235.113077 
L 121.407284 235.028148 
L 123.637754 234.939301 
L 125.868225 234.846534 
L 128.098695 234.749847 
L 130.329166 234.649239 
L 132.559636 234.544708 
L 134.790107 234.436255 
L 137.020577 234.323878 
L 139.251048 234.207576 
L 141.481518 234.08735 
L 143.711989 233.963196 
L 145.942459 233.835116 
L 148.17293 233.703107 
L 150.403401 233.567168 
L 152.633871 233.427299 
L 154.864342 233.283499 
L 157.094812 233.135766 
L 159.325283 232.984099 
L 161.555753 232.828497 
L 163.786224 232.668959 
L 166.016694 232.505484 
L 168.247165 232.338069 
L 170.477635 232.166715 
L 172.708106 231.991419 
L 174.938576 231.812181 
L 177.169047 231.628998 
L 179.399517 231.441869 
L 181.629988 231.250794 
L 183.860459 231.05577 
L 186.090929 230.856795 
L 188.3214 230.653869 
L 190.55187 230.44699 
L 192.782341 230.236156 
L 195.012811 230.021365 
L 197.243282 229.802616 
L 199.473752 229.579908 
L 201.704223 229.353237 
L 203.934693 229.122603 
L 206.165164 228.888004 
L 208.395634 228.649437 
L 210.626105 228.406901 
L 212.856575 228.160395 
L 215.087046 227.909916 
L 217.317517 227.655462 
L 219.547987 227.397031 
L 221.778458 227.134621 
L 224.008928 226.86823 
L 226.239399 226.597856 
L 228.469869 226.323497 
L 230.70034 226.045151 
L 232.93081 225.762815 
L 235.161281 225.476488 
L 237.391751 225.186166 
L 239.622222 224.891849 
L 241.852692 224.593532 
" clip-path="url(#pf04846b793)" style="fill: none; stroke-dasharray: 2,2; stroke-dashoffset: 0; stroke: #d62728; stroke-width: 2"/>
   </g>
   <g id="line2d_20"/>
   <g id="line2d_21"/>
   <g id="line2d_22"/>
   <g id="line2d_23"/>
   <g id="line2d_24"/>
   <g id="line2d_25"/>
   <g id="line2d_26"/>
   <g id="line2d_27"/>
   <g id="line2d_28">
    <path d="M 244.083163 246.072178 
L 244.083163 24.312178 
" clip-path="url(#pf04846b793)" style="fill: none; stroke-dasharray: 3.7,1.6; stroke-dashoffset: 0; stroke: #000000"/>
   </g>
   <g id="line2d_29">
    <path d="M 337.762925 246.072178 
L 337.762925 24.312178 
" clip-path="url(#pf04846b793)" style="fill: none; stroke-dasharray: 3.7,1.6; stroke-dashoffset: 0; stroke: #000000"/>
   </g>
   <g id="patch_3">
    <path d="M 50.14375 246.072178 
L 50.14375 24.312178 
" style="fill: none; stroke: #000000; stroke-width: 0.8; stroke-linejoin: miter; stroke-linecap: square"/>
   </g>
   <g id="patch_4">
    <path d="M 538.39375 246.072178 
L 538.39375 24.312178 
" style="fill: none; stroke: #000000; stroke-width: 0.8; stroke-linejoin: miter; stroke-linecap: square"/>
   </g>
   <g id="patch_5">
    <path d="M 50.14375 246.072178 
L 538.39375 246.072178 
" style="fill: none; stroke: #000000; stroke-width: 0.8; stroke-linejoin: miter; stroke-linecap: square"/>
   </g>
   <g id="patch_6">
    <path d="M 50.14375 24.312178 
L 538.39375 24.312178 
" style="fill: none; stroke: #000000; stroke-width: 0.8; stroke-linejoin: miter; stroke-linecap: square"/>
   </g>
   <g id="text_14">
    <!-- $\theta$̲ -->
    <g transform="translate(240.363163 16.44) scale(0.12 -0.12)">
     <defs>
      <path id="DejaVuSans-332" d="M 63 -1063 
L 63 -1509 
L -3263 -1509 
L -3263 -1063 
L 63 -1063 
z
" transform="scale(0.015625)"/>
     </defs>
     <use xlink:href="#DejaVuSans-Oblique-3b8" transform="translate(0 0.234375)"/>
     <use xlink:href="#DejaVuSans-332" transform="translate(61.181641 0.234375)"/>
    </g>
   </g>
   <g id="text_15">
    <!-- $\bar{\theta}$ -->
    <g transform="translate(334.042925 16.824375) scale(0.12 -0.12)">
     <defs>
      <path id="DejaVuSans-304" d="M -2518 4769 
L -650 4769 
L -650 4306 
L -2518 4306 
L -2518 4769 
z
" transform="scale(0.015625)"/>
     </defs>
     <use xlink:href="#DejaVuSans-304" transform="translate(62.63916 22.484375)"/>
     <use xlink:href="#DejaVuSans-Oblique-3b8" transform="translate(0 0.5)"/>
    </g>
   </g>
   <g id="legend_1">
    <g id="patch_7">
     <path d="M 57.14375 61.668428 
L 141.51875 61.668428 
Q 143.51875 61.668428 143.51875 59.668428 
L 143.51875 31.312178 
Q 143.51875 29.312178 141.51875 29.312178 
L 57.14375 29.312178 
Q 55.14375 29.312178 55.14375 31.312178 
L 55.14375 59.668428 
Q 55.14375 61.668428 57.14375 61.668428 
z
" style="fill: #ffffff; opacity: 0.8; stroke: #cccccc; stroke-linejoin: miter"/>
    </g>
    <g id="line2d_30">
     <path d="M 59.14375 37.410616 
L 69.14375 37.410616 
L 79.14375 37.410616 
" style="fill: none; stroke: #000000; stroke-width: 1.5; stroke-linecap: square"/>
    </g>
    <g id="text_16">
     <!-- Stable -->
     <g transform="translate(87.14375 40.910616) scale(0.1 -0.1)">
      <defs>
       <path id="DejaVuSans-53" d="M 3425 4513 
L 3425 3897 
Q 3066 4069 2747 4153 
Q 2428 4238 2131 4238 
Q 1616 4238 1336 4038 
Q 1056 3838 1056 3469 
Q 1056 3159 1242 3001 
Q 1428 2844 1947 2747 
L 2328 2669 
Q 3034 2534 3370 2195 
Q 3706 1856 3706 1288 
Q 3706 609 3251 259 
Q 2797 -91 1919 -91 
Q 1588 -91 1214 -16 
Q 841 59 441 206 
L 441 856 
Q 825 641 1194 531 
Q 1563 422 1919 422 
Q 2459 422 2753 634 
Q 3047 847 3047 1241 
Q 3047 1584 2836 1778 
Q 2625 1972 2144 2069 
L 1759 2144 
Q 1053 2284 737 2584 
Q 422 2884 422 3419 
Q 422 4038 858 4394 
Q 1294 4750 2059 4750 
Q 2388 4750 2728 4690 
Q 3069 4631 3425 4513 
z
" transform="scale(0.015625)"/>
       <path id="DejaVuSans-74" d="M 1172 4494 
L 1172 3500 
L 2356 3500 
L 2356 3053 
L 1172 3053 
L 1172 1153 
Q 1172 725 1289 603 
Q 1406 481 1766 481 
L 2356 481 
L 2356 0 
L 1766 0 
Q 1100 0 847 248 
Q 594 497 594 1153 
L 594 3053 
L 172 3053 
L 172 3500 
L 594 3500 
L 594 4494 
L 1172 4494 
z
" transform="scale(0.015625)"/>
       <path id="DejaVuSans-62" d="M 3116 1747 
Q 3116 2381 2855 2742 
Q 2594 3103 2138 3103 
Q 1681 3103 1420 2742 
Q 1159 2381 1159 1747 
Q 1159 1113 1420 752 
Q 1681 391 2138 391 
Q 2594 391 2855 752 
Q 3116 1113 3116 1747 
z
M 1159 2969 
Q 1341 3281 1617 3432 
Q 1894 3584 2278 3584 
Q 2916 3584 3314 3078 
Q 3713 2572 3713 1747 
Q 3713 922 3314 415 
Q 2916 -91 2278 -91 
Q 1894 -91 1617 61 
Q 1341 213 1159 525 
L 1159 0 
L 581 0 
L 581 4863 
L 1159 4863 
L 1159 2969 
z
" transform="scale(0.015625)"/>
      </defs>
      <use xlink:href="#DejaVuSans-53"/>
      <use xlink:href="#DejaVuSans-74" transform="translate(63.476562 0)"/>
      <use xlink:href="#DejaVuSans-61" transform="translate(102.685547 0)"/>
      <use xlink:href="#DejaVuSans-62" transform="translate(163.964844 0)"/>
      <use xlink:href="#DejaVuSans-6c" transform="translate(227.441406 0)"/>
      <use xlink:href="#DejaVuSans-65" transform="translate(255.224609 0)"/>
     </g>
    </g>
    <g id="line2d_31">
     <path d="M 59.14375 52.088741 
L 69.14375 52.088741 
L 79.14375 52.088741 
" style="fill: none; stroke-dasharray: 1,1.65; stroke-dashoffset: 0; stroke: #000000"/>
    </g>
    <g id="text_17">
     <!-- Not Stable -->
     <g transform="translate(87.14375 55.588741) scale(0.1 -0.1)">
      <defs>
       <path id="DejaVuSans-4e" d="M 628 4666 
L 1478 4666 
L 3547 763 
L 3547 4666 
L 4159 4666 
L 4159 0 
L 3309 0 
L 1241 3903 
L 1241 0 
L 628 0 
L 628 4666 
z
" transform="scale(0.015625)"/>
       <path id="DejaVuSans-6f" d="M 1959 3097 
Q 1497 3097 1228 2736 
Q 959 2375 959 1747 
Q 959 1119 1226 758 
Q 1494 397 1959 397 
Q 2419 397 2687 759 
Q 2956 1122 2956 1747 
Q 2956 2369 2687 2733 
Q 2419 3097 1959 3097 
z
M 1959 3584 
Q 2709 3584 3137 3096 
Q 3566 2609 3566 1747 
Q 3566 888 3137 398 
Q 2709 -91 1959 -91 
Q 1206 -91 779 398 
Q 353 888 353 1747 
Q 353 2609 779 3096 
Q 1206 3584 1959 3584 
z
" transform="scale(0.015625)"/>
       <path id="DejaVuSans-20" transform="scale(0.015625)"/>
      </defs>
      <use xlink:href="#DejaVuSans-4e"/>
      <use xlink:href="#DejaVuSans-6f" transform="translate(74.804688 0)"/>
      <use xlink:href="#DejaVuSans-74" transform="translate(135.986328 0)"/>
      <use xlink:href="#DejaVuSans-20" transform="translate(175.195312 0)"/>
      <use xlink:href="#DejaVuSans-53" transform="translate(206.982422 0)"/>
      <use xlink:href="#DejaVuSans-74" transform="translate(270.458984 0)"/>
      <use xlink:href="#DejaVuSans-61" transform="translate(309.667969 0)"/>
      <use xlink:href="#DejaVuSans-62" transform="translate(370.947266 0)"/>
      <use xlink:href="#DejaVuSans-6c" transform="translate(434.423828 0)"/>
      <use xlink:href="#DejaVuSans-65" transform="translate(462.207031 0)"/>
     </g>
    </g>
   </g>
  </g>
  <g id="axes_2">
   <g id="LineCollection_1">
    <path d="M 653.48125 48.416526 
L 653.48125 48.416526 
" clip-path="url(#p05eacebe49)" style="fill: none; stroke: #1f77b4; stroke-opacity: 0.9; stroke-width: 1.5"/>
    <path d="M 653.48125 48.416526 
L 641.274999 33.804041 
" clip-path="url(#p05eacebe49)" style="fill: none; stroke: #1f77b4; stroke-opacity: 0.9; stroke-width: 1.5"/>
    <path d="M 653.48125 48.416526 
L 616.862499 33.804042 
" clip-path="url(#p05eacebe49)" style="fill: none; stroke: #1f77b4; stroke-opacity: 0.9; stroke-width: 1.5"/>
    <path d="M 641.274999 33.804041 
L 641.274999 33.804041 
" clip-path="url(#p05eacebe49)" style="fill: none; stroke: #1f77b4; stroke-opacity: 0.9; stroke-width: 1.5"/>
    <path d="M 641.274999 33.804041 
L 616.862499 33.804042 
" clip-path="url(#p05eacebe49)" style="fill: none; stroke: #1f77b4; stroke-opacity: 0.9; stroke-width: 1.5"/>
    <path d="M 616.862499 33.804042 
L 616.862499 33.804042 
" clip-path="url(#p05eacebe49)" style="fill: none; stroke: #1f77b4; stroke-opacity: 0.9; stroke-width: 1.5"/>
    <path d="M 604.656251 48.416527 
L 604.656251 48.416527 
" clip-path="url(#p05eacebe49)" style="fill: none; stroke: #1f77b4; stroke-opacity: 0.9; stroke-width: 1.5"/>
    <path d="M 604.656251 48.416527 
L 616.862503 63.029011 
" clip-path="url(#p05eacebe49)" style="fill: none; stroke: #1f77b4; stroke-opacity: 0.9; stroke-width: 1.5"/>
    <path d="M 604.656251 48.416527 
L 641.274998 63.029011 
" clip-path="url(#p05eacebe49)" style="fill: none; stroke: #1f77b4; stroke-opacity: 0.9; stroke-width: 1.5"/>
    <path d="M 616.862503 63.029011 
L 616.862503 63.029011 
" clip-path="url(#p05eacebe49)" style="fill: none; stroke: #1f77b4; stroke-opacity: 0.9; stroke-width: 1.5"/>
    <path d="M 616.862503 63.029011 
L 641.274998 63.029011 
" clip-path="url(#p05eacebe49)" style="fill: none; stroke: #1f77b4; stroke-opacity: 0.9; stroke-width: 1.5"/>
    <path d="M 641.274998 63.029011 
L 641.274998 63.029011 
" clip-path="url(#p05eacebe49)" style="fill: none; stroke: #1f77b4; stroke-opacity: 0.9; stroke-width: 1.5"/>
   </g>
   <g id="patch_8">
    <path d="M 653.48125 45.494029 
C 655.595435 45.494029 655.595435 48.416526 653.48125 48.416526 
C 651.367065 48.416526 651.367065 45.494029 653.48125 45.494029 
" clip-path="url(#p05eacebe49)" style="fill: none; stroke: #1f77b4; stroke-opacity: 0.9; stroke-width: 1.5; stroke-linecap: round"/>
   </g>
   <g id="patch_9">
    <path d="M 641.274999 30.881544 
C 643.389184 30.881544 643.389184 33.804041 641.274999 33.804041 
C 639.160815 33.804041 639.160815 30.881544 641.274999 30.881544 
" clip-path="url(#p05eacebe49)" style="fill: none; stroke: #1f77b4; stroke-opacity: 0.9; stroke-width: 1.5; stroke-linecap: round"/>
   </g>
   <g id="patch_10">
    <path d="M 616.862499 30.881545 
C 618.976684 30.881545 618.976684 33.804042 616.862499 33.804042 
C 614.748314 33.804042 614.748314 30.881545 616.862499 30.881545 
" clip-path="url(#p05eacebe49)" style="fill: none; stroke: #1f77b4; stroke-opacity: 0.9; stroke-width: 1.5; stroke-linecap: round"/>
   </g>
   <g id="patch_11">
    <path d="M 604.656251 45.49403 
C 606.770435 45.49403 606.770435 48.416527 604.656251 48.416527 
C 602.542066 48.416527 602.542066 45.49403 604.656251 45.49403 
" clip-path="url(#p05eacebe49)" style="fill: none; stroke: #1f77b4; stroke-opacity: 0.9; stroke-width: 1.5; stroke-linecap: round"/>
   </g>
   <g id="patch_12">
    <path d="M 616.862503 60.106514 
C 618.976687 60.106514 618.976687 63.029011 616.862503 63.029011 
C 614.748318 63.029011 614.748318 60.106514 616.862503 60.106514 
" clip-path="url(#p05eacebe49)" style="fill: none; stroke: #1f77b4; stroke-opacity: 0.9; stroke-width: 1.5; stroke-linecap: round"/>
   </g>
   <g id="patch_13">
    <path d="M 641.274998 60.106514 
C 643.389183 60.106514 643.389183 63.029011 641.274998 63.029011 
C 639.160813 63.029011 639.160813 60.106514 641.274998 60.106514 
" clip-path="url(#p05eacebe49)" style="fill: none; stroke: #1f77b4; stroke-opacity: 0.9; stroke-width: 1.5; stroke-linecap: round"/>
   </g>
   <g id="PathCollection_1">
    <defs>
     <path id="C0_0_5b439b1d70" d="M 0 6.123724 
C 1.624031 6.123724 3.181764 5.47849 4.330127 4.330127 
C 5.47849 3.181764 6.123724 1.624031 6.123724 -0 
C 6.123724 -1.624031 5.47849 -3.181764 4.330127 -4.330127 
C 3.181764 -5.47849 1.624031 -6.123724 0 -6.123724 
C -1.624031 -6.123724 -3.181764 -5.47849 -4.330127 -4.330127 
C -5.47849 -3.181764 -6.123724 -1.624031 -6.123724 0 
C -6.123724 1.624031 -5.47849 3.181764 -4.330127 4.330127 
C -3.181764 5.47849 -1.624031 6.123724 0 6.123724 
z
"/>
    </defs>
    <g clip-path="url(#p05eacebe49)">
     <use xlink:href="#C0_0_5b439b1d70" x="653.48125" y="48.416526" style="fill: #1f77b4; fill-opacity: 0.9; stroke: #1f77b4; stroke-opacity: 0.9; stroke-width: 2"/>
    </g>
    <g clip-path="url(#p05eacebe49)">
     <use xlink:href="#C0_0_5b439b1d70" x="641.274999" y="33.804041" style="fill: #1f77b4; fill-opacity: 0.9; stroke: #1f77b4; stroke-opacity: 0.9; stroke-width: 2"/>
    </g>
    <g clip-path="url(#p05eacebe49)">
     <use xlink:href="#C0_0_5b439b1d70" x="616.862499" y="33.804042" style="fill: #1f77b4; fill-opacity: 0.9; stroke: #1f77b4; stroke-opacity: 0.9; stroke-width: 2"/>
    </g>
    <g clip-path="url(#p05eacebe49)">
     <use xlink:href="#C0_0_5b439b1d70" x="604.656251" y="48.416527" style="fill: #ffffff; fill-opacity: 0.9; stroke: #1f77b4; stroke-opacity: 0.9; stroke-width: 2"/>
    </g>
    <g clip-path="url(#p05eacebe49)">
     <use xlink:href="#C0_0_5b439b1d70" x="616.862503" y="63.029011" style="fill: #ffffff; fill-opacity: 0.9; stroke: #1f77b4; stroke-opacity: 0.9; stroke-width: 2"/>
    </g>
    <g clip-path="url(#p05eacebe49)">
     <use xlink:href="#C0_0_5b439b1d70" x="641.274998" y="63.029011" style="fill: #ffffff; fill-opacity: 0.9; stroke: #1f77b4; stroke-opacity: 0.9; stroke-width: 2"/>
    </g>
   </g>
   <g id="text_18">
    <g clip-path="url(#p05eacebe49)">
     <!-- H -->
     <g style="opacity: 0.9" transform="translate(650.13375 50.624026) scale(0.08 -0.08)">
      <defs>
       <path id="DejaVuSans-Bold-48" d="M 588 4666 
L 1791 4666 
L 1791 2888 
L 3566 2888 
L 3566 4666 
L 4769 4666 
L 4769 0 
L 3566 0 
L 3566 1978 
L 1791 1978 
L 1791 0 
L 588 0 
L 588 4666 
z
" transform="scale(0.015625)"/>
      </defs>
      <use xlink:href="#DejaVuSans-Bold-48"/>
     </g>
    </g>
   </g>
   <g id="text_19">
    <g clip-path="url(#p05eacebe49)">
     <!-- H -->
     <g style="opacity: 0.9" transform="translate(637.927499 36.011541) scale(0.08 -0.08)">
      <use xlink:href="#DejaVuSans-Bold-48"/>
     </g>
    </g>
   </g>
   <g id="text_20">
    <g clip-path="url(#p05eacebe49)">
     <!-- H -->
     <g style="opacity: 0.9" transform="translate(613.514999 36.011542) scale(0.08 -0.08)">
      <use xlink:href="#DejaVuSans-Bold-48"/>
     </g>
    </g>
   </g>
   <g id="text_21">
    <g clip-path="url(#p05eacebe49)">
     <!-- L -->
     <g style="opacity: 0.9" transform="translate(602.107501 50.624027) scale(0.08 -0.08)">
      <defs>
       <path id="DejaVuSans-Bold-4c" d="M 588 4666 
L 1791 4666 
L 1791 909 
L 3903 909 
L 3903 0 
L 588 0 
L 588 4666 
z
" transform="scale(0.015625)"/>
      </defs>
      <use xlink:href="#DejaVuSans-Bold-4c"/>
     </g>
    </g>
   </g>
   <g id="text_22">
    <g clip-path="url(#p05eacebe49)">
     <!-- L -->
     <g style="opacity: 0.9" transform="translate(614.313753 65.236511) scale(0.08 -0.08)">
      <use xlink:href="#DejaVuSans-Bold-4c"/>
     </g>
    </g>
   </g>
   <g id="text_23">
    <g clip-path="url(#p05eacebe49)">
     <!-- L -->
     <g style="opacity: 0.9" transform="translate(638.726248 65.236511) scale(0.08 -0.08)">
      <use xlink:href="#DejaVuSans-Bold-4c"/>
     </g>
    </g>
   </g>
   <g id="text_24">
    <!-- Network Structure -->
    <g transform="translate(574.2025 18.312178) scale(0.12 -0.12)">
     <defs>
      <path id="DejaVuSans-77" d="M 269 3500 
L 844 3500 
L 1563 769 
L 2278 3500 
L 2956 3500 
L 3675 769 
L 4391 3500 
L 4966 3500 
L 4050 0 
L 3372 0 
L 2619 2869 
L 1863 0 
L 1184 0 
L 269 3500 
z
" transform="scale(0.015625)"/>
      <path id="DejaVuSans-6b" d="M 581 4863 
L 1159 4863 
L 1159 1991 
L 2875 3500 
L 3609 3500 
L 1753 1863 
L 3688 0 
L 2938 0 
L 1159 1709 
L 1159 0 
L 581 0 
L 581 4863 
z
" transform="scale(0.015625)"/>
      <path id="DejaVuSans-75" d="M 544 1381 
L 544 3500 
L 1119 3500 
L 1119 1403 
Q 1119 906 1312 657 
Q 1506 409 1894 409 
Q 2359 409 2629 706 
Q 2900 1003 2900 1516 
L 2900 3500 
L 3475 3500 
L 3475 0 
L 2900 0 
L 2900 538 
Q 2691 219 2414 64 
Q 2138 -91 1772 -91 
Q 1169 -91 856 284 
Q 544 659 544 1381 
z
M 1991 3584 
L 1991 3584 
z
" transform="scale(0.015625)"/>
      <path id="DejaVuSans-63" d="M 3122 3366 
L 3122 2828 
Q 2878 2963 2633 3030 
Q 2388 3097 2138 3097 
Q 1578 3097 1268 2742 
Q 959 2388 959 1747 
Q 959 1106 1268 751 
Q 1578 397 2138 397 
Q 2388 397 2633 464 
Q 2878 531 3122 666 
L 3122 134 
Q 2881 22 2623 -34 
Q 2366 -91 2075 -91 
Q 1284 -91 818 406 
Q 353 903 353 1747 
Q 353 2603 823 3093 
Q 1294 3584 2113 3584 
Q 2378 3584 2631 3529 
Q 2884 3475 3122 3366 
z
" transform="scale(0.015625)"/>
     </defs>
     <use xlink:href="#DejaVuSans-4e"/>
     <use xlink:href="#DejaVuSans-65" transform="translate(74.804688 0)"/>
     <use xlink:href="#DejaVuSans-74" transform="translate(136.328125 0)"/>
     <use xlink:href="#DejaVuSans-77" transform="translate(175.537109 0)"/>
     <use xlink:href="#DejaVuSans-6f" transform="translate(257.324219 0)"/>
     <use xlink:href="#DejaVuSans-72" transform="translate(318.505859 0)"/>
     <use xlink:href="#DejaVuSans-6b" transform="translate(359.619141 0)"/>
     <use xlink:href="#DejaVuSans-20" transform="translate(417.529297 0)"/>
     <use xlink:href="#DejaVuSans-53" transform="translate(449.316406 0)"/>
     <use xlink:href="#DejaVuSans-74" transform="translate(512.792969 0)"/>
     <use xlink:href="#DejaVuSans-72" transform="translate(552.001953 0)"/>
     <use xlink:href="#DejaVuSans-75" transform="translate(593.115234 0)"/>
     <use xlink:href="#DejaVuSans-63" transform="translate(656.494141 0)"/>
     <use xlink:href="#DejaVuSans-74" transform="translate(711.474609 0)"/>
     <use xlink:href="#DejaVuSans-75" transform="translate(750.683594 0)"/>
     <use xlink:href="#DejaVuSans-72" transform="translate(814.0625 0)"/>
     <use xlink:href="#DejaVuSans-65" transform="translate(852.925781 0)"/>
    </g>
   </g>
  </g>
  <g id="axes_3">
   <g id="LineCollection_2">
    <path d="M 653.48125 106.26696 
L 653.48125 106.26696 
" clip-path="url(#p8145839c34)" style="fill: none; stroke: #ff7f0e; stroke-opacity: 0.9; stroke-width: 1.5"/>
    <path d="M 653.48125 106.26696 
L 641.274999 91.654476 
" clip-path="url(#p8145839c34)" style="fill: none; stroke: #ff7f0e; stroke-opacity: 0.9; stroke-width: 1.5"/>
    <path d="M 653.48125 106.26696 
L 616.862499 91.654477 
" clip-path="url(#p8145839c34)" style="fill: none; stroke: #ff7f0e; stroke-opacity: 0.9; stroke-width: 1.5"/>
    <path d="M 653.48125 106.26696 
L 604.656251 106.266962 
" clip-path="url(#p8145839c34)" style="fill: none; stroke: #ff7f0e; stroke-opacity: 0.9; stroke-width: 1.5"/>
    <path d="M 653.48125 106.26696 
L 616.862503 120.879445 
" clip-path="url(#p8145839c34)" style="fill: none; stroke: #ff7f0e; stroke-opacity: 0.9; stroke-width: 1.5"/>
    <path d="M 653.48125 106.26696 
L 641.274998 120.879445 
" clip-path="url(#p8145839c34)" style="fill: none; stroke: #ff7f0e; stroke-opacity: 0.9; stroke-width: 1.5"/>
    <path d="M 641.274999 91.654476 
L 641.274999 91.654476 
" clip-path="url(#p8145839c34)" style="fill: none; stroke: #ff7f0e; stroke-opacity: 0.9; stroke-width: 1.5"/>
    <path d="M 641.274999 91.654476 
L 616.862499 91.654477 
" clip-path="url(#p8145839c34)" style="fill: none; stroke: #ff7f0e; stroke-opacity: 0.9; stroke-width: 1.5"/>
    <path d="M 616.862499 91.654477 
L 616.862499 91.654477 
" clip-path="url(#p8145839c34)" style="fill: none; stroke: #ff7f0e; stroke-opacity: 0.9; stroke-width: 1.5"/>
    <path d="M 604.656251 106.266962 
L 604.656251 106.266962 
" clip-path="url(#p8145839c34)" style="fill: none; stroke: #ff7f0e; stroke-opacity: 0.9; stroke-width: 1.5"/>
    <path d="M 604.656251 106.266962 
L 616.862503 120.879445 
" clip-path="url(#p8145839c34)" style="fill: none; stroke: #ff7f0e; stroke-opacity: 0.9; stroke-width: 1.5"/>
    <path d="M 604.656251 106.266962 
L 641.274998 120.879445 
" clip-path="url(#p8145839c34)" style="fill: none; stroke: #ff7f0e; stroke-opacity: 0.9; stroke-width: 1.5"/>
    <path d="M 616.862503 120.879445 
L 616.862503 120.879445 
" clip-path="url(#p8145839c34)" style="fill: none; stroke: #ff7f0e; stroke-opacity: 0.9; stroke-width: 1.5"/>
    <path d="M 616.862503 120.879445 
L 641.274998 120.879445 
" clip-path="url(#p8145839c34)" style="fill: none; stroke: #ff7f0e; stroke-opacity: 0.9; stroke-width: 1.5"/>
    <path d="M 641.274998 120.879445 
L 641.274998 120.879445 
" clip-path="url(#p8145839c34)" style="fill: none; stroke: #ff7f0e; stroke-opacity: 0.9; stroke-width: 1.5"/>
   </g>
   <g id="patch_14">
    <path d="M 653.48125 103.344464 
C 655.595435 103.344464 655.595435 106.26696 653.48125 106.26696 
C 651.367065 106.26696 651.367065 103.344464 653.48125 103.344464 
" clip-path="url(#p8145839c34)" style="fill: none; stroke: #ff7f0e; stroke-opacity: 0.9; stroke-width: 1.5; stroke-linecap: round"/>
   </g>
   <g id="patch_15">
    <path d="M 641.274999 88.731979 
C 643.389184 88.731979 643.389184 91.654476 641.274999 91.654476 
C 639.160815 91.654476 639.160815 88.731979 641.274999 88.731979 
" clip-path="url(#p8145839c34)" style="fill: none; stroke: #ff7f0e; stroke-opacity: 0.9; stroke-width: 1.5; stroke-linecap: round"/>
   </g>
   <g id="patch_16">
    <path d="M 616.862499 88.73198 
C 618.976684 88.73198 618.976684 91.654477 616.862499 91.654477 
C 614.748314 91.654477 614.748314 88.73198 616.862499 88.73198 
" clip-path="url(#p8145839c34)" style="fill: none; stroke: #ff7f0e; stroke-opacity: 0.9; stroke-width: 1.5; stroke-linecap: round"/>
   </g>
   <g id="patch_17">
    <path d="M 604.656251 103.344465 
C 606.770435 103.344465 606.770435 106.266962 604.656251 106.266962 
C 602.542066 106.266962 602.542066 103.344465 604.656251 103.344465 
" clip-path="url(#p8145839c34)" style="fill: none; stroke: #ff7f0e; stroke-opacity: 0.9; stroke-width: 1.5; stroke-linecap: round"/>
   </g>
   <g id="patch_18">
    <path d="M 616.862503 117.956948 
C 618.976687 117.956948 618.976687 120.879445 616.862503 120.879445 
C 614.748318 120.879445 614.748318 117.956948 616.862503 117.956948 
" clip-path="url(#p8145839c34)" style="fill: none; stroke: #ff7f0e; stroke-opacity: 0.9; stroke-width: 1.5; stroke-linecap: round"/>
   </g>
   <g id="patch_19">
    <path d="M 641.274998 117.956948 
C 643.389183 117.956948 643.389183 120.879445 641.274998 120.879445 
C 639.160813 120.879445 639.160813 117.956948 641.274998 117.956948 
" clip-path="url(#p8145839c34)" style="fill: none; stroke: #ff7f0e; stroke-opacity: 0.9; stroke-width: 1.5; stroke-linecap: round"/>
   </g>
   <g id="PathCollection_2">
    <defs>
     <path id="C1_0_ddd8667c0e" d="M 0 6.123724 
C 1.624031 6.123724 3.181764 5.47849 4.330127 4.330127 
C 5.47849 3.181764 6.123724 1.624031 6.123724 -0 
C 6.123724 -1.624031 5.47849 -3.181764 4.330127 -4.330127 
C 3.181764 -5.47849 1.624031 -6.123724 0 -6.123724 
C -1.624031 -6.123724 -3.181764 -5.47849 -4.330127 -4.330127 
C -5.47849 -3.181764 -6.123724 -1.624031 -6.123724 0 
C -6.123724 1.624031 -5.47849 3.181764 -4.330127 4.330127 
C -3.181764 5.47849 -1.624031 6.123724 0 6.123724 
z
"/>
    </defs>
    <g clip-path="url(#p8145839c34)">
     <use xlink:href="#C1_0_ddd8667c0e" x="653.48125" y="106.26696" style="fill: #ff7f0e; fill-opacity: 0.9; stroke: #ff7f0e; stroke-opacity: 0.9; stroke-width: 2"/>
    </g>
    <g clip-path="url(#p8145839c34)">
     <use xlink:href="#C1_0_ddd8667c0e" x="641.274999" y="91.654476" style="fill: #ff7f0e; fill-opacity: 0.9; stroke: #ff7f0e; stroke-opacity: 0.9; stroke-width: 2"/>
    </g>
    <g clip-path="url(#p8145839c34)">
     <use xlink:href="#C1_0_ddd8667c0e" x="616.862499" y="91.654477" style="fill: #ff7f0e; fill-opacity: 0.9; stroke: #ff7f0e; stroke-opacity: 0.9; stroke-width: 2"/>
    </g>
    <g clip-path="url(#p8145839c34)">
     <use xlink:href="#C1_0_ddd8667c0e" x="604.656251" y="106.266962" style="fill: #ffffff; fill-opacity: 0.9; stroke: #ff7f0e; stroke-opacity: 0.9; stroke-width: 2"/>
    </g>
    <g clip-path="url(#p8145839c34)">
     <use xlink:href="#C1_0_ddd8667c0e" x="616.862503" y="120.879445" style="fill: #ffffff; fill-opacity: 0.9; stroke: #ff7f0e; stroke-opacity: 0.9; stroke-width: 2"/>
    </g>
    <g clip-path="url(#p8145839c34)">
     <use xlink:href="#C1_0_ddd8667c0e" x="641.274998" y="120.879445" style="fill: #ffffff; fill-opacity: 0.9; stroke: #ff7f0e; stroke-opacity: 0.9; stroke-width: 2"/>
    </g>
   </g>
   <g id="text_25">
    <g clip-path="url(#p8145839c34)">
     <!-- H -->
     <g style="opacity: 0.9" transform="translate(650.13375 108.47446) scale(0.08 -0.08)">
      <use xlink:href="#DejaVuSans-Bold-48"/>
     </g>
    </g>
   </g>
   <g id="text_26">
    <g clip-path="url(#p8145839c34)">
     <!-- H -->
     <g style="opacity: 0.9" transform="translate(637.927499 93.861976) scale(0.08 -0.08)">
      <use xlink:href="#DejaVuSans-Bold-48"/>
     </g>
    </g>
   </g>
   <g id="text_27">
    <g clip-path="url(#p8145839c34)">
     <!-- H -->
     <g style="opacity: 0.9" transform="translate(613.514999 93.861977) scale(0.08 -0.08)">
      <use xlink:href="#DejaVuSans-Bold-48"/>
     </g>
    </g>
   </g>
   <g id="text_28">
    <g clip-path="url(#p8145839c34)">
     <!-- L -->
     <g style="opacity: 0.9" transform="translate(602.107501 108.474462) scale(0.08 -0.08)">
      <use xlink:href="#DejaVuSans-Bold-4c"/>
     </g>
    </g>
   </g>
   <g id="text_29">
    <g clip-path="url(#p8145839c34)">
     <!-- L -->
     <g style="opacity: 0.9" transform="translate(614.313753 123.086945) scale(0.08 -0.08)">
      <use xlink:href="#DejaVuSans-Bold-4c"/>
     </g>
    </g>
   </g>
   <g id="text_30">
    <g clip-path="url(#p8145839c34)">
     <!-- L -->
     <g style="opacity: 0.9" transform="translate(638.726248 123.086945) scale(0.08 -0.08)">
      <use xlink:href="#DejaVuSans-Bold-4c"/>
     </g>
    </g>
   </g>
  </g>
  <g id="axes_4">
   <g id="LineCollection_3">
    <path d="M 653.48125 164.117395 
L 653.48125 164.117395 
" clip-path="url(#pcfc72afe95)" style="fill: none; stroke: #2ca02c; stroke-opacity: 0.9; stroke-width: 1.5"/>
    <path d="M 653.48125 164.117395 
L 641.274999 149.50491 
" clip-path="url(#pcfc72afe95)" style="fill: none; stroke: #2ca02c; stroke-opacity: 0.9; stroke-width: 1.5"/>
    <path d="M 653.48125 164.117395 
L 616.862499 149.504911 
" clip-path="url(#pcfc72afe95)" style="fill: none; stroke: #2ca02c; stroke-opacity: 0.9; stroke-width: 1.5"/>
    <path d="M 653.48125 164.117395 
L 604.656251 164.117397 
" clip-path="url(#pcfc72afe95)" style="fill: none; stroke: #2ca02c; stroke-opacity: 0.9; stroke-width: 1.5"/>
    <path d="M 653.48125 164.117395 
L 616.862503 178.72988 
" clip-path="url(#pcfc72afe95)" style="fill: none; stroke: #2ca02c; stroke-opacity: 0.9; stroke-width: 1.5"/>
    <path d="M 653.48125 164.117395 
L 641.274998 178.72988 
" clip-path="url(#pcfc72afe95)" style="fill: none; stroke: #2ca02c; stroke-opacity: 0.9; stroke-width: 1.5"/>
    <path d="M 641.274999 149.50491 
L 641.274999 149.50491 
" clip-path="url(#pcfc72afe95)" style="fill: none; stroke: #2ca02c; stroke-opacity: 0.9; stroke-width: 1.5"/>
    <path d="M 641.274999 149.50491 
L 616.862499 149.504911 
" clip-path="url(#pcfc72afe95)" style="fill: none; stroke: #2ca02c; stroke-opacity: 0.9; stroke-width: 1.5"/>
    <path d="M 641.274999 149.50491 
L 604.656251 164.117397 
" clip-path="url(#pcfc72afe95)" style="fill: none; stroke: #2ca02c; stroke-opacity: 0.9; stroke-width: 1.5"/>
    <path d="M 641.274999 149.50491 
L 616.862503 178.72988 
" clip-path="url(#pcfc72afe95)" style="fill: none; stroke: #2ca02c; stroke-opacity: 0.9; stroke-width: 1.5"/>
    <path d="M 641.274999 149.50491 
L 641.274998 178.72988 
" clip-path="url(#pcfc72afe95)" style="fill: none; stroke: #2ca02c; stroke-opacity: 0.9; stroke-width: 1.5"/>
    <path d="M 616.862499 149.504911 
L 616.862499 149.504911 
" clip-path="url(#pcfc72afe95)" style="fill: none; stroke: #2ca02c; stroke-opacity: 0.9; stroke-width: 1.5"/>
    <path d="M 604.656251 164.117397 
L 604.656251 164.117397 
" clip-path="url(#pcfc72afe95)" style="fill: none; stroke: #2ca02c; stroke-opacity: 0.9; stroke-width: 1.5"/>
    <path d="M 604.656251 164.117397 
L 616.862503 178.72988 
" clip-path="url(#pcfc72afe95)" style="fill: none; stroke: #2ca02c; stroke-opacity: 0.9; stroke-width: 1.5"/>
    <path d="M 604.656251 164.117397 
L 641.274998 178.72988 
" clip-path="url(#pcfc72afe95)" style="fill: none; stroke: #2ca02c; stroke-opacity: 0.9; stroke-width: 1.5"/>
    <path d="M 616.862503 178.72988 
L 616.862503 178.72988 
" clip-path="url(#pcfc72afe95)" style="fill: none; stroke: #2ca02c; stroke-opacity: 0.9; stroke-width: 1.5"/>
    <path d="M 616.862503 178.72988 
L 641.274998 178.72988 
" clip-path="url(#pcfc72afe95)" style="fill: none; stroke: #2ca02c; stroke-opacity: 0.9; stroke-width: 1.5"/>
    <path d="M 641.274998 178.72988 
L 641.274998 178.72988 
" clip-path="url(#pcfc72afe95)" style="fill: none; stroke: #2ca02c; stroke-opacity: 0.9; stroke-width: 1.5"/>
   </g>
   <g id="patch_20">
    <path d="M 653.48125 161.194898 
C 655.595435 161.194898 655.595435 164.117395 653.48125 164.117395 
C 651.367065 164.117395 651.367065 161.194898 653.48125 161.194898 
" clip-path="url(#pcfc72afe95)" style="fill: none; stroke: #2ca02c; stroke-opacity: 0.9; stroke-width: 1.5; stroke-linecap: round"/>
   </g>
   <g id="patch_21">
    <path d="M 641.274999 146.582413 
C 643.389184 146.582413 643.389184 149.50491 641.274999 149.50491 
C 639.160815 149.50491 639.160815 146.582413 641.274999 146.582413 
" clip-path="url(#pcfc72afe95)" style="fill: none; stroke: #2ca02c; stroke-opacity: 0.9; stroke-width: 1.5; stroke-linecap: round"/>
   </g>
   <g id="patch_22">
    <path d="M 616.862499 146.582414 
C 618.976684 146.582414 618.976684 149.504911 616.862499 149.504911 
C 614.748314 149.504911 614.748314 146.582414 616.862499 146.582414 
" clip-path="url(#pcfc72afe95)" style="fill: none; stroke: #2ca02c; stroke-opacity: 0.9; stroke-width: 1.5; stroke-linecap: round"/>
   </g>
   <g id="patch_23">
    <path d="M 604.656251 161.1949 
C 606.770435 161.1949 606.770435 164.117397 604.656251 164.117397 
C 602.542066 164.117397 602.542066 161.1949 604.656251 161.1949 
" clip-path="url(#pcfc72afe95)" style="fill: none; stroke: #2ca02c; stroke-opacity: 0.9; stroke-width: 1.5; stroke-linecap: round"/>
   </g>
   <g id="patch_24">
    <path d="M 616.862503 175.807383 
C 618.976687 175.807383 618.976687 178.72988 616.862503 178.72988 
C 614.748318 178.72988 614.748318 175.807383 616.862503 175.807383 
" clip-path="url(#pcfc72afe95)" style="fill: none; stroke: #2ca02c; stroke-opacity: 0.9; stroke-width: 1.5; stroke-linecap: round"/>
   </g>
   <g id="patch_25">
    <path d="M 641.274998 175.807383 
C 643.389183 175.807383 643.389183 178.72988 641.274998 178.72988 
C 639.160813 178.72988 639.160813 175.807383 641.274998 175.807383 
" clip-path="url(#pcfc72afe95)" style="fill: none; stroke: #2ca02c; stroke-opacity: 0.9; stroke-width: 1.5; stroke-linecap: round"/>
   </g>
   <g id="PathCollection_3">
    <defs>
     <path id="C2_0_61418e817b" d="M 0 6.123724 
C 1.624031 6.123724 3.181764 5.47849 4.330127 4.330127 
C 5.47849 3.181764 6.123724 1.624031 6.123724 -0 
C 6.123724 -1.624031 5.47849 -3.181764 4.330127 -4.330127 
C 3.181764 -5.47849 1.624031 -6.123724 0 -6.123724 
C -1.624031 -6.123724 -3.181764 -5.47849 -4.330127 -4.330127 
C -5.47849 -3.181764 -6.123724 -1.624031 -6.123724 0 
C -6.123724 1.624031 -5.47849 3.181764 -4.330127 4.330127 
C -3.181764 5.47849 -1.624031 6.123724 0 6.123724 
z
"/>
    </defs>
    <g clip-path="url(#pcfc72afe95)">
     <use xlink:href="#C2_0_61418e817b" x="653.48125" y="164.117395" style="fill: #2ca02c; fill-opacity: 0.9; stroke: #2ca02c; stroke-opacity: 0.9; stroke-width: 2"/>
    </g>
    <g clip-path="url(#pcfc72afe95)">
     <use xlink:href="#C2_0_61418e817b" x="641.274999" y="149.50491" style="fill: #2ca02c; fill-opacity: 0.9; stroke: #2ca02c; stroke-opacity: 0.9; stroke-width: 2"/>
    </g>
    <g clip-path="url(#pcfc72afe95)">
     <use xlink:href="#C2_0_61418e817b" x="616.862499" y="149.504911" style="fill: #2ca02c; fill-opacity: 0.9; stroke: #2ca02c; stroke-opacity: 0.9; stroke-width: 2"/>
    </g>
    <g clip-path="url(#pcfc72afe95)">
     <use xlink:href="#C2_0_61418e817b" x="604.656251" y="164.117397" style="fill: #ffffff; fill-opacity: 0.9; stroke: #2ca02c; stroke-opacity: 0.9; stroke-width: 2"/>
    </g>
    <g clip-path="url(#pcfc72afe95)">
     <use xlink:href="#C2_0_61418e817b" x="616.862503" y="178.72988" style="fill: #ffffff; fill-opacity: 0.9; stroke: #2ca02c; stroke-opacity: 0.9; stroke-width: 2"/>
    </g>
    <g clip-path="url(#pcfc72afe95)">
     <use xlink:href="#C2_0_61418e817b" x="641.274998" y="178.72988" style="fill: #ffffff; fill-opacity: 0.9; stroke: #2ca02c; stroke-opacity: 0.9; stroke-width: 2"/>
    </g>
   </g>
   <g id="text_31">
    <g clip-path="url(#pcfc72afe95)">
     <!-- H -->
     <g style="opacity: 0.9" transform="translate(650.13375 166.324895) scale(0.08 -0.08)">
      <use xlink:href="#DejaVuSans-Bold-48"/>
     </g>
    </g>
   </g>
   <g id="text_32">
    <g clip-path="url(#pcfc72afe95)">
     <!-- H -->
     <g style="opacity: 0.9" transform="translate(637.927499 151.71241) scale(0.08 -0.08)">
      <use xlink:href="#DejaVuSans-Bold-48"/>
     </g>
    </g>
   </g>
   <g id="text_33">
    <g clip-path="url(#pcfc72afe95)">
     <!-- H -->
     <g style="opacity: 0.9" transform="translate(613.514999 151.712411) scale(0.08 -0.08)">
      <use xlink:href="#DejaVuSans-Bold-48"/>
     </g>
    </g>
   </g>
   <g id="text_34">
    <g clip-path="url(#pcfc72afe95)">
     <!-- L -->
     <g style="opacity: 0.9" transform="translate(602.107501 166.324897) scale(0.08 -0.08)">
      <use xlink:href="#DejaVuSans-Bold-4c"/>
     </g>
    </g>
   </g>
   <g id="text_35">
    <g clip-path="url(#pcfc72afe95)">
     <!-- L -->
     <g style="opacity: 0.9" transform="translate(614.313753 180.93738) scale(0.08 -0.08)">
      <use xlink:href="#DejaVuSans-Bold-4c"/>
     </g>
    </g>
   </g>
   <g id="text_36">
    <g clip-path="url(#pcfc72afe95)">
     <!-- L -->
     <g style="opacity: 0.9" transform="translate(638.726248 180.93738) scale(0.08 -0.08)">
      <use xlink:href="#DejaVuSans-Bold-4c"/>
     </g>
    </g>
   </g>
  </g>
  <g id="axes_5">
   <g id="LineCollection_4">
    <path d="M 653.48125 221.96783 
L 653.48125 221.96783 
" clip-path="url(#pf9116a78f7)" style="fill: none; stroke: #d62728; stroke-opacity: 0.9; stroke-width: 1.5"/>
    <path d="M 653.48125 221.96783 
L 641.274999 207.355345 
" clip-path="url(#pf9116a78f7)" style="fill: none; stroke: #d62728; stroke-opacity: 0.9; stroke-width: 1.5"/>
    <path d="M 653.48125 221.96783 
L 616.862499 207.355346 
" clip-path="url(#pf9116a78f7)" style="fill: none; stroke: #d62728; stroke-opacity: 0.9; stroke-width: 1.5"/>
    <path d="M 653.48125 221.96783 
L 604.656251 221.967832 
" clip-path="url(#pf9116a78f7)" style="fill: none; stroke: #d62728; stroke-opacity: 0.9; stroke-width: 1.5"/>
    <path d="M 653.48125 221.96783 
L 616.862503 236.580315 
" clip-path="url(#pf9116a78f7)" style="fill: none; stroke: #d62728; stroke-opacity: 0.9; stroke-width: 1.5"/>
    <path d="M 653.48125 221.96783 
L 641.274998 236.580315 
" clip-path="url(#pf9116a78f7)" style="fill: none; stroke: #d62728; stroke-opacity: 0.9; stroke-width: 1.5"/>
    <path d="M 641.274999 207.355345 
L 641.274999 207.355345 
" clip-path="url(#pf9116a78f7)" style="fill: none; stroke: #d62728; stroke-opacity: 0.9; stroke-width: 1.5"/>
    <path d="M 641.274999 207.355345 
L 616.862499 207.355346 
" clip-path="url(#pf9116a78f7)" style="fill: none; stroke: #d62728; stroke-opacity: 0.9; stroke-width: 1.5"/>
    <path d="M 641.274999 207.355345 
L 604.656251 221.967832 
" clip-path="url(#pf9116a78f7)" style="fill: none; stroke: #d62728; stroke-opacity: 0.9; stroke-width: 1.5"/>
    <path d="M 641.274999 207.355345 
L 616.862503 236.580315 
" clip-path="url(#pf9116a78f7)" style="fill: none; stroke: #d62728; stroke-opacity: 0.9; stroke-width: 1.5"/>
    <path d="M 641.274999 207.355345 
L 641.274998 236.580315 
" clip-path="url(#pf9116a78f7)" style="fill: none; stroke: #d62728; stroke-opacity: 0.9; stroke-width: 1.5"/>
    <path d="M 616.862499 207.355346 
L 616.862499 207.355346 
" clip-path="url(#pf9116a78f7)" style="fill: none; stroke: #d62728; stroke-opacity: 0.9; stroke-width: 1.5"/>
    <path d="M 616.862499 207.355346 
L 604.656251 221.967832 
" clip-path="url(#pf9116a78f7)" style="fill: none; stroke: #d62728; stroke-opacity: 0.9; stroke-width: 1.5"/>
    <path d="M 616.862499 207.355346 
L 616.862503 236.580315 
" clip-path="url(#pf9116a78f7)" style="fill: none; stroke: #d62728; stroke-opacity: 0.9; stroke-width: 1.5"/>
    <path d="M 616.862499 207.355346 
L 641.274998 236.580315 
" clip-path="url(#pf9116a78f7)" style="fill: none; stroke: #d62728; stroke-opacity: 0.9; stroke-width: 1.5"/>
    <path d="M 604.656251 221.967832 
L 604.656251 221.967832 
" clip-path="url(#pf9116a78f7)" style="fill: none; stroke: #d62728; stroke-opacity: 0.9; stroke-width: 1.5"/>
    <path d="M 604.656251 221.967832 
L 616.862503 236.580315 
" clip-path="url(#pf9116a78f7)" style="fill: none; stroke: #d62728; stroke-opacity: 0.9; stroke-width: 1.5"/>
    <path d="M 604.656251 221.967832 
L 641.274998 236.580315 
" clip-path="url(#pf9116a78f7)" style="fill: none; stroke: #d62728; stroke-opacity: 0.9; stroke-width: 1.5"/>
    <path d="M 616.862503 236.580315 
L 616.862503 236.580315 
" clip-path="url(#pf9116a78f7)" style="fill: none; stroke: #d62728; stroke-opacity: 0.9; stroke-width: 1.5"/>
    <path d="M 616.862503 236.580315 
L 641.274998 236.580315 
" clip-path="url(#pf9116a78f7)" style="fill: none; stroke: #d62728; stroke-opacity: 0.9; stroke-width: 1.5"/>
    <path d="M 641.274998 236.580315 
L 641.274998 236.580315 
" clip-path="url(#pf9116a78f7)" style="fill: none; stroke: #d62728; stroke-opacity: 0.9; stroke-width: 1.5"/>
   </g>
   <g id="patch_26">
    <path d="M 653.48125 219.045333 
C 655.595435 219.045333 655.595435 221.96783 653.48125 221.96783 
C 651.367065 221.96783 651.367065 219.045333 653.48125 219.045333 
" clip-path="url(#pf9116a78f7)" style="fill: none; stroke: #d62728; stroke-opacity: 0.9; stroke-width: 1.5; stroke-linecap: round"/>
   </g>
   <g id="patch_27">
    <path d="M 641.274999 204.432848 
C 643.389184 204.432848 643.389184 207.355345 641.274999 207.355345 
C 639.160815 207.355345 639.160815 204.432848 641.274999 204.432848 
" clip-path="url(#pf9116a78f7)" style="fill: none; stroke: #d62728; stroke-opacity: 0.9; stroke-width: 1.5; stroke-linecap: round"/>
   </g>
   <g id="patch_28">
    <path d="M 616.862499 204.432849 
C 618.976684 204.432849 618.976684 207.355346 616.862499 207.355346 
C 614.748314 207.355346 614.748314 204.432849 616.862499 204.432849 
" clip-path="url(#pf9116a78f7)" style="fill: none; stroke: #d62728; stroke-opacity: 0.9; stroke-width: 1.5; stroke-linecap: round"/>
   </g>
   <g id="patch_29">
    <path d="M 604.656251 219.045335 
C 606.770435 219.045335 606.770435 221.967832 604.656251 221.967832 
C 602.542066 221.967832 602.542066 219.045335 604.656251 219.045335 
" clip-path="url(#pf9116a78f7)" style="fill: none; stroke: #d62728; stroke-opacity: 0.9; stroke-width: 1.5; stroke-linecap: round"/>
   </g>
   <g id="patch_30">
    <path d="M 616.862503 233.657818 
C 618.976687 233.657818 618.976687 236.580315 616.862503 236.580315 
C 614.748318 236.580315 614.748318 233.657818 616.862503 233.657818 
" clip-path="url(#pf9116a78f7)" style="fill: none; stroke: #d62728; stroke-opacity: 0.9; stroke-width: 1.5; stroke-linecap: round"/>
   </g>
   <g id="patch_31">
    <path d="M 641.274998 233.657818 
C 643.389183 233.657818 643.389183 236.580315 641.274998 236.580315 
C 639.160813 236.580315 639.160813 233.657818 641.274998 233.657818 
" clip-path="url(#pf9116a78f7)" style="fill: none; stroke: #d62728; stroke-opacity: 0.9; stroke-width: 1.5; stroke-linecap: round"/>
   </g>
   <g id="PathCollection_4">
    <defs>
     <path id="C3_0_3dd5dcefa8" d="M 0 6.123724 
C 1.624031 6.123724 3.181764 5.47849 4.330127 4.330127 
C 5.47849 3.181764 6.123724 1.624031 6.123724 -0 
C 6.123724 -1.624031 5.47849 -3.181764 4.330127 -4.330127 
C 3.181764 -5.47849 1.624031 -6.123724 0 -6.123724 
C -1.624031 -6.123724 -3.181764 -5.47849 -4.330127 -4.330127 
C -5.47849 -3.181764 -6.123724 -1.624031 -6.123724 0 
C -6.123724 1.624031 -5.47849 3.181764 -4.330127 4.330127 
C -3.181764 5.47849 -1.624031 6.123724 0 6.123724 
z
"/>
    </defs>
    <g clip-path="url(#pf9116a78f7)">
     <use xlink:href="#C3_0_3dd5dcefa8" x="653.48125" y="221.96783" style="fill: #d62728; fill-opacity: 0.9; stroke: #d62728; stroke-opacity: 0.9; stroke-width: 2"/>
    </g>
    <g clip-path="url(#pf9116a78f7)">
     <use xlink:href="#C3_0_3dd5dcefa8" x="641.274999" y="207.355345" style="fill: #d62728; fill-opacity: 0.9; stroke: #d62728; stroke-opacity: 0.9; stroke-width: 2"/>
    </g>
    <g clip-path="url(#pf9116a78f7)">
     <use xlink:href="#C3_0_3dd5dcefa8" x="616.862499" y="207.355346" style="fill: #d62728; fill-opacity: 0.9; stroke: #d62728; stroke-opacity: 0.9; stroke-width: 2"/>
    </g>
    <g clip-path="url(#pf9116a78f7)">
     <use xlink:href="#C3_0_3dd5dcefa8" x="604.656251" y="221.967832" style="fill: #ffffff; fill-opacity: 0.9; stroke: #d62728; stroke-opacity: 0.9; stroke-width: 2"/>
    </g>
    <g clip-path="url(#pf9116a78f7)">
     <use xlink:href="#C3_0_3dd5dcefa8" x="616.862503" y="236.580315" style="fill: #ffffff; fill-opacity: 0.9; stroke: #d62728; stroke-opacity: 0.9; stroke-width: 2"/>
    </g>
    <g clip-path="url(#pf9116a78f7)">
     <use xlink:href="#C3_0_3dd5dcefa8" x="641.274998" y="236.580315" style="fill: #ffffff; fill-opacity: 0.9; stroke: #d62728; stroke-opacity: 0.9; stroke-width: 2"/>
    </g>
   </g>
   <g id="text_37">
    <g clip-path="url(#pf9116a78f7)">
     <!-- H -->
     <g style="opacity: 0.9" transform="translate(650.13375 224.17533) scale(0.08 -0.08)">
      <use xlink:href="#DejaVuSans-Bold-48"/>
     </g>
    </g>
   </g>
   <g id="text_38">
    <g clip-path="url(#pf9116a78f7)">
     <!-- H -->
     <g style="opacity: 0.9" transform="translate(637.927499 209.562845) scale(0.08 -0.08)">
      <use xlink:href="#DejaVuSans-Bold-48"/>
     </g>
    </g>
   </g>
   <g id="text_39">
    <g clip-path="url(#pf9116a78f7)">
     <!-- H -->
     <g style="opacity: 0.9" transform="translate(613.514999 209.562846) scale(0.08 -0.08)">
      <use xlink:href="#DejaVuSans-Bold-48"/>
     </g>
    </g>
   </g>
   <g id="text_40">
    <g clip-path="url(#pf9116a78f7)">
     <!-- L -->
     <g style="opacity: 0.9" transform="translate(602.107501 224.175332) scale(0.08 -0.08)">
      <use xlink:href="#DejaVuSans-Bold-4c"/>
     </g>
    </g>
   </g>
   <g id="text_41">
    <g clip-path="url(#pf9116a78f7)">
     <!-- L -->
     <g style="opacity: 0.9" transform="translate(614.313753 238.787815) scale(0.08 -0.08)">
      <use xlink:href="#DejaVuSans-Bold-4c"/>
     </g>
    </g>
   </g>
   <g id="text_42">
    <g clip-path="url(#pf9116a78f7)">
     <!-- L -->
     <g style="opacity: 0.9" transform="translate(638.726248 238.787815) scale(0.08 -0.08)">
      <use xlink:href="#DejaVuSans-Bold-4c"/>
     </g>
    </g>
   </g>
  </g>
 </g>
 <defs>
  <clipPath id="pf04846b793">
   <rect x="50.14375" y="24.312178" width="488.25" height="221.76"/>
  </clipPath>
  <clipPath id="p05eacebe49">
   <rect x="594.19375" y="24.312178" width="69.75" height="48.208696"/>
  </clipPath>
  <clipPath id="p8145839c34">
   <rect x="594.19375" y="82.162613" width="69.75" height="48.208696"/>
  </clipPath>
  <clipPath id="pcfc72afe95">
   <rect x="594.19375" y="140.013048" width="69.75" height="48.208696"/>
  </clipPath>
  <clipPath id="pf9116a78f7">
   <rect x="594.19375" y="197.863483" width="69.75" height="48.208696"/>
  </clipPath>
 </defs>
</svg>
